<?xml version="1.0" encoding="utf-8"?>
<!-- Generator: Adobe Illustrator 18.0.0, SVG Export Plug-In . SVG Version: 6.00 Build 0)  -->
<!DOCTYPE svg PUBLIC "-//W3C//DTD SVG 1.1//EN" "http://www.w3.org/Graphics/SVG/1.1/DTD/svg11.dtd">
<svg version="1.1" id="Layer_1" xmlns="http://www.w3.org/2000/svg" xmlns:xlink="http://www.w3.org/1999/xlink" x="0px" y="0px"
	 viewBox="0 0 32.5 44.4" enable-background="new 0 0 32.5 44.4" xml:space="preserve">
<g>
	<g>
		<path d="M0.5,29.9c2.7,2.6,5.4,5.2,7.9,8c1.3,1.4,2.5,2.8,3.8,4.2c1.4,1.6,1.3,2.1,1.4,0.9c0.5-0.5,1-1,1.5-1.5
			c-0.1,0-0.1,0-0.2,0c0.4,0.8,0.9,1.5,1.3,2.3c0.6-1.2,3.3-2.4,4.4-3.2c1.6-1.1,3.1-2.2,4.7-3.3c2.1-1.5,5.8-3.1,7.1-5.4
			c0.6-1-0.2-2.2-1.3-2.3c-0.1,0-0.1,0-0.2,0c-0.8-0.1-1.5,0.7-1.5,1.5c0,0,0,0.1,0,0.1c0.9-0.4,1.7-0.7,2.6-1.1
			c-0.4-0.5-0.7-0.9-1.1-1.4c-0.4-0.5-1.3-0.6-1.8-0.2c-0.7,0.5-4-0.1-5-0.2c-2.5-0.3-5.1-0.6-7.7-0.8c-4.5-0.3-9-0.4-13.5-0.3
			c0,1,0,2,0,3c1.5-0.2,3,0,4.5,0.5c-0.1-0.9-0.2-1.8-0.4-2.7c-0.6,0.3-1.2,0.7-1.8,1c-1,0.6-1,2.5,0.4,2.7c1,0.2,1.9,0.3,2.9,0.5
			c-0.3-0.7-0.6-1.5-0.9-2.2c-0.3,0.6-0.6,1.2-1,1.7c-0.6,1,0.1,2.2,1.3,2.3c2.3,0,4.2-0.2,6.5-0.6c-0.4-0.9-0.8-1.8-1.2-2.7
			c-1.5,0.7-2.1,1.6-2.6,3.1c-0.3,1,0.5,1.9,1.4,1.9c1,0,2,0.1,3,0.1c-0.3-0.9-0.5-1.9-0.8-2.8c-0.8,0.4-1,0.6-1.6,1.1
			c-0.8,0.7-0.4,2.3,0.7,2.5c0.6,0.1,1.2,0.3,1.9,0.4c-0.1-0.9-0.2-1.8-0.4-2.7c-0.9,0.6-1.8,1.1-2.7,1.7c-1.3,0.8-0.8,2.8,0.8,2.8
			c3.1,0,5.6-0.7,8.3-2.2c0.9-0.5,1.1-2.1,0-2.6c-1.5-0.7-1.8-0.8-3.4-1.1c0.3,0.7,0.6,1.5,0.9,2.2c0.2-0.3,0.3-0.6,0.5-0.9
			c0.3-0.6,0.3-1.4-0.2-1.8c-0.1-0.2-0.2-0.3-0.3-0.5c-0.6,0.6-1.2,1.2-1.8,1.8c2.5,0.9,4.5,0.9,7,0c1.8-0.7,1-3.6-0.8-2.9
			c-3.7,1.4-6.6,6.2-9.2,9.1c0.9,0.4,1.7,0.7,2.6,1.1c1.4-13.1,2.7-26.3,4.1-39.4c0.2-1.9-2.8-1.9-3,0c-1.4,13.1-2.7,26.3-4.1,39.4
			c-0.1,1.3,1.7,2,2.6,1.1c2-2.2,5.1-7.3,7.8-8.3c-0.3-1-0.5-1.9-0.8-2.9c-1.8,1-3.6,1-5.4,0c-1.1-0.4-2.1,0.8-1.8,1.8
			c0.2,0.9,0.4,1.2,1.1,1.8c-0.1-0.6-0.2-1.2-0.2-1.8c-0.2,0.3-0.3,0.6-0.5,0.9c-0.5,0.8-0.1,2,0.9,2.2c0.9,0.3,1.8,0.5,2.7,0.8
			c0-0.9,0-1.7,0-2.6c-2.3,1.3-4.2,1.8-6.8,1.8c0.3,0.9,0.5,1.9,0.8,2.8c0.9-0.6,1.8-1.1,2.7-1.7c1.1-0.6,1-2.5-0.4-2.7
			c-0.6-0.1-1.2-0.3-1.9-0.4c0.2,0.8,0.4,1.7,0.7,2.5c0.3-0.2,0.7-0.5,1-0.7c1.4-0.7,0.6-2.7-0.8-2.8c-1,0-2-0.1-3-0.1
			c0.5,0.6,1,1.3,1.4,1.9c0.4-0.5,0.8-0.9,1.2-1.4c1.6-0.8,0.4-3.1-1.2-2.7C11.7,30.8,9.9,31,7.9,31c0.4,0.8,0.9,1.5,1.3,2.3
			c0.3-0.6,0.6-1.2,1-1.7c0.4-0.8,0.1-2-0.9-2.2c-1-0.2-1.9-0.3-2.9-0.5c0.1,0.9,0.2,1.8,0.4,2.7c0.6-0.3,1.2-0.7,1.8-1
			c1.1-0.7,0.9-2.4-0.4-2.7c-1.8-0.5-3.4-0.7-5.3-0.6c-1.9,0.1-1.9,3,0,3c5.1-0.1,10.3,0,15.4,0.4c3.6,0.3,9.1,2.6,12.2,0.4
			c-0.6-0.1-1.2-0.2-1.8-0.2c0.4,0.5,0.7,0.9,1.1,1.4c0.9,1.1,2.5,0.1,2.6-1.1c0,0,0-0.1,0-0.1c-0.5,0.5-1,1-1.5,1.5
			c0.1,0,0.1,0,0.2,0c-0.4-0.8-0.9-1.5-1.3-2.3c-0.7,1.2-3.3,2.4-4.4,3.2c-1.6,1.1-3.1,2.2-4.7,3.3c-2.1,1.5-5.8,3.1-7,5.4
			c-0.6,1,0.2,2.2,1.3,2.3c0.1,0,0.1,0,0.2,0c0.8,0.1,1.5-0.7,1.5-1.5c0.1-1.6-2.6-3.5-3.5-4.5c-3.3-3.7-6.9-7.3-10.5-10.7
			C1.2,26.4-0.9,28.5,0.5,29.9L0.5,29.9z"/>
	</g>
</g>
</svg>
