<?xml version="1.0" encoding="utf-8"?>
<!-- Generator: Adobe Illustrator 18.0.0, SVG Export Plug-In . SVG Version: 6.00 Build 0)  -->
<!DOCTYPE svg PUBLIC "-//W3C//DTD SVG 1.1//EN" "http://www.w3.org/Graphics/SVG/1.1/DTD/svg11.dtd">
<svg version="1.1" id="Layer_1" xmlns="http://www.w3.org/2000/svg" xmlns:xlink="http://www.w3.org/1999/xlink" x="0px" y="0px"
	 viewBox="0 0 463.1 520.8" enable-background="new 0 0 463.1 520.8" xml:space="preserve">
<g>
	<g>
		<path d="M233.7,0.2c-7.8,0.8-12.5,6.9-17.5,12.3c-7.7,8.2-18.4,12.5-29.6,12.5c-2.8,0-7.3-1.7-9.8,0.4c-3.2,2.8-5.5,7-7.9,10.5
			c-6.2,9-11.4,18.5-16.4,28.1c-4.3,8.3-8.7,16.6-14.8,23.7c-7.6,8.8-17.8,13.1-29.2,13.8c-5.5,0.3-11-0.4-16.5-1.2
			c-3.5-0.6-6.1-0.1-8.9,2c-1.7,1.3-2.8,3.2-4.6,4.5c-2.2,1.6-4.9,2.3-7.5,2.6c-5.2,0.6-10.3-1.5-13.7-5.3c-1.3-1.4-3.4,0.7-2.1,2.1
			c4.8,5.4,11.8,7.1,18.7,5.8c3.2-0.6,6-2.3,8.4-4.4c0.7-0.6,1.3-1.3,1.9-2.1c2.2-2.6,5.5-2.6,8.6-2.1c2.4,0.4,4.8,0.7,7.2,0.9
			c9.8,0.9,19.7-0.5,28.4-5.1c8-4.3,13.9-11.7,18.7-19.2c5.3-8.3,9.3-17.3,14.1-25.9c2.9-5.2,6.1-10.3,9.4-15.3
			c1.6-2.5,3.4-4.9,5.1-7.3c2.4-3.4,3.7-4.2,7.8-3.7c9.1,1.1,18.4-1.5,26.2-6.1c4.1-2.4,7.4-5.7,10.6-9.2c3.7-4.1,7.6-8.7,13.5-9.3
			C235.6,3,235.6,0,233.7,0.2L233.7,0.2z"/>
	</g>
	<g>
		<path d="M55.2,103.9c-7.7,7.9-14.6,16.5-20.7,25.7c-6.2,9.4-12.1,19.6-14.6,30.7c-1.2,5.7,0.6,11.2-0.2,16.7
			c-0.6,3.9-6.3,6.7-7.9,10.5c-1.9,4.8-2.1,9.9-2.5,15c-0.5,6.3-1,12.6-1.5,18.9c-0.2,1.9,2.8,1.9,3,0c0.4-5.7,0.9-11.4,1.3-17
			c0.5-5.8,0.4-11.9,3.1-17.1c1.7-3.2,5.6-4.9,6.9-8.4c1.7-4.6-0.2-9.9,0.2-14.7c0.8-11.4,7.8-22.3,13.8-31.7
			c6.1-9.6,13.3-18.4,21.2-26.5C58.6,104.6,56.5,102.5,55.2,103.9L55.2,103.9z"/>
	</g>
	<g>
		<path d="M234.8,0.4c-8.2,7.1-14.9,16.9-17,27.8c-1,5.2,2.8,8.9,5.6,12.7c4.7,6.5,7.9,14.2,6.5,22.3c-0.9,5.2-2.8,9.7-1.1,14.9
			c1,3.1,3.2,5.5,3.4,8.8c0.3,3.5-4.8,6-7.1,7.9c-3.7,3.1-5.5,8-6.9,12.4c-2.3,7.3-4.1,14.7-6.1,22.1c-0.5,1.9,2.4,2.7,2.9,0.8
			c1.8-6.4,3.5-12.7,5.3-19.1c1.9-6.8,4.1-12.1,9.9-16.4c3.2-2.4,5.2-5,4.9-9c-0.1-1.6-1-3.2-1.7-4.7c-2-4.2-2.8-7.3-1.8-12.1
			c1.2-5.4,2.1-9.9,1-15.5c-1.1-5.6-4.4-10.8-7.7-15.4c-2.5-3.4-4.9-6-4-10.6c0.7-3.5,2.4-7,4-10.1c2.9-5.7,7.1-10.6,11.9-14.8
			C238.4,1.2,236.2-0.9,234.8,0.4L234.8,0.4z"/>
	</g>
	<g>
		<path d="M208.5,131.8c-2.7,7.2-1.6,14.4,0.1,21.7c2.2,10,5.5,20.1,6.8,30.3c0.5,3.8-1.1,7.7-0.5,11.5c0.6,3,1.9,5.3,4.1,7.5
			c4.8,4.7,12.2,4.9,18.4,4.1c8.4-1,17.1-4.2,25.1,0.4c8.4,4.8,9.7,18,8.3,26.4c-1.5,9.1-7.1,14.8-12.8,21.5c-3.9,4.6-5.8,10.4-3,16
			c0.9,1.7,3.4,0.2,2.6-1.5c-4.3-8.7,6.5-15.8,10.9-22c3.7-5.3,5.4-11.8,5.9-18.1c0.9-11.8-5.2-26.5-18.5-27.5
			c-8-0.6-15.7,2.1-23.6,2.3c-4.6,0.1-8.8-1.4-12-4.6c-3.8-3.7-1.9-9.3-1.7-13.9c0.2-8.3-3.4-17.5-5.2-25.5
			c-2.1-9-5.2-18.5-1.8-27.7C212.1,130.8,209.2,130.1,208.5,131.8L208.5,131.8z"/>
	</g>
	<g>
		<path d="M207.9,278.7c-9.4-4.9,2.3-15.8,5.6-20.7c2.4-3.6,2.2-7.9,6.9-9.7c3.9-1.5,8.7,1.4,8,6.3c-0.3,1.8-4.6,2.7-6,3.3
			c-2.8,1.2-4.9,5.2-2.9,8c1.1,1.5,2.5,2.9,4.5,2.9c1.6,0.1,1.7,0,3.2-0.3c3.7-0.9,1.9,2.7,1.5,4.4c-1.9,7.8,14.3,8.8,12.4,1.7
			c-0.4-1.3-1.5-2.3-2.6-3c-2.8-2-2.4-5-1-7.8c1.5-3.3,6.1-4.5,6.1,0.4c0,6.4,6,7,11,8.8c1.8,0.7,2.6-2.2,0.8-2.9
			c-1.7-0.6-3.3-1.2-5-1.8c-3.2-1.2-3.6-3.7-3.9-6.7c-0.2-1.9-1.6-3.4-3.4-3.9c-5.3-1.4-9.4,4.7-9.8,9.3c-0.2,2.7,0.5,4.5,2.6,6.3
			c0.6,0.4,1.1,0.9,1.7,1.3c-0.6,1.9-1.7,2.4-3.4,1.5c-3.7-0.8-1.8-4.9-1.5-7c0.2-1.4-0.7-3.5-2.1-4c-1.2-0.5-1.5-0.3-2.9-0.1
			c-1.9,1-3-0.6-3.3-4.7c0.8-0.3,1.6-0.5,2.4-0.8c4.7-1.5,6.7-7,3.3-11c-4-4.7-10.1-4.3-14.6-0.6c-2.9,2.4-3.4,7-5.4,10
			c-2.4,3.5-5.4,6.2-7.3,10.1c-2.4,4.8-1.2,10.8,3.7,13.3C208.1,282.2,209.6,279.6,207.9,278.7L207.9,278.7z"/>
	</g>
	<g>
		<path d="M300.6,72c-7.8-5.9-20.1-1.7-27.6,2.8c-2.8,1.7-6.9,5.6-7.3,9.1c-0.5,5.5,5.2,2.6,8,5.2c2.8,2.6,3.6,6.2,8.1,5.9
			c3.1-0.2,3.8-3,3.4-5.4c-0.3-1.6,2.4-5.1,2.9-7c0.2-0.8-0.2-2.8,1-3.3c1.2-0.5,3.3-0.1,4.7-0.2c2.8-0.2,4.8-1.9,5.1-4.6
			c0.2-1.9-2.8-1.9-3,0c-0.4,3.5-9.4-0.1-10.6,4.2c-0.7,2.6,0.7,2-0.8,5.6c-0.4,1-1.4,1.7-1.8,2.7c-0.4,0.9-0.6,1.2-0.5,2
			c0.5,3.9-4,0.8-5.3-0.9c-1.5-1.9-2.8-3-5.2-3.4c-1.1-0.2-3.9,1.1-1.8-2.5c1.2-2,3-3.5,4.8-4.9c6.1-4.4,18.2-7.6,24.6-2.8
			C300.7,75.8,302.2,73.2,300.6,72L300.6,72z"/>
	</g>
	<g>
		<path d="M334.7,166.3c-2.6,0.4-5.8,0.3-8.2,1.5c-2,1-1.9,3.6-1,5.3c1.2,2.1,4,2.3,6,1.5c2.4-0.9,4.3-3.1,5.3-5.4
			c0.8-1.8-1.8-3.3-2.6-1.5c-0.8,1.7-3.9,6-6.1,3.9c-1.4-1.3,1.4-1.6,2.1-1.7c1.7-0.2,3.5-0.5,5.2-0.7
			C337.4,169,336.6,166.1,334.7,166.3L334.7,166.3z"/>
	</g>
	<g>
		<path d="M7.6,221.6c0.1,13.2,0.1,26.3,0.2,39.5c0,6.4,0.3,12.9-0.6,19.3c-0.9,5.9-2.5,10.8-0.2,16.5c2.1,5.5,4.3,10.6,5.3,16.5
			c1.1,6.4,0.9,13.1,0.2,19.5c-1.3,12.8-5.7,25.3-12.3,36.4c-1,1.7,1.6,3.2,2.6,1.5c11.8-20,17.6-46.1,9.6-68.6
			c-0.9-2.6-2.2-5-3.2-7.6c-1.4-3.7-0.3-7.9,0.4-11.7c1.2-5.9,1.1-12,1.1-18c-0.1-14.5-0.1-29-0.2-43.5
			C10.6,219.7,7.6,219.7,7.6,221.6L7.6,221.6z"/>
	</g>
	<g>
		<path d="M1.6,373.3c7.7,2.2,14.4,6,20.3,11.4c0.7,0.6,1.9,0.6,2.4-0.3c1.1-2.1,0.6-3.7-1-5.4c-1.9-2-4-0.9-5.4-4.3
			c-1-2.6,0.2-6,1-8.5c-0.6,0.3-1.2,0.7-1.8,1c4.7,0.9,7.2,8.1,10,11.6c2.9,3.6,6.7,6.5,10.7,8.7c5.5,3.1,10.7,4.1,14.6,9.5
			c3.9,5.5,5.3,12.4,4.8,19c-0.4,5.2-2.1,10.1,0.2,15.2c1.9,4,2.3,6.7,0.5,10.8c-0.9,2.2-2.2,4.3-3.3,6.5
			c-4.9,10.4,3.7,19.4,1.6,29.8c-0.4,1.9,2.5,2.7,2.9,0.8c1-5-0.2-9.4-1.6-14.2c-1.1-3.7-2.1-7.3-1.6-11.2c0.4-3.2,2.4-6.1,3.8-8.9
			c2-3.8,3.3-8.1,1.4-12.2c-2.3-5.1-2.3-8.8-1.5-14.3c0.5-2.9,0.5-5.7,0.3-8.6c-0.9-10.7-7.2-19.1-17-23
			c-6.8-2.7-12.3-7.3-16.3-13.3c-2.5-3.7-4-8.2-8.9-9.1c-0.8-0.2-1.6,0.2-1.8,1c-1.1,3.4-1.8,6.6-1,10c0.4,2,7,6.7,6.6,7.4
			c0.8-0.1,1.6-0.2,2.4-0.3c-6.3-5.7-13.5-9.8-21.7-12.2C0.6,369.8-0.2,372.7,1.6,373.3L1.6,373.3z"/>
	</g>
	<g>
		<path d="M39.9,405.6c-2.9-2.5-5.7-5.1-7.6-8.5c-1.8-3.1-2.3-7-2.9-10.5c-0.8,0.5-1.7,1-2.5,1.5c5.5,4.6,10.4,10.4,10.3,17.9
			c0,1.9,3,1.9,3,0c0.1-8.3-5.1-15-11.2-20.1c-1.2-1-2.8,0-2.5,1.5c0.7,3.9,1.5,7.6,3.2,11.2c1.8,3.7,5.1,6.5,8.1,9.1
			C39.2,409,41.4,406.9,39.9,405.6L39.9,405.6z"/>
	</g>
	<g>
		<path d="M48.4,436.7c-0.1,0.1-0.2,0.1-0.3,0.2c0.6,0.1,1.2,0.2,1.8,0.2c1.1,0.9,2.6-4.6,2.4-5.4c-0.7-2.4-3.6-3-5.7-2.8
			c-7.7,0.6-7.8,10.8-7.2,16.2c0.3,2.8,1.6,14.4,7.6,10.9c2.4-1.4,2.7-3.3,2-5.9c-0.6-2.2-2-3.1-2.3-5.8c-0.3-3.1,2.1-6.4,3.8-8.9
			c1.1-1.6-1.5-3.1-2.6-1.5c-2.2,3.3-3.9,6.4-4.2,10.4c-0.1,1.1,0.3,2.6,0.8,3.6c0.4,0.8,0.8,1.5,1.2,2.2c-0.8,0.3-1.6,0.5-2.5,0.8
			c-0.3-1.3-0.5-2.6-0.6-3.9c-0.3-2.2-0.5-4.4-0.6-6.6c-0.1-1.4,0.1-2.8,0.5-4.2c0.6-0.9,1.1-1.9,1.7-2.8c4.4-0.6,5.7-0.1,3.7,1.5
			c-1.2,1.3-1.6,3.1-0.2,4.3c0.5,0.4,1.2,0.6,1.8,0.2c0.1-0.1,0.2-0.1,0.3-0.2C51.5,438.1,50,435.5,48.4,436.7L48.4,436.7z"/>
	</g>
	<g>
		<path d="M206.5,281.4c2.6,8.3,2.4,16.7-0.4,25c-1.3,4-8.3,11.3-4.6,15.6c-1.5-1.7-0.8-4.6-2.5-6.5c-1.1-1.2-3.3-1.4-4.8-1.2
			c-3.6,0.6-7.2,3.7-10.8,2.5c-2.3-0.8-8.6,2.9-10.9,3.8c-1.4,0.5-1.5,2.4,0,2.9c6,1.9,12,3.8,18,5.6c-0.1-0.9-0.2-1.8-0.4-2.7
			c-6.9,3.3-6,14.3,2.7,12.7c-0.6-0.7-1.1-1.5-1.7-2.2c-0.7,1.8-2.1,3-4,3.7c-0.6,0.2-1.2,0.7-1.1,1.4c0.2,1.8,0.4,3.7,0.5,5.5
			c0.4-0.5,0.7-1,1.1-1.4c-4.3,1.2-8.5,2.4-12.8,3.5c-2.7,0.7-5.9,2-8.6,0.9c-1.9-0.8-3.6-2.1-5.4-2.9c-5.9-2.7-12.8-2.7-18.9-0.9
			c-1.6,0.5-1.3,3,0.4,2.9c9.5-0.5,18.9,7.7,26.7,12.4c-0.1-0.8-0.2-1.6-0.3-2.4c-5,6.1-9.9,12.2-13.4,19.3c0.6-0.2,1.1-0.5,1.7-0.7
			c-4-1.5-8.1-2.6-11.9-0.2c-2.4,1.5-3.2,4.4-2.4,7.1c0.3,1,1.3,1.3,2.2,0.9c0.9-0.4,1.8-0.8,2.7-1.1c5.1-0.4,6.9,1.4,5.3,5.4
			c-0.9,1.2-3.1,2.1-4.3,3.2c-1.7,1.5-2,4-2,6.1c0,2.7,1.4,5.3,2.8,7.6c0.8,1.4,1.7,2.7,2.5,4.1c1.3,2.3,1.3,4.9,1.9,7.4
			c0.8,3.7,5.6,3.2,4.6,8.3c-1.1,5.2-8.2,6.2-12.3,7.6c-4.9,1.6-9.2,5.6-8.7,11c0.1,0.9,0.6,1.4,1.5,1.5c4.5,0.5,1,6.5-0.5,7.9
			c-2,1.9-4.3,3.3-6.2,5.4c-0.5,0.6-0.6,1.5,0,2.1c3.4,3.3,6.9,0.3,10.1-1.8c3.7-2.5,11.1,4,14.2,5.9c3.9,2.5,7.9,4.9,11.8,7.4
			c1.6,1,3.1-1.6,1.5-2.6c-6.6-4.2-13.2-8.5-20-12.5c-1.6-1-4-2-5.9-1.7c-2.3,0.3-7.7,5-9.7,3.2c0,0.7,0,1.4,0,2.1
			c3-3.5,9.3-6,9.7-11.3c0.2-3.6-1.2-6.7-5-7.1c0.5,0.5,1,1,1.5,1.5c-0.7-7.1,7.8-8.5,12.8-10.2c3.3-1.1,5.7-3.1,7.4-6
			c1.4-2.4,1.1-5.1-0.1-7.5c-0.6-1.1-1.9-2-2.8-2.8c-1.5-1.3-1.6-5.9-2.5-7.9c-2.4-5-9.6-12.4-2.6-17c2.5-1.6,4-3,4.2-6
			c0.5-7.4-9.2-6.8-13.4-4.7c0.7,0.3,1.5,0.6,2.2,0.9c-2.1-7.6,8.5-4,10.6-3.2c0.6,0.2,1.4-0.1,1.7-0.7c3.4-6.9,8.1-12.8,13-18.7
			c0.6-0.7,0.6-1.8-0.3-2.4c-8.3-5.1-17.9-13.4-28.2-12.8c0.1,1,0.3,2,0.4,2.9c4.7-1.4,9.1-1.5,13.9-0.3c3.6,0.8,6.4,3.8,9.9,4.6
			c3.3,0.7,6.1-0.4,9.3-1.3c4.3-1.2,8.5-2.4,12.8-3.5c0.6-0.2,1.2-0.8,1.1-1.4c-0.2-1.8-0.4-3.7-0.5-5.5c-0.4,0.5-0.7,1-1.1,1.4
			c2.6-1.1,4.4-2.5,5.8-5.1c0.6-1.2-0.4-2.5-1.7-2.2c-3.2-3.8-3.3-6.2-0.4-7.2c1.2-0.6,0.7-2.4-0.5-2.7c-6-1.9-12.2-3.8-18.2-5.6
			c0,1,0,1.9,0,2.9c4-1.5,8-3.4,12.4-3.3c2.9,0.1,10.3-5.8,12.2-1.3c1,2.4,0.2,4.5,2.8,5.8c1.3,0.7,3.4,0.3,4.2-1
			c1.4-2.4-1.9-4.3-0.3-7.5c1.7-3.6,3.8-6.8,5.1-10.6c2.7-8,2.4-17-0.1-25C208.8,278.8,205.9,279.6,206.5,281.4L206.5,281.4z"/>
	</g>
	<g>
		<path d="M57.7,480.8c0.4,2.1,2,3.3,4.2,3.5c4.7,0.5,9.5-0.2,14.2,0.2c11.1,0.7,21.9,4.2,31.7,9.3c4.1,2.2,7.7,5.2,12.3,6
			c3.9,0.7,8-1.2,11.4-2.8c3.9-1.8,7.6-3.9,10.7-6.8c1.6-1.5,8.7-15.6,11.2-9.4c0.2-0.6,0.5-1.1,0.7-1.7c-1.9,1.2-3.9,2.4-5.8,3.6
			c-0.8,0.5-1,1.6-0.3,2.4c3.5,3.8,9.7,10.4,15.5,8.1c1.2-0.5,2.5-2.1,2.5-3.5c0-2.4-3.7-4-3.5-5.7c-0.5,0.5-1,1-1.5,1.5
			c2.8,0.2,9.1-0.5,11.4,1.4c1.8,1.5,3.9,2.4,6,3.2c4.5,1.7,10.6,1.4,14.5-1.6c3.5-2.7,0.8-11.3-0.4-14.5
			c-2.2-5.7-6.6-10.3-11.3-14.1c-4.8-3.8-10.3-6.9-15.6-9.7c-4-2.1-8.4-2.3-12,0.7c-3.2,2.6-1.7,7.8,0.7,10.3
			c3.9,4.2,12.2,6,13.4,12.2c0.3,1.9,3.2,1.1,2.9-0.8c-1.1-5.8-6.7-8.1-11.2-10.9c-3.2-2-8.5-9.1-0.1-10.1c2.6-0.3,5.3,1.5,7.5,2.7
			c3.9,2.2,7.7,4.4,11.3,7c4.2,3,7.7,6.7,10.4,11.1c2.3,3.9,5.8,13.7-1,15.4c-5.7,1.4-9.8-1.5-14.4-4.2c-1.2-0.7-3.2-0.4-4.5-0.5
			c-2.5-0.2-5-0.4-7.5-0.6c-0.9-0.1-1.4,0.7-1.5,1.5c-0.2,1.5,0.4,2.3,1.5,3.3c2.6,2.5-3.1,2.3-4.7,1.2c-2.3-1.5-4.3-3.5-6.2-5.5
			c-0.1,0.8-0.2,1.6-0.3,2.4c1.9-1.2,3.9-2.4,5.8-3.6c0.5-0.3,0.9-1.1,0.7-1.7c-1.9-4.8-8.3-4.4-11-0.4c-3.2,4.7-4.7,8.7-9.8,11.9
			c-5.6,3.5-12.6,7.2-19.1,4c-4.6-2.3-8.7-5.2-13.4-7.2c-4.3-1.9-8.7-3.3-13.3-4.5c-4.5-1.2-9.2-1.8-13.8-2.2
			c-2.1-0.2-15,1.1-15.5-1.5C60.2,478.1,57.4,478.9,57.7,480.8L57.7,480.8z"/>
	</g>
	<g>
		<path d="M244.6,307c0.1-4.6-7-19.8-11.1-10.1c-1.3,3.1,0.4,10,2.2,12.7c1.1,1.6,6.7,1.5,1.9,5.1c-1.4,1-2.8,2.2-3.4,3.8
			c-1.5,4.2-0.4,8.1,2.4,11.5c1.6,2,6.1,4.5,8.1,1.7c1.4-2,1.5-4.1,1.9-6.5c0.2-1.7,0.9-3.3,2.2-4.5c0.2-0.2,0.9-0.9,1-1.4
			c0.9-5.6-7.6-9.9-5.1-15c0.8-1.7-1.7-3.3-2.6-1.5c-1.1,2.2-1.1,4.1-0.3,6.5c0.7,2,6.5,7.4,4.9,9.2c-1.7,2-2.5,3.2-3,5.8
			c-0.3,1.4,0,6.4-3.2,4.9c-3.2-1.5-4.4-5.5-3.9-8.7c0.6-3.5,10.2-7.5,4.5-12c-0.6-0.5-0.9-0.4-1.8-0.6c-2.5-0.4-2.4-4-2.7-5.8
			c-0.2-1.4-0.4-7.5,1.6-3.6c1.2,2.3,3.4,5.6,3.3,8.2C241.5,308.9,244.5,308.9,244.6,307L244.6,307z"/>
	</g>
	<g>
		<path d="M180.6,377.4c-1.3,0.2-2.5,0.3-3.8,0.5c0.5,0.4,1,0.7,1.4,1.1c-1.7-7.7-14.3-9.8-16.7-1.4c-1.1,3.9-0.4,8.8,3.1,11.4
			c1.8,1.4,4.5,2.1,3.9,5.5c-0.2,1.4-0.8,2.6-1,4c-0.2,1.9-0.2,4.1,1.3,5.5c2.5,2.5,5.3,3.8,5.4,8c0,2.2,1.2,3.8,2.5,5.4
			c0.9,1.1,2,2.1,2.8,3.3c1.1,1.6-1.2,3.8-1.8,5.1c-0.5,1.2-0.2,2.9,0.7,3.8c2,1.8,4.3,3.3,6.8,4.2c3.6,1.3,8.9,1.1,11.4,4.3
			c1.1,1.4,1.8,3.1,2.4,4.7c0.9,2.7-2.1,4.1-3.6,5.4c-1.2,1.1-1.4,2.4-1.1,3.9c0.1,0.7,0.8,1,1.4,1.1c14.1,1.8,28.4,4.2,42.6,5.2
			c2.4,0.2,4.7-0.5,6.9-1.6c3.7-1.9,6.3,0.2,10,0.4c1.8,0.1,7.8-0.6,6.8-3.9c-0.9-3.2-1.7-6.3-1.9-9.6c-0.2-4.3,2.5-6.9,4.4-10.3
			c2.4-4.3,2.3-12.3,1.5-16.9c-1-5.7-3.9-10.4-7-15.2c-1.9-2.9-10.4-16.8-2.5-17.8c1.5-0.2,2.1-1.9,0.8-2.8c-4.3-3-5.5-7-5.8-12.1
			c-0.1-1.5-0.5-3.5-1.8-4.4c-3.5-2.7-7,0.3-7.8,4c-0.7,3.2,1.7,6.6,1.8,9.8c0.1,2.9-6.2,3.6-8,5.6c-0.6,0.7-1.1,1.6-1.6,2.5
			c-2.6,1.9-3.3,1.7-2.3-0.7c0.1-0.7,0.3-1.4,0.4-2.2c0.4-3.4,0.8-7.1,0.1-10.5c-1.5-6.7-7.7-4.6-12-8.7c-3.6-3.3-7.5-5.7-12.4-3.2
			c-3.4,1.7-6.2,4.1-9.4,6.1c-3.8,2.5-8.1,4.1-12.5,5.3c-4.4,1.2-9,2.8-9.6,7.9c-0.2,1.9,2.8,1.9,3,0c0.4-3.4,4.8-4.3,7.4-5
			c3-0.8,5.8-1.9,8.6-3.1c5.7-2.6,13.8-11.9,20.2-8c2.1,1.3,3.7,3.4,5.7,4.8c2.1,1.5,6.7,0.7,7.9,3.6c1.3,3.5,0.4,8.7-0.2,12.2
			c-0.2,1.4-1.6,3.6-0.5,4.9c2.1,2.5,5.2,1.4,7.3-0.6c0.7-0.7,1.1-1.7,1.6-2.4c1.6-2.6,3.8-2.3,6.2-3.1c1.1-0.4,2.2-1.6,2.6-2.7
			c0.6-1.9,0.6-3.6,0.3-5.5c-0.2-0.6-0.3-1.2-0.5-1.7c-1.3-2.1-0.4-3.7,2.6-4.8c0.2,1.3,0.1,2.6,0.2,3.9c0.4,4.5,3.4,8.3,7,10.8
			c0.3-0.9,0.5-1.9,0.8-2.8c-9.5,1.2-5.4,13.2-2.5,18.5c3.1,5.5,7.1,10.3,8.7,16.6c1,3.8,0.4,8.1,0,11.9c-0.4,4.4-2.9,6.9-4.7,10.6
			c-1,2.2-1,4.8-0.9,7.2c0.1,2.4,3.1,8.5-0.8,8.9c-2.7,0.3-5.6-1.3-8.3-1.5c-2.3-0.2-4.7,1.8-6.8,2.4c-3.4,1.1-8.6-0.4-12.1-0.8
			c-3.8-0.5-7.5-0.9-11.3-1.4c-7.4-0.9-14.8-1.9-22.2-2.8c0.5,0.4,1,0.7,1.4,1.1c-0.2-1.2,2.9-3.1,3.7-3.9c0.9-1,1.4-2.7,1.2-4
			c-0.5-3.9-2.8-7.8-6.2-9.9c-1.6-1-3.8-1.1-5.5-1.4c-1.4-0.2-11-3-9.7-5.9c1.5-3.3,3.2-4.6,0.8-8.1c-1.3-1.9-3.2-3.1-4.1-5.3
			c-1-2.3,0-4.5-1.4-6.8c-0.7-1.2-2.3-2.1-3.4-2.9c-4.1-2.8-1-6.1-0.9-9.6c0.2-5.1-3.9-5.1-6.5-8.6c-2.1-2.9-1.5-7.3,1.4-9.4
			c3.3-2.4,8.1,0.5,8.8,4c0.1,0.6,0.8,1.2,1.4,1.1c1.3-0.2,2.5-0.3,3.8-0.5C182.5,380.1,182.5,377.1,180.6,377.4L180.6,377.4z"/>
	</g>
	<g>
		<path d="M248.6,460.1c-5,0.1-14.1,5.9-6.5,9.7c0.9,0.4,0.2,2.4,1,3.2c0.9,0.9,2,1.3,3.3,1c4.3-1.1,8.2-3.6,11.5-6.4
			c0.7-0.6,0.5-1.9-0.3-2.4c-2.2-1.2-4.5-1.5-6.8-0.5c0.6,0.5,1.3,1,1.9,1.4c0-1.5,0-3.1,0-4.6c0-1.9-3-1.9-3,0c0,1.5,0,3.1,0,4.6
			c0,0.9,1,1.8,1.9,1.4c1.6-0.7,3-0.7,4.5,0.2c-0.1-0.8-0.2-1.6-0.3-2.4c-1.8,1.6-3.8,2.9-5.9,4c-1.2,0.6-2.4,1.1-3.6,1.5
			c-0.9,0.3-0.7-1.5-0.9-1.9c-0.5-1-1.3-1.5-2.3-2c-3-1.5,4.4-3.8,5.5-3.8C250.6,463,250.6,460,248.6,460.1L248.6,460.1z"/>
	</g>
	<g>
		<path d="M207.9,477.8c8.1,5.9,16.2,11.8,24.3,17.7c0.6,0.4,1.4,0.2,1.8-0.2c3.9-3.5,5-8.7,0.1-11.8c-3.1-2-7.6-2.7-11.1-4
			c-4.6-1.7-9.3-3.4-13.5-5.9c-1.7-1-3.2,1.6-1.5,2.6c4,2.4,8.3,3.9,12.6,5.6c2.7,1,5.4,2,8.1,2.9c1.3,0.4,2.6,0.9,3.9,1.4
			c4.1,1.8,0.9,5.6-0.8,7.1c0.6-0.1,1.2-0.2,1.8-0.2c-8.1-5.9-16.2-11.8-24.3-17.7C207.9,474.1,206.4,476.7,207.9,477.8L207.9,477.8
			z"/>
	</g>
	<g>
		<path d="M276.8,437.5c-2.5,0.7-3.5,2.1-4.5,4.4c-0.6,1.5-0.2,3.4,0,4.9c0.4,3.1,0.3,5.4-1.1,8.3c-3.7,8.1-10.2,16.8-17.7,21.6
			c-0.9,0.6-1.1,2.1,0,2.6c3.4,1.7,3.3,6-0.4,7.7c-0.5,0.2-1.3,0.9-1.4,1.5c-0.7,3.5-0.5,7.3-0.5,10.9c0.1,5.5,2.9,10.5,8.7,11.1
			c0.8,0.1,1.5-0.7,1.5-1.5c-0.4-13.2,6.2-27.2,10.8-39.5c2.2-5.9,6.3-11.1,8.2-17.1c0.7-2.3,0.4-4.7-0.3-6.9
			c-0.1-0.4-2.8-5.1-3.3-5c1.8-0.6,1.1-3.5-0.8-2.9c-2.2,0.7-3.7,3.3-1.6,5.1c7.9,7-1.1,16.6-4.2,23.9c-2.8,6.6-4.9,13.5-7.2,20.2
			c-2.5,7.2-4.7,14.3-4.5,22c0.5-0.5,1-1,1.5-1.5c-6.7-0.7-5.7-8.9-5.6-13.4c0.1-2.3,0.2-4.3,2.3-5.6c0.9-0.6,1.5-1.6,2.1-2.5
			c2.1-3.5-0.6-7.7-3.6-9.3c0,0.9,0,1.7,0,2.6c6-4.1,10.6-9.8,14.6-16c2.1-3.2,4.1-6.3,5.4-9.9c1.2-3.5-2.2-11.8,2.5-13
			C279.5,439.9,278.7,437,276.8,437.5L276.8,437.5z"/>
	</g>
	<g>
		<path d="M322.7,467.7c-2.1-6-7.2-9-13.3-9.7c-4.1-0.5-8.4,0.9-12.2,2.4c-2.5,1-6.2,2.3-7.8,4.7c-3.7,5.6,0.7,10.6,5.6,13.4
			c-1.2,2.7-2.9,3.7-5.1,2.9c-0.6-0.1-1.2-0.1-1.7-0.2c-0.7-0.1-1.6,0.3-2.1,0.7c-1.7,1.4-2.6,3.2-1.2,5.1c1.2,1.6,6,1.9,7.8,2.9
			c3.4,1.7,6.4,4.3,9.4,6.7c2.5,2.1,5.1,4,7.9,5.7c3.9,2.3,9.6,2.3,12.5,6c3.1,4,7.6,10,13.6,7c3.2-1.6,3.9-6.2,7.2-7.3
			c5.9-2.1,12.9,0.1,18.6,1.7c0.7,0.2,1.3-0.1,1.7-0.7c3-4.5,3.9-9.5,2.7-14.8c-0.2,0.6-0.5,1.1-0.7,1.7c1.3-1.1,2.8-1.7,4.5-1.8
			c-0.5-0.5-1-1-1.5-1.5c-0.8,10.4,2.8,20.2,10,27.8c0.5,0.5,1.2,0.5,1.8,0.2c1.5-0.6,1.8-1.6,1.9-3.2c0-0.9-0.4-2-0.8-2.9
			c-1.4-3.1-1.4-5.6-0.5-8.9c1.4-5,4.6-9.8,7-14.5c2.4-4.7,4.8-9.4,7.2-14.1c0.2-0.5,0.3-1.1,0-1.5c-1.7-2.5-3.5-5.2-6-6.9
			c-1.3-0.9-2.5-1.5-4-1.9c-2.5-0.8-3.2-1.4-4.4-3.9c-2.3-4.7-8.2-5.3-12-2.3c0.7,0,1.4,0,2.1,0c-4.9-5-11.8-5.3-17.6-1.7
			c-0.9,0.6-1.1,2.1,0,2.6c5.4,2.6,4.8,9.3-1,10.8c0.6,0.5,1.3,1,1.9,1.5c-0.1-1.5,0-3,0.5-4.5c0.2-0.8-0.2-1.6-1-1.8
			c-1.7-0.5-4.1-1.2-5.8-0.3c-2.7,1.4-2.3,3.3-2.8,6c-0.7,4.5-7.1,5.1-10.4,4.2c-4.7-1.3-8.1-6.5-10.7-10.2
			c-1.1-1.6-3.7-0.1-2.6,1.5c4.1,5.7,8.8,11.8,16.3,12.2c2.5,0.1,5.7-0.9,7.5-2.7c2.5-2.4,3.2-9.2,7.7-7.8c-0.3-0.6-0.7-1.2-1-1.8
			c-0.4,1.8-0.6,3.4-0.6,5.3c0,1,1,1.7,1.9,1.4c8.2-2.1,9.7-12.6,1.7-16.3c0,0.9,0,1.7,0,2.6c4-2.9,9.9-2.4,13.9,1.3
			c0.6,0.6,1.5,0.6,2.1,0c2.1-1.8,4.5-1.4,6.4,0.2c1.1,0.9,0.9,2.4,1.5,3.5c0.9,1.5,1.8,2.1,3.3,2.7c3.3,1.3,5.7,2,8.2,4.8
			c3,3.4-0.5,7-2.3,10.4c-3.2,6.3-6.7,12.4-9.4,18.9c-1.1,2.6-1.5,5.3-1.3,8.1c0,0.7,2.4,6.2,1.6,6.6c0.6,0.1,1.2,0.2,1.8,0.2
			c-6.7-7-9.8-16-9.1-25.6c0.1-0.7-0.7-1.6-1.5-1.5c-2.3,0.3-4.1,0.8-6,2.2c-0.6,0.4-0.8,1-0.7,1.7c1,4.6,0.2,8.6-2.4,12.5
			c0.6-0.2,1.1-0.5,1.7-0.7c-4.8-1.3-9.6-2.5-14.6-2.5c-2.9,0-8.2,0.5-9.9,3.5c-0.3,0.4-0.5,0.9-0.7,1.3c-1.4,3.8-4.8,4.6-8.2,2.7
			c-2.6-1.4-3.4-4.4-5.3-6.4c-3.2-3.1-7.5-3.3-11.3-5.1c-7.6-3.6-13-10.7-20.8-14.1c-0.5-0.2-1-0.4-1.6-0.6
			c-0.4-0.1-0.8-0.2-1.2-0.4c-2.1-0.3-1.7-0.5,1.3-0.7c1.6,0.3,3,0.4,4.5-0.2c2.6-0.9,3.5-4.1,3.5-6.5c0-0.5-0.3-1-0.7-1.3
			c-2.4-1.3-4.6-2.5-6.2-4.8c-3.9-5.5,7.1-8.9,9.6-9.7c6.8-2.3,15.8-1.2,18.5,6.5C320.4,470.3,323.3,469.5,322.7,467.7L322.7,467.7z
			"/>
	</g>
	<g>
		<path d="M362.7,295.4c5.8-3,11.3-6.5,16.4-10.6c5.4-4.2,9.7-9.9,15.4-13.6c6.6-4.3,12,2,18.5,2.8c3.8,0.5,7.9,0.1,11,2.8
			c3.1,2.8,1.8,8.5,0.6,11.8c-1.8,5.4-5.5,10.7-4.3,16.7c1.4,6.6,6.3,11.9,6.6,18.8c0.2,6.1,0.7,10.4,4,15.7
			c1.4,2.3,6.7,7.4,5.3,10.4c-1,2-2.7,3.8-4.5,5.1c-4.6,3.5-8.6-2.1-6.1-5.9c0.8-1.3-0.8-2.8-2.1-2.1c-5.6,3.1-12.3,2.6-17.9,5.9
			c-4.7,2.7-8.2,7.2-10.5,12.1c-1.6,3.4-3.5,10.1-1.5,13.8c1.2,2.3,2.9,3.1,5.3,3.9c4.1,1.4,8.2,2.5,12.3,3.7
			c1.9,0.6,2.6-2.3,0.8-2.9c-4-1.2-15.6-2.8-16-8.2c-0.3-4.9,1.8-9.7,4.5-13.7c3-4.3,7.7-7.3,12.7-8.7c4.1-1.1,8.1-1.2,11.9-3.3
			c-0.7-0.7-1.4-1.4-2.1-2.1c-2.8,4.2-0.8,9.4,3.7,11.2c6.1,2.5,12.5-6.1,13.2-11.1c0.4-2.9-5-7.6-6.4-9.6
			c-3.5-5.1-3.4-9.8-3.6-15.7c-0.1-3.6-2.1-7.1-3.7-10.3c-2.9-5.8-3.7-10.4-1.3-16.5c2.5-6.5,6-13,2.2-19.7
			c-1.6-2.8-4.9-3.8-7.9-4.3c-1.6-0.2-3.2-0.3-4.8-0.4c-3.3-0.3-6-1.9-8.9-3.2c-7.3-3.4-13.3,0.5-18.6,5.6
			c-7.9,7.6-16,14.2-25.8,19.2C359.4,293.7,361,296.3,362.7,295.4L362.7,295.4z"/>
	</g>
	<g>
		<path d="M409,386.9c7,2,9.8,9,6.7,15.5c-2.9,6-9.8,9-15.6,11.3c-8,3.2-16.3,6.3-20.5,14.4c-0.6,1.1,0.2,2.1,1.3,2.3
			c3.8,0.4,7.6,0.8,11.4,1.3c3.6,0.5-2.1,5.6-2.5,6.3c-3.3,5.5,6.2,7.3,1.9,12.7c-5.9,7.5-19.4-1.4-24.6-6
			c-4.3-3.8-5.7-9.4-11.6-11.3c0.2,0.8,0.4,1.7,0.7,2.5c2.6-2.6,5.3-4.8,8.2-6.9c1-0.7,1-2.4-0.4-2.7c-17.6-5-36.5-11.4-54.7-5.4
			c-1.8,0.6-1,3.5,0.8,2.9c17.7-5.9,36,0.5,53.1,5.4c-0.1-0.9-0.2-1.8-0.4-2.7c-3.2,2.2-6.1,4.6-8.9,7.4c-0.8,0.8-0.4,2.2,0.7,2.5
			c4.9,1.6,7,7,10.3,10.6c3.3,3.5,8.5,6,12.8,7.9c6.7,3,15.6,1.9,18.2-5.8c0.8-2.4-0.4-6-2.5-7.5c-1.9-1.4-1.1-2.1,0.5-3.7
			c1-0.9,1.8-1.9,2.5-3c4.3-7.2-13.1-7.1-15.7-7.3c0.4,0.8,0.9,1.5,1.3,2.3c6.8-13.2,25.1-12,34.2-23c6.7-8,3.4-19.7-6.7-22.6
			C407.9,383.5,407.1,386.4,409,386.9L409,386.9z"/>
	</g>
	<g>
		<path d="M311.5,419.7c-2.7-4.1-0.7-10-3-14.6c-2.2-4.5-7.3-7.4-11.4-9.8c0.2,0.6,0.5,1.1,0.7,1.7c0.6-2.2,4.6-3.8,5.9-5.8
			c1.3-2,0.8-5.3,0.5-7.5c-0.4-3.5-1.4-6.8-2.6-10c-1-2.8-4.1-6-2.9-9c4.5-12.1-12.6-20.6-22.6-20.8c0,1,0,2,0,3
			c4-0.3,7.7-0.7,11.5-1c0.7-0.1,1.6-0.6,1.5-1.5c-0.8-6.3-5.2-10.7-11.6-11.2c0.4,0.9,0.7,1.7,1.1,2.6c2.7-3.3,7.1-0.9,10.2-0.1
			c1.8,0.5,3.5,0.2,5.3-0.3c3.5-1,5-2.6,8.8-0.3c1.6,1,3.3,0.7,5.1,0.4c7.3-1.6,16.5-8.5,11.9-16.7c-0.1,0.6-0.2,1.2-0.2,1.8
			c4.4-4.4,12.5-1.4,11-10.2c-0.5-2.8-0.7-8-3.6-9.7c-1.6-0.9-3.7-0.6-5.4-0.6c-3.8-0.1-7.2-2.7-9.3-5.7c-0.4,0.8-0.9,1.5-1.3,2.3
			c7.9-0.3,15.2,3,22.9,4.2c2.8,0.4,5.6,0.3,8.4-0.2c1.7-0.3,3.3-1,4.8-1.6c2-1,4-0.7,6,1.1c-0.8,0.7-1.6,1.4-2.3,2.1
			c-2.3,2.2-4.1,5-5.5,7.9c-0.9,1.7,1.6,4.7,2.3,6.1c0.6,1.2,3,4.1,0.4,5.1c-1.1,0.4-2.3,0.7-3.4,1.1c-1.5,0.6-2.5,1.6-2.7,3.2
			c-0.1,0.8,0.2,1.7,1,1.8c2.5,0.5,4.7,0.6,7.3,0.2c-0.6-0.6-1.2-1.2-1.8-1.8c-2.5,7.8,7.4,10.3,7.6,17.2c0,1.6,1.9,1.9,2.8,0.8
			c4.4-5.7,1.6-13,3.3-19.5c1-4.2,5.2-4,7.6-6.6c1.2-1.3,1-3.1,0.2-4.5c-0.3-0.6-1-0.8-1.7-0.7c-7.1,1.3-7.4-8.4-0.9-8.7
			c4.2-0.2,6.3,8.1,7.3,10.9c1.6,4.7,1.5,9.2-0.5,13.7c-1.1,2.4-2.4,4.6-3.1,7.2c-2.4,7.8,8.4,11.6,12,4.7c2.6-5,1.6-10.7,1.2-16.1
			c-0.3-4.5,0.6-12.1-2.5-15.9c-2.3-2.9-4.6-4.6-4.3-8.6c0.1-1.6-0.4-2.8-1.6-3.8c-1.2-1.1-3.5-0.6-4.9-0.4c-3.8,0.3-7.7,0.7-11.5,1
			c0.4,0.8,0.9,1.5,1.3,2.3c0.7-1.2,1.5-2.4,2.2-3.6c1-1.7-1.6-3.2-2.6-1.5c-0.7,1.2-1.5,2.4-2.2,3.6c-0.6,0.9,0.1,2.4,1.3,2.3
			c3.8-0.3,7.7-0.7,11.5-1c4.9-0.4,2.4,2.5,3.4,5.4c0.7,2,1.8,3.2,3.4,4.7c3.4,3,2.9,7.9,3.1,12c0.2,3.5,0.5,7.1,0.7,10.6
			c0.1,1.8,0,3.6-0.3,5.4c-0.5,0.9-0.9,1.9-1.4,2.8c-2.6,2.6-4.6,1.6-6.1-3c1.1-6.3,5.9-10.3,4.8-17.3c-1.2-7.7-5.6-22.7-16.1-17
			c-7.8,4.2-0.8,14.5,6.4,13.3c-0.6-0.2-1.1-0.5-1.7-0.7c0.5,0.9-5.3,4.1-6,4.8c-1.4,1.4-2,3.5-2.5,5.3c-1.5,5.9,1.4,12.2-2.7,17.5
			c0.9,0.3,1.9,0.5,2.8,0.8c-0.1-2.3-0.7-3.9-2-5.8c-2.2-3.3-7.3-5.9-5.7-10.6c0.4-1.2-0.8-2-1.8-1.8c-1.9,0.4-3.8,0.3-5.7-0.2
			c0.3,0.6,0.7,1.2,1,1.8c0.5-3.3,8.4-1.5,7.6-6.5c-0.5-2.9-2.5-5.7-3.8-8.3c-1.5-3.1,5.7-8.7,7.8-10.3c0.4-0.3,0.5-1,0.4-1.5
			c-2.4-8.5-12.6-2.2-17.9-1.7c-9.4,0.9-18.3-4.7-27.9-4.4c-1.1,0-2,1.3-1.3,2.3c1.6,2.3,3.3,4,5.7,5.4c2.5,1.5,10.3,1.3,11.1,4.4
			c0.5,1.8,0.8,3.7,1.2,5.6c0.7,3.5-1.6,3.8-4.1,4.4c-2.3,0.6-4.4,1.2-6.2,2.9c-0.5,0.5-0.6,1.2-0.2,1.8c3.8,6.9-5.4,10.5-10.1,12.2
			c-2,0.7-4.5-1.3-6.4-2c-1.1-0.4-2.4-0.1-3.5,0.2c-2.4,0.5-3.8,2-6.5,2.2c-2.2,0.1-4.9-1.3-7.1-1.7c-2.8-0.6-5.5,0.2-7.3,2.4
			c-0.9,1-0.3,2.4,1.1,2.6c4.6,0.4,8,3.6,8.6,8.2c0.5-0.5,1-1,1.5-1.5c-3.9,0.3-7.7,0.7-11.6,1c-1.9,0.2-2,3,0,3
			c6.6,0.2,12.4,2.8,17,7.5c2.1,2.2,4.3,5.2,3.2,8.4c-0.6,1.8-1.2,3-1,4.9c0.3,1.8,2.8,5,3.5,6.8c1.4,3.5,2.2,7.2,2.7,10.9
			c0.8,6.1-5.2,6-6.5,10.8c-0.2,0.6,0.1,1.4,0.7,1.7c4.6,2.7,9.4,5.6,11.3,10.9c1.5,4.2-0.6,8.4,2.1,12.4
			C310,422.8,312.6,421.3,311.5,419.7L311.5,419.7z"/>
	</g>
	<g>
		<path d="M428,446.8c-3.7-1.8-7.7-3.2-11.9-3.6c-3-0.3-8.2-1.1-10.7,1.3c-0.9,0.9-1,1.6-1.1,2.7c-0.4,2.9-3.1,3.3-5.4,4.5
			c-3.3,1.6-7.1,4.4-8.2,8.1c-0.7,2.4-1.2,5.1,1.2,6.7c3.1,1.9,6.3,2,9.7,1.1c4.2-1.1,7.4-4.8,10.4-7.7c1.1-1.1,2.2-2,3.4-2.9
			c0.9-0.6,4.3,0.6,5.6,1c2.2,0.6,4.8-0.1,7,0.1c0.5,0,1.1-0.3,1.3-0.7c2.1-3.9,0.4-7.2-2-10.5c-1.1-1.5-3.7,0-2.6,1.5
			c0.3,0.4,4.8,6.9,1.7,6.6c-2.6-0.2-4.2,0.7-6.9-0.7c-2.1-1.1-3.6-0.7-5.6,0.2c-2.4,1-4.5,3.8-6.4,5.6c-3.4,3.3-7.4,6-12.3,4.9
			c-6.9-1.6,3-9.4,5.1-10.6c2.1-1.1,5.5-1.7,6.8-3.9c0.3-0.5,0.5-1.2,0.5-1.7c0-3.4,2.8-2.7,5.1-2.7c4.8,0,9.4,1.4,13.7,3.5
			C428.3,450.2,429.8,447.6,428,446.8L428,446.8z"/>
	</g>
	<g>
		<path d="M212.1,128.5c-1.4,0.1-2.7,1.2-2.6,2.7c0,0.8,0.7,1.5,1.5,1.5c0.8,0,1.5-0.7,1.5-1.5c0-0.3,0,0.1-0.1,0.2
			c0.2-0.2-0.1,0.1-0.2,0.1c0.8,0,1.5-0.7,1.5-1.5C213.6,129.2,212.9,128.4,212.1,128.5L212.1,128.5z"/>
	</g>
</g>
<g>
	<g>
		<path fill="#F60674" d="M60.3,202.9l-0.4-3c0.1,0,2.2-0.3,6-0.7l0.3,3C62.4,202.6,60.3,202.9,60.3,202.9z"/>
	</g>
	<g>
		<path fill="#F60674" d="M417.9,332.5c-2.6-3.1-5.3-6.2-8-9.2l2.2-2c2.7,3,5.4,6.1,8.1,9.3L417.9,332.5z M401.6,314.4
			c-2.8-2.9-5.7-5.8-8.6-8.6l2.1-2.2c2.9,2.8,5.9,5.7,8.7,8.7L401.6,314.4z M384.1,297.6c-3-2.7-6.1-5.4-9.2-7.9l1.9-2.3
			c3.1,2.6,6.2,5.3,9.3,8L384.1,297.6z M365.4,282c-3.2-2.5-6.5-4.9-9.7-7.3l1.8-2.4c3.3,2.4,6.6,4.8,9.8,7.3L365.4,282z
			 M345.6,267.8c-3.4-2.2-6.8-4.4-10.2-6.6l1.6-2.6c3.5,2.1,6.9,4.4,10.3,6.6L345.6,267.8z M325,255c-3.5-2-7.1-4-10.7-5.9l1.4-2.7
			c3.6,1.9,7.2,3.9,10.7,5.9L325,255z M303.4,243.6c-3.6-1.8-7.3-3.5-11-5.2l1.2-2.7c3.7,1.7,7.5,3.4,11.1,5.2L303.4,243.6z
			 M281.2,233.7c-3.7-1.5-7.5-3-11.3-4.5l1.1-2.8c3.8,1.4,7.7,2.9,11.4,4.5L281.2,233.7z M258.4,225.1c-3.8-1.3-7.7-2.6-11.6-3.8
			l0.9-2.9c3.9,1.2,7.8,2.5,11.7,3.8L258.4,225.1z M235.2,217.9c-3.9-1.1-7.8-2.1-11.8-3.1l0.7-2.9c4,1,7.9,2,11.9,3.1L235.2,217.9z
			 M211.6,212c-4-0.9-8-1.7-11.9-2.5l0.6-2.9c4,0.8,8,1.6,12,2.5L211.6,212z M187.6,207.3c-4-0.7-8-1.3-12-1.9l0.4-3
			c4,0.6,8.1,1.2,12.1,1.9L187.6,207.3z M163.5,203.9c-4-0.5-8.1-0.9-12.1-1.3l0.3-3c4.1,0.4,8.2,0.8,12.2,1.3L163.5,203.9z
			 M139.2,201.6c-4-0.3-8.1-0.5-12.2-0.7l0.1-3c4.1,0.2,8.2,0.4,12.2,0.7L139.2,201.6z M78.3,201.3l-0.2-3c4-0.2,8.1-0.4,12.2-0.6
			l0.1,3C86.4,200.8,82.3,201,78.3,201.3z M114.9,200.6c-4.1-0.1-8.2-0.1-12.2-0.1l0-3c4,0,8.1,0,12.3,0.1L114.9,200.6z"/>
	</g>
	<g>
		<path fill="#F60674" d="M429.2,346.6c-1.2-1.6-2.4-3.2-3.6-4.7l2.4-1.8c1.2,1.6,2.5,3.2,3.7,4.8L429.2,346.6z"/>
	</g>
</g>
<g>
	<path fill="#F60674" d="M43.5,181.4c-1.5,0.2-2.8,0.7-4.3,0.9c-0.3,0-0.6,0-0.6,0.4c-0.1,0.6-0.4,1.4-0.3,1.9
		c0,0.3,0.2,0.2,0.4,0.2c0.5,0,1,0,1.6,0c0.5,0,0.9,0,1.4-0.1c0.5,0,1,0,1.5,0c0.3,0,0.6,0.4,0.6,0.8c0,0.4-0.3,0.6-0.6,0.7
		c-1,0.4-2.2,0.5-3.3,0.6c-0.3,0-0.7,0-1,0c-0.3,0-0.4,0.3-0.4,0.5c0,0.1,0,0.2,0,0.3c0,1.3,0.5,2.5,0.8,3.8c0,0.1,0,0.2,0,0.3
		c0,0.5-0.4,0.8-0.9,0.8c-0.5,0-1-0.4-1-0.9c-0.2-1.3-0.4-2.6-0.5-4c-0.1-0.5-0.9-0.6-0.9-1.3c0-0.5,0.5-0.7,0.4-1.1l0-0.2
		c0-0.8,0.1-1.6,0.1-2.4c-0.2-0.2-0.5-0.2-0.5-0.5c0-0.7,0.4-1.9,1.3-1.9c0.1,0,0.2,0,0.3,0c0.5,0.1,1,0.1,1.6,0.1
		c1.3,0,2.7-0.3,3.9-0.9c0.2-0.1,0.3-0.1,0.5-0.1c0.5,0,1,0.7,1,1.2C44.6,181.1,44,181.3,43.5,181.4z"/>
	<path fill="#F60674" d="M50.5,186.6c-0.3,0-0.5-0.2-0.8-0.2c-0.2,0-0.3,0.1-0.4,0.3c-0.7,1.2-0.5,2.6-1,3.9
		c-0.1,0.4-0.5,0.6-0.9,0.6c-0.5,0-0.8-0.2-0.9-0.7c-0.2-0.8-0.5-1.6-0.8-2.4c-0.3-0.8-1.2-1.8-1.2-2.7c0-0.6,0.3-1,0.9-1
		c0.2,0,0.4,0,0.6,0.2c0.7,0.5,0.9,0.8,1.1,1.6c0,0.2,0.1,0.5,0.1,0.7c0,0.1,0,0.1,0.1,0.1c0.1,0,0.1-0.1,0.2-0.2
		c0.5-1-0.1-2.1,1.5-2.5c0.2,0,0.4-0.1,0.6-0.1c0.7,0,1.7,0.3,1.7,1.1C51.3,186,51.1,186.6,50.5,186.6z"/>
	<path fill="#F60674" d="M62.9,191.9c-0.2,0-0.3-0.1-0.4-0.1c-1.3-0.9-1.7-2.2-2.2-3.6c0-0.2-0.2-0.5-0.4-0.5
		c-0.2,0-0.3,0.1-0.4,0.2c-0.3,0.3-0.5,0.6-0.8,0.9c-0.8,0.8-1.7,1.6-2.7,2.2c-0.5,0.3-1,0.5-1.5,0.5c-1.3,0-2.2-1.1-2.2-2.3
		c0-0.4,0.1-0.8,0.3-1.2c1.1-1.8,2.6-2.7,4.4-3.7c0.4-0.2,0.9-0.4,1.4-0.4c0.9,0,1.1,0.6,1.5,0.6c0.3,0,0.4-0.6,0.9-0.6
		c0.4,0,1,0.4,1.1,0.8c0.6,1.3,0.1,3.9,1.2,4.9c0.2,0.2,0.3,0.2,0.5,0.3c0.3,0.1,0.4,0.3,0.4,0.6C64,191,63.5,191.9,62.9,191.9z
		 M58,187.2c0-0.2-0.1-1.1-0.4-1.1c-0.1,0-0.1,0-0.2,0.1c-1.2,0.6-2.2,1.5-3,2.5c-0.1,0.1-0.1,0.2-0.1,0.3c0,0.3,0.3,0.5,0.6,0.5
		c0.6,0,1.5-1,2-1.4c0.2-0.1,0.5-0.3,0.7-0.4l0.3-0.1C58,187.5,58,187.4,58,187.2L58,187.2z"/>
	<path fill="#F60674" d="M78.6,191.2c-0.3,0-0.6-0.1-0.7-0.4l-0.1-0.7c-0.2-0.8-0.5-1.4-0.9-2.1c-0.4-0.7-0.4-1.6-0.7-2.2
		c-0.1-0.1-0.1-0.2-0.2-0.2c-0.1,0-0.2,0.1-0.2,0.1c-0.1,0.2-0.2,0.4-0.3,0.6c-0.3,0.6-0.7,1.2-1.2,1.7c-0.6,0.7-0.7,1.7-1.4,2.4
		c-0.2,0.2-0.6,0.3-0.9,0.3c-0.4,0-0.8-0.1-0.9-0.5c-0.1-0.6-0.1-1.2-0.2-1.8c-0.2-1.3-0.3-2.6-0.5-3.8c-0.2-1.4-0.3-2.8-0.4-4.2
		l0-0.3c0-0.5,0-1,0-1.4c0-0.4,0.3-0.6,0.7-0.6c0.6,0,1.4,0.4,1.4,1c0,0.1,0,0.2-0.1,0.3c-0.2,0.7-0.1,2.4-0.1,3.2l0,0.3
		c0,1.2,0.1,2.8,0.3,4c0,0.2,0.1,0.5,0.2,0.6c1-1.2,1.7-2.8,2.7-4c0.2-0.3,0.5-0.6,0.9-0.6c0.4,0,0.7,0.3,0.9,0.7
		c0.4,0.8,0.7,1.8,1,2.6c0.4,1.2,0.9,2.3,1.5,3.4c0.1,0.2,0.2,0.3,0.2,0.5C79.8,190.7,79.1,191.2,78.6,191.2z"/>
	<path fill="#F60674" d="M90.1,190.5c-0.8,0.6-2.4,0.9-3.3,0.9c-0.7,0-1.5,0-2.2-0.2c-1.6-0.5-3.7-1.3-3.8-3.2c0-0.2,0-0.4,0-0.6
		c0.3-2,1.4-2.9,2.9-4c0.9-0.6,2-1.2,3.1-1.2c1.2,0,2.8,0.5,2.8,1.9c0,0.6-0.2,1.1-0.6,1.5c-1.1,1.2-2.4,1.2-3.8,1.8
		c-0.5,0.2-1.1,0.4-1.6,0.5c-0.4,0-0.8-0.1-1-0.4l0,0c0,0.1,0,0.2,0,0.2c0,1.2,1.8,1.6,2.8,1.8c0.6,0.1,1.2,0.2,1.8,0.2
		c0.7,0,1.5-0.2,2.2-0.3c0.1,0,0.1,0,0.2,0c0.4,0,0.6,0.3,0.7,0.6C90.3,190.2,90.2,190.4,90.1,190.5z M87.3,183.9
		c-0.2,0-0.5,0.1-0.8,0.1c-1.3,0.3-2.8,1-3.6,2c0,0.1-0.1,0.1-0.1,0.2c0,0,0,0,0,0l0,0c0.7-0.3,1.4-0.4,2.2-0.6
		c0.5-0.1,2.6-0.8,2.6-1.4C87.7,184.1,87.5,183.9,87.3,183.9z"/>
	<path fill="#F60674" d="M97,185.1c-0.3,0-0.5-0.2-0.8-0.2c-0.2,0-0.3,0.1-0.4,0.3c-0.7,1.2-0.5,2.6-1,3.9c-0.1,0.4-0.5,0.6-0.9,0.6
		c-0.5,0-0.8-0.2-0.9-0.7c-0.2-0.8-0.5-1.6-0.8-2.4c-0.3-0.9-1.2-1.8-1.2-2.7c0-0.6,0.3-1,0.9-1c0.2,0,0.4,0,0.6,0.2
		c0.7,0.5,0.9,0.8,1.1,1.6c0,0.2,0.1,0.5,0.1,0.7c0,0.1,0,0.1,0.1,0.1c0.1,0,0.1-0.1,0.2-0.2c0.5-1-0.1-2.1,1.5-2.5
		c0.2,0,0.4-0.1,0.6-0.1c0.7,0,1.7,0.3,1.7,1.1C97.7,184.6,97.5,185.1,97,185.1z"/>
</g>
<g>
	<path fill="#F60674" d="M416.5,367.1c-0.7,0.4-1.7,0.6-2.6,0.7c-0.8,0.1-1.7,0.2-2.5,0.4c-0.3,0.1-0.5,0.2-0.5,0.5v0.1
		c0.1,1.5,0.2,3,0.5,4.5c0.1,0.5,0.2,1.2,0.3,1.7c0.1,0.2,0.7,0.2,0.7,0.7c0,0.5-0.6,1.4-1.1,1.4c-0.3,0-0.5-0.2-0.7-0.4
		c-0.6-0.6-0.8-1.3-0.9-2.1c-0.1-1.1-0.3-2.3-0.4-3.4c0-0.6,0-1.3-0.1-1.9c0-0.3-0.3-0.7-0.6-0.7h-0.1c-1.3,0.1-2.5,0.5-3.7,0.9
		c-0.1,0-0.2,0-0.3,0c-0.8,0-1.8-0.9-1.8-1.7c0-0.4,0.3-0.6,0.7-0.6c0.8-0.1,1.6-0.1,2.4-0.2c1.3-0.1,2.7-0.3,4-0.5
		c2-0.3,3.9-0.4,5.8-1.1c0.1,0,0.1,0,0.2,0c0.5,0,1.1,0.7,1.1,1.2C416.8,366.9,416.7,367,416.5,367.1z"/>
	<path fill="#F60674" d="M418.8,367c-0.2,0-0.4,0.1-0.5,0.1c-0.9,0-1.6-0.5-2.1-1.3c-0.1-0.1-0.1-0.3-0.1-0.4c0-0.5,0.5-0.7,1-0.7
		c0.7,0,2.6,0.6,2.6,1.4C419.7,366.4,419.2,366.9,418.8,367z M419.1,376.6c-0.3,0-0.6-0.1-0.8-0.3c-0.6-0.6-1.1-1.5-1.1-2.4
		c-0.1-1-0.1-2-0.1-3v-1.4c0-0.4,0.2-0.7,0.7-0.7c0.6,0,1.4,0.5,1.4,1.2c0,0.9-0.3,1.7-0.3,2.6c0,1.9,1.5,2.7,1.5,3.3
		C420.5,376.4,419.6,376.6,419.1,376.6z"/>
	<path fill="#F60674" d="M424,374.2c0,0.5,0,1.1-0.1,1.6c0,0.4-0.3,0.6-0.7,0.6c-0.5,0-0.9-0.3-1.1-0.8c-0.2-0.6-0.2-1.3-0.2-2
		c0-1.1,0.2-2.2,0.2-3.2c0-1.8-0.7-4.1-1.2-5.9c0-0.1-0.1-0.2-0.1-0.3c0-0.7,0.9-1,1.5-1c0.5,0,1,0.2,1.1,0.8
		c0.2,1.7,0.6,3.4,0.7,5.2c0,0.7,0.1,1.3,0.1,2C424.1,372.2,424.1,373.2,424,374.2z"/>
	<path fill="#F60674" d="M440,377.1c-0.3,0-0.6-0.1-0.7-0.4l-0.1-0.7c-0.2-0.8-0.5-1.4-0.8-2.1c-0.4-0.7-0.3-1.6-0.7-2.2
		c-0.1-0.1-0.1-0.2-0.2-0.2c-0.1,0-0.2,0.1-0.2,0.1c-0.1,0.2-0.2,0.4-0.4,0.6c-0.4,0.6-0.8,1.1-1.2,1.6c-0.6,0.7-0.8,1.7-1.4,2.4
		c-0.2,0.2-0.6,0.3-0.9,0.3c-0.4,0-0.8-0.1-0.8-0.6c-0.1-0.6-0.1-1.2-0.1-1.8c-0.1-1.3-0.3-2.6-0.4-3.9c-0.1-1.4-0.2-2.8-0.2-4.3
		v-0.3c0-0.5,0-1,0.1-1.4c0.1-0.4,0.3-0.6,0.8-0.6c0.6,0,1.4,0.4,1.4,1.1c0,0.1,0,0.2-0.1,0.3c-0.2,0.7-0.2,2.4-0.2,3.2v0.3
		c0,1.2,0,2.8,0.2,4c0,0.2,0.1,0.5,0.2,0.6c1.1-1.2,1.7-2.7,2.8-3.9c0.2-0.3,0.5-0.5,0.9-0.5c0.4,0,0.7,0.4,0.9,0.7
		c0.4,0.8,0.6,1.8,0.9,2.7c0.4,1.2,0.8,2.3,1.4,3.5c0.1,0.2,0.1,0.3,0.1,0.5C441.2,376.7,440.5,377.1,440,377.1z"/>
	<path fill="#F60674" d="M451.5,376.8c-0.8,0.6-2.4,0.8-3.4,0.8c-0.7,0-1.5-0.1-2.2-0.3c-1.6-0.5-3.7-1.4-3.7-3.4c0-0.2,0-0.4,0-0.6
		c0.4-2,1.5-2.9,3.1-3.9c1-0.6,2-1.1,3.2-1.1c1.2,0,2.8,0.6,2.8,2c0,0.6-0.3,1.1-0.6,1.5c-1.2,1.2-2.5,1.1-3.9,1.7
		c-0.5,0.2-1.1,0.4-1.7,0.4c-0.4,0-0.8-0.1-0.9-0.4v0c0,0.1,0,0.2,0,0.2c0,1.2,1.7,1.7,2.7,1.9c0.6,0.2,1.2,0.3,1.8,0.3
		c0.7,0,1.5-0.1,2.2-0.3c0.1,0,0.1,0,0.2,0c0.4,0,0.6,0.3,0.6,0.7C451.7,376.5,451.7,376.7,451.5,376.8z M449,370.1
		c-0.2,0-0.5,0.1-0.8,0.1c-1.3,0.3-2.8,1-3.7,1.9c0,0.1-0.1,0.1-0.1,0.2c0,0,0,0,0,0h0c0.7-0.3,1.4-0.4,2.2-0.5
		c0.5-0.1,2.6-0.7,2.6-1.3C449.3,370.2,449.2,370.1,449,370.1z"/>
	<path fill="#F60674" d="M458.5,371.6c-0.3,0-0.5-0.2-0.8-0.2c-0.2,0-0.3,0.1-0.4,0.3c-0.8,1.1-0.6,2.6-1.1,3.9
		c-0.2,0.4-0.5,0.6-1,0.6c-0.5,0-0.8-0.3-0.9-0.7c-0.2-0.8-0.4-1.6-0.7-2.4c-0.3-0.9-1.1-1.8-1.1-2.7c0-0.6,0.4-0.9,0.9-0.9
		c0.2,0,0.4,0.1,0.6,0.2c0.7,0.5,0.9,0.8,1,1.7c0,0.2,0.1,0.5,0.1,0.7c0,0.1,0,0.1,0.1,0.1c0.1,0,0.1-0.1,0.2-0.2
		c0.5-1,0-2.1,1.5-2.5c0.2,0,0.4-0.1,0.6-0.1c0.7,0,1.7,0.3,1.7,1.2C459.3,371.1,459.1,371.6,458.5,371.6z"/>
	<path fill="#F60674" d="M462.4,371.3c0,0.3,0,0.6,0,0.9c0,0.4-0.3,0.7-0.7,0.7c-0.4,0-0.8-0.3-0.8-0.8v-0.3c0-1.2-0.1-2.4-0.3-3.6
		c-0.1-1.3-0.2-2.5-0.3-3.8v-0.2c0-0.5,0.5-0.7,1-0.7c0.5,0,1,0.2,1,0.8c0,0.6,0,1.2,0,1.8c0,1.4,0,2.9,0,4.3V371.3z M461.3,377
		c-0.6,0-0.7-0.8-0.7-1.3c0-0.6,0.2-1.7,0.9-1.7c0.3,0,0.6,0.2,0.7,0.4c0.3,0.3,0.9,0.6,0.9,1.2C463.1,376.3,461.9,377,461.3,377z"
		/>
</g>
</svg>
