<?xml version="1.0" encoding="utf-8"?>
<!-- Generator: Adobe Illustrator 18.0.0, SVG Export Plug-In . SVG Version: 6.00 Build 0)  -->
<!DOCTYPE svg PUBLIC "-//W3C//DTD SVG 1.1//EN" "http://www.w3.org/Graphics/SVG/1.1/DTD/svg11.dtd">
<svg version="1.1" id="Layer_1" xmlns="http://www.w3.org/2000/svg" xmlns:xlink="http://www.w3.org/1999/xlink" x="0px" y="0px"
	 viewBox="0 0 814.4 197.6" enable-background="new 0 0 814.4 197.6" xml:space="preserve">
<path fill="none" stroke="#333333" stroke-width="2" stroke-linecap="round" stroke-miterlimit="10" d="M418.8,17.1
	c34,0,48.4,9,48.4,9s6.6-11.8,32.1-13.9"/>
<g>
	<path d="M440.9,13c-0.8,0.3-1.6,0.6-2.4,0.7c-0.1,0-0.3,0-0.4,0c-0.7,0-1.8-0.4-1.8-1.2c0-0.8,0.9-0.4,0.9-1.4v-0.5
		c0-1.2-0.2-6.3-1-7.2c-0.3-0.3-0.5-0.6-0.5-1.1c0-0.3,0.1-0.6,0.4-0.8c1-0.7,2.2-1.3,3.5-1.3c1,0,2.1,0.3,3.1,0.8
		c0.5,0.2,0.7,0.6,0.7,1.1c0,1.7-1.8,2.7-1.8,2.9c0,0,0.1,0.1,0.1,0.1c1.5,0.8,3.5,1.5,3.5,3.5C445.1,10.5,442.3,12.4,440.9,13z
		 M440.4,2.3h-0.1c-0.5,0-1,0-1.5,0.1c-0.5,0-0.5,0.6-0.5,1c0,0.5,0.1,0.9,0.3,1.4c0,0.1,0.1,0.2,0.2,0.2c0.2,0,0.4-0.1,0.5-0.2
		c0.8-0.5,1.6-0.9,2.2-1.7c0.1-0.1,0.1-0.2,0.1-0.3C441.6,2.3,440.8,2.3,440.4,2.3z M442.8,8.1c-1-0.8-1.8-1.1-3.1-1.2
		c-0.1,0-0.1,0-0.2,0c-0.4,0-0.6,0.1-0.6,0.5c-0.1,0.8-0.1,1.6-0.1,2.4c0,0.5,0,1.1,0.1,1.6c0,0.1,0,0.4,0.2,0.4
		c0.1,0,0.4-0.1,0.5-0.1c1.3-0.5,2.2-0.9,3.2-2c0.2-0.2,0.4-0.5,0.4-0.8C443.2,8.6,443.1,8.3,442.8,8.1z"/>
	<path d="M457.2,8.2c-0.7,2.5-2.9,4.2-5.5,4.2c-0.1,0-0.3,0-0.4,0c-0.7-0.1-1.5-0.2-2.1-0.5c-1.5-0.7-2.8-2.3-2.8-4.1
		c0-0.4,0.1-0.7,0.2-1c0.9-2.5,3.4-3.9,5.9-4.3c0.2,0,0.4,0,0.6,0c2.5,0,4.2,2.1,4.2,4.6C457.4,7.4,457.3,7.8,457.2,8.2z M454.9,5.7
		L454.9,5.7c-0.4,0-0.7,0.2-1,0.2c-0.2,0-0.3-0.1-0.4-0.4c-0.2-0.9-0.1-1.2-1.1-1.3h-0.2c-1.9,0-3.9,1.7-3.9,3.7c0,2,2.3,2.8,4,2.8
		c1.7,0,3.1-1.3,3.3-3c0-0.3,0.1-0.6,0.1-0.9C455.7,6.2,455.5,5.8,454.9,5.7z"/>
	<path d="M466.3,11.9c-0.5,0.2-1,0.3-1.5,0.3c-1.1,0.1-1.4,0.3-2.5,0.7c-0.4,0.2-1,0.4-1.5,0.4c-0.7,0-0.8-0.4-0.8-1
		c-0.1-1.2-0.3-2.5-0.4-3.7c-0.1-1.3-0.2-2.6-0.2-3.8c0-1.1-0.6-2-0.8-3.1c0-0.1,0-0.2,0-0.2c0-0.5,0.3-1.1,0.9-1.1
		c0.2,0,0.4,0.1,0.6,0.3c1,0.8,1.1,2.8,1.1,4.1c0,1.9-0.1,3.8,0.3,5.7c0,0.2,0,0.4,0.3,0.4c1.2,0,2.2-0.8,3.4-0.8c0.2,0,0.4,0,0.6,0
		c0.6,0.1,1,0.7,1,1.2C466.7,11.5,466.6,11.8,466.3,11.9z"/>
	<path d="M469.2,12.5c-0.4,0-1.1-0.2-1.1-0.7c0-1.7,0.2-3.3,0.3-5c0.1-0.9,0.1-1.8,0.1-2.7c0-0.6,0-1.2,0-1.8c0-0.3-0.1-0.6-0.1-0.9
		c0-0.4,0.7-0.9,1.1-0.9c0.8,0,0.9,1.4,0.9,2.4c0,0.3,0,0.5,0,0.6c0,2.1-0.1,4.3-0.1,6.4v0.4c0,0.4,0.6,0.6,0.6,1.1
		C470.8,12.1,469.8,12.5,469.2,12.5z"/>
	<path d="M483.2,10.2c-1.3,1.7-2.7,2.8-5,2.8c-2.5,0-6-1.6-6-4.5c0-3.5,3.8-6.8,6.7-8.2c0.4-0.2,0.9-0.3,1.4-0.3
		c0.8,0,1.9,0.4,1.9,1.4c0,0.5-0.5,1-1,1c-0.7,0-0.4-0.7-0.7-0.7c-0.1,0-0.3,0-0.4,0.1c-2.1,0.7-3.4,1.6-4.8,3.3
		c-0.7,0.8-1.2,1.8-1.2,2.9c0,1.9,1.7,3.4,3.5,3.4c1.4,0,3.4-0.8,4.3-1.9c0.1-0.1,0.4-0.4,0.4-0.6c0-0.4-1.5-0.5-1.8-0.5
		c-0.5,0-0.9,0.1-1.4,0.1c-0.5,0-1-0.4-1-1c0-0.6,0.6-0.8,1.1-0.8c0.4,0,0.8,0,1.3,0c1.3,0,3.3,0.4,3.3,2.1
		C483.7,9.3,483.5,9.8,483.2,10.2z"/>
</g>
<g>
	<path d="M216.8,123.7c-0.7,0.9-1.5,1.4-2.6,1.4c-0.1,0-0.2,0-0.2,0c0,0-0.1,0-0.1,0.1c0,0.7,0.3,1.4,0.3,2.1c0,0.6-0.2,1.3-0.8,1.6
		c-0.1,0.1-0.2,0.1-0.3,0.1c-0.2,0-0.3-0.1-0.3-0.2l-0.1-0.6l-0.1-1.5c-0.2-1.9-0.3-3.7-0.3-5.6c0-0.8,0.9-1.4,1.6-1.4
		c0.1,0,0.1,0,0.2,0c1.2,0.1,2.3,0.9,2.9,1.9c0.2,0.3,0.3,0.6,0.3,0.9C217.2,122.9,217.1,123.4,216.8,123.7z M214,121.2
		c-0.3,0-0.5,0.2-0.5,0.5c0,0.4,0.6,0.4,0.6,1c0,0.5-0.4,0.7-0.4,0.8l0,0c0.2,0.3,0.5,0.5,0.8,0.5c0.6,0,1.5-0.6,1.5-1.2
		C216,122,214.6,121.2,214,121.2z"/>
	<path d="M223.1,128.8c-1.1,0-2.6-0.7-3.5-1.3c-0.2-0.1-0.4-0.3-0.4-0.5c0-0.3,0.3-0.4,0.5-0.4c0.2,0,0.3,0,0.5,0.1
		c1,0.4,1.7,0.9,2.8,0.8l0.1,0c0.4,0,0.8,0,0.8-0.5c0-0.1,0-0.2-0.1-0.3c-0.6-0.9-2.9-1.2-3.9-1.5c-0.4-0.1-0.9-0.3-1.2-0.5
		c-0.4-0.3-0.8-0.7-0.9-1.2c0-0.5,0.4-0.9,0.8-1.1c1.2-0.6,3.6-1.6,5-1.6c0.7,0,1.1,0.2,1.1,1c0,0.3-0.1,0.6-0.5,0.6
		c-0.2,0-0.3-0.1-0.4-0.1c-0.2-0.1-0.5-0.1-0.8-0.1c-0.3,0-0.6,0-0.8,0.1c-0.4,0.1-2.8,0.9-2.8,1.1c0,0.1,0.2,0.2,0.2,0.3
		c0.1,0.1,0.6,0.3,0.8,0.3c1.4,0.4,3.5,0.9,4.4,2.1c0.2,0.3,0.4,0.7,0.4,1.1C225.2,128.1,224,128.8,223.1,128.8z"/>
	<path d="M232.5,121.4c-0.3,0.6-0.6,1.1-0.9,1.7c-0.2,0.4-0.4,0.9-0.5,1.3c-0.3,0.7,0.1,0.9-0.5,1.6c-0.1,0.2-0.4,1.1-0.5,1.3
		c-0.2,0.6-0.3,1.2-0.5,1.7c-0.1,0.3-0.1,0.5-0.2,0.8c-0.1,0.2-0.2,0.3-0.4,0.3c-0.3,0-0.5-0.2-0.5-0.5c0-0.8,0.1-1.5,0.4-2.3
		c0.1-0.4,0.6-1.8,0.6-2.1c0,0,0-0.1,0-0.1c-0.3-0.1-0.6-0.3-1-0.5c-1.1-0.7-2.4-1.8-3.1-2.8c-0.1-0.1-0.1-0.3-0.1-0.4
		c0-0.4,0.4-0.8,0.8-0.8c0.2,0,0.3,0,0.4,0.2c0.4,0.4,0.7,0.8,1,1.1c0.7,0.8,1.4,1.5,2.4,2c0,0,0.1,0,0.1,0c0.1,0,0.2-0.1,0.2-0.2
		c0.1-0.2,0.2-0.6,0.3-0.8c0.2-0.6,0.4-1.2,0.7-1.7c0.1-0.2,0.1-0.4,0.2-0.5c0.1-0.2,0.2-0.3,0.5-0.3c0.4,0,0.8,0.3,0.8,0.7
		C232.7,121.1,232.6,121.2,232.5,121.4z"/>
	<path d="M239.8,128.9c-0.1,0-0.2,0-0.3-0.1c-0.4-0.2-0.8-0.5-1.2-0.6c-1-0.4-2.1-0.6-3.1-1c-0.1,0-0.2-0.1-0.2-0.1s-0.1,0-0.1,0.1
		c0,0.1-0.1,0.3-0.1,0.5c0,0.5-0.1,1-0.4,1.4c-0.1,0.2-0.4,0.4-0.6,0.4c-0.3,0-0.5-0.2-0.5-0.5c0-0.1,0-0.2,0-0.2
		c0.3-1.1,0.4-2.2,0.4-3.3c0-1.6-0.4-3.1-0.7-4.6c0-0.1,0-0.1,0-0.2c0-0.4,0.4-0.8,0.8-0.8c0.4,0,0.6,0.3,0.7,0.7l0,0.3
		c0,0.8,0.2,1.6,0.3,2.4c0,0.4,0.1,0.7,0.1,1.1c0,0.1,0,0.2,0.1,0.2c0,0,0.1,0,0.1-0.1c0.9-0.5,1.6-1.1,2.3-1.9
		c0.4-0.4,0.8-0.8,1.2-1.2c0.1-0.1,0.2-0.1,0.3-0.1c0.4,0,0.7,0.3,0.7,0.7c0,0.8-2.1,2.1-2.7,2.6c-0.4,0.3-0.7,0.6-1.1,1
		c0,0,0,0,0,0c0,0,0.1,0,0.1,0.1c0.4,0.2,0.7,0.4,1.1,0.6c1.1,0.4,2.2,0.6,3.1,1.5c0.1,0.2,0.2,0.3,0.2,0.5
		C240.2,128.6,240.1,128.9,239.8,128.9z"/>
	<path d="M248.1,125.2c-0.4,1.8-2,3-3.8,3c-0.1,0-0.2,0-0.3,0c-0.5,0-1-0.1-1.5-0.4c-1.1-0.5-2-1.6-2-2.9c0-0.3,0-0.5,0.1-0.7
		c0.6-1.8,2.3-2.8,4.1-3c0.1,0,0.3,0,0.4,0c1.8,0,3,1.5,3,3.2C248.2,124.7,248.1,125,248.1,125.2z M246.4,123.5L246.4,123.5
		c-0.3,0-0.5,0.2-0.7,0.2c-0.2,0-0.2-0.1-0.3-0.2c-0.2-0.6-0.1-0.9-0.8-0.9l-0.2,0c-1.3,0-2.7,1.2-2.7,2.6c0,1.4,1.6,1.9,2.8,1.9
		c1.2,0,2.2-0.9,2.3-2.1c0-0.2,0.1-0.4,0-0.7C247,123.8,246.8,123.6,246.4,123.5z"/>
	<path d="M253.8,123.3c-0.7,0.9-1.5,1.4-2.6,1.4c-0.1,0-0.2,0-0.2,0c0,0-0.1,0-0.1,0.1c0,0.7,0.3,1.4,0.3,2.1c0,0.6-0.2,1.3-0.8,1.6
		c-0.1,0.1-0.2,0.1-0.3,0.1c-0.2,0-0.3-0.1-0.3-0.2l-0.1-0.6l-0.1-1.5c-0.2-1.9-0.3-3.7-0.3-5.6c0-0.8,0.9-1.4,1.6-1.4
		c0.1,0,0.1,0,0.2,0c1.2,0.1,2.3,0.9,2.9,1.9c0.2,0.3,0.3,0.6,0.3,0.9C254.3,122.5,254.1,122.9,253.8,123.3z M251,120.7
		c-0.3,0-0.5,0.2-0.5,0.5c0,0.4,0.6,0.4,0.6,1c0,0.5-0.4,0.7-0.4,0.8l0,0c0.2,0.3,0.5,0.5,0.8,0.5c0.6,0,1.5-0.6,1.5-1.2
		C253,121.6,251.6,120.7,251,120.7z"/>
	<path d="M259.9,129.3c-0.4,0-0.7-0.3-0.8-0.6c-0.2-0.8-0.1-1.7-0.3-2.5c0,0,0-0.1-0.1-0.1l-1.6,0c-0.4,0-0.7,0.2-0.8,0.6
		c-0.3,1.1-0.2,1.5-0.8,2.6c-0.2,0.3-0.5,0.6-0.8,0.6c-0.4,0-0.7-0.4-0.7-0.8c0-0.8,0.8-2.1,0.8-2.5c0-0.3-0.5-0.4-0.5-0.8
		c0-0.4,0.3-0.8,0.7-0.9c0.3,0,0.3,0,0.5-0.4c0.2-0.5,0.4-1.1,0.6-1.6c0.3-1,0.6-2,1-2.9c0.1-0.3,0.4-0.6,0.8-0.6
		c0.4,0,0.7,0.4,0.9,0.7c0.5,1.2,0.7,2.6,0.9,3.9c0.2,1.6,0.4,2.9,0.8,4.5c0,0.1,0,0.2,0,0.3C260.5,129,260.2,129.3,259.9,129.3z
		 M258.2,122.1c0-0.1-0.1-0.2-0.2-0.2c-0.2,0-0.2,0.1-0.3,0.3c-0.2,0.8-0.5,1.6-0.7,2.4l0,0c0,0.2,0.5,0.1,0.6,0.1h0
		c0.2,0,0.4,0,0.6,0c0.1,0,0.2,0,0.3,0c0,0,0.1,0,0.1-0.1C258.4,123.7,258.3,122.9,258.2,122.1z"/>
	<path d="M269.9,121.1c-0.5,0.3-1.2,0.4-1.8,0.5c-0.6,0.1-1.2,0.1-1.7,0.3c-0.2,0-0.4,0.2-0.3,0.4l0,0.1c0.1,1,0.2,2.1,0.4,3.1
		c0.1,0.4,0.1,0.9,0.3,1.2c0,0.1,0.5,0.1,0.5,0.5c0,0.4-0.4,1-0.8,1c-0.2,0-0.4-0.1-0.5-0.3c-0.4-0.4-0.6-0.9-0.6-1.5
		c-0.1-0.8-0.2-1.6-0.3-2.4c0-0.4,0-0.9-0.1-1.4c0-0.2-0.2-0.5-0.4-0.5l-0.1,0c-0.9,0.1-1.7,0.4-2.6,0.6c-0.1,0-0.1,0-0.2,0
		c-0.5,0-1.3-0.6-1.3-1.2c0-0.3,0.2-0.4,0.5-0.4c0.6-0.1,1.1-0.1,1.7-0.2c0.9-0.1,1.9-0.2,2.8-0.4c1.4-0.2,2.7-0.3,4.1-0.8
		c0,0,0.1,0,0.1,0c0.4,0,0.7,0.5,0.8,0.8C270.1,121,270,121.1,269.9,121.1z"/>
	<path d="M279,128.1c-1.1,0-2.6-0.7-3.5-1.3c-0.2-0.1-0.4-0.3-0.4-0.5c0-0.3,0.3-0.4,0.5-0.4c0.2,0,0.3,0,0.5,0.1
		c1,0.4,1.7,0.9,2.8,0.8l0.1,0c0.4,0,0.8,0,0.8-0.5c0-0.1,0-0.2-0.1-0.3c-0.6-0.9-2.9-1.2-3.9-1.5c-0.4-0.1-0.9-0.3-1.2-0.5
		c-0.4-0.3-0.8-0.7-0.9-1.2c0-0.5,0.4-0.9,0.8-1.1c1.2-0.6,3.6-1.6,5-1.6c0.7,0,1.1,0.2,1.1,1c0,0.3-0.1,0.6-0.5,0.6
		c-0.2,0-0.3-0.1-0.4-0.1c-0.2-0.1-0.5-0.1-0.8-0.1c-0.3,0-0.6,0-0.8,0.1c-0.4,0.1-2.8,0.9-2.8,1.1c0,0.1,0.2,0.2,0.2,0.3
		c0.1,0.1,0.6,0.3,0.8,0.3c1.4,0.4,3.5,0.9,4.4,2.1c0.2,0.3,0.4,0.7,0.4,1.1C281,127.4,279.9,128.1,279,128.1z"/>
	<path d="M287.3,122.7c-0.3,0.6-0.4,1.6-0.5,2.3c-0.1,0.9-0.4,1.8-0.9,2.5c-0.1,0.2-0.3,0.5-0.6,0.5c-0.3,0-0.5-0.2-0.7-0.4
		c-1.7-1.7-2.2-3.3-3.1-5.5c-0.2-0.5-0.4-1-0.7-1.4c0-0.1-0.1-0.2-0.1-0.3c0-0.4,0.4-0.7,0.7-0.7c0.2,0,0.3,0.1,0.5,0.2
		c0.9,0.8,0.9,2.5,1.5,3.6c0.2,0.4,0.4,0.9,0.7,1.3c0.3,0.4,0.6,0.8,0.9,1.2c0,0.1,0.1,0.1,0.1,0.1c0,0,0,0,0,0
		c0.4-0.9,0.6-1.8,0.7-2.8c0.1-0.6,0.1-1.1,0.1-1.7c0-0.4,0.5-0.5,0.8-0.5c0.4,0,1.3,0.2,1.3,0.7
		C288.2,122.2,287.5,122.3,287.3,122.7z"/>
	<path d="M297.7,127.1c-0.8,0.1-2,0.2-2.7,0.5c-0.3,0.1-0.7,0.3-1.1,0.3c-0.3,0-0.5-0.1-0.7-0.3c-0.2-0.2-0.3-0.5-0.3-0.8
		c0-0.4,0.3-0.6,0.3-0.9c0-0.3-0.1-0.6-0.1-0.9c0-0.1,0-0.5,0-0.6c0-0.1-0.1-0.1-0.2-0.1c-0.2,0-0.3,0-0.4,0l-0.4,0
		c-0.4,0-0.7,0.1-1,0.4c-0.3,0.4-1,1.2-1,1.7c0,0.2,0.1,0.4,0.1,0.6c0,0.4-0.3,0.9-0.5,1.2c-0.1,0.3-0.4,0.8-0.8,0.8
		c-0.4,0-0.7-0.6-0.7-1c0-1.2,1.4-2.5,1.4-3.1c0-0.2-0.4-0.5-0.4-0.8c0-0.3,0.2-0.5,0.4-0.7c1-1,1.3,0.1,1.6-1.5
		c0-0.1,0.1-0.3,0-0.4c0-0.4-0.1-0.7-0.1-1.1c0-0.2,0-0.3,0.1-0.4c0.2-0.5,0.8-1.3,1.3-1.3c0.6,0,0.7,0.6,1.1,0.6
		c0.3,0,0.5-0.1,0.7-0.1c1-0.2,2-0.4,3-0.4c0.2,0,0.6,0,0.8,0.1c0.3,0.2,0.5,0.6,0.5,0.9s-0.2,0.4-0.5,0.4c-0.6,0-1.2-0.1-1.8-0.1
		c-0.5,0-2.9,0.2-2.9,0.8c0,0.2,0.2,1.2,0.3,1.3c0,0,0.1,0.2,0.1,0.2c0,0,0.1,0,0.1,0c0.7,0,1.7-0.6,2.5-0.6c0.5,0,1.1,0.5,1.1,1
		c0,0.2-0.2,0.3-0.4,0.3c-0.6,0-3.1,0.1-3.1,0.9c0,0.1,0,0.2,0,0.3c0.1,0.3,0,0.7,0.1,1c0.1,0.3,0.1,0.5,0.5,0.5l1.1,0
		c0.5,0,1.4,0,1.8-0.2c0.2-0.1,0.4-0.2,0.6-0.2c0.3,0,0.5,0.2,0.5,0.5C298.9,126.7,298.4,126.9,297.7,127.1z M292.6,122.5
		c0-0.2-0.1-0.4-0.1-0.6c0,0,0,0,0,0c-0.1,0-0.3,0.7-0.3,0.8c0,0.1,0,0.1,0.1,0.1C292.3,122.7,292.5,122.5,292.6,122.5L292.6,122.5z
		"/>
	<path d="M306.1,128.3c-0.1,0-0.2,0-0.3-0.1c-0.6-0.4-3.8-3.1-4.1-3.1c-0.1,0-0.1,0.1-0.1,0.2c0,0.1,0,0.1,0,0.2c0,0.4,0,0.8,0,1.1
		c0,0.4,0,0.7-0.1,1.1c-0.1,0.3-0.3,0.5-0.6,0.5c-0.5,0-0.8-0.4-0.8-0.9c0-0.3,0.1-0.6,0.2-0.8c0.1-0.2,0.1-0.7,0.1-1
		c0-0.9-0.1-2.9-0.4-3.7c-0.1-0.3-0.2-0.5-0.2-0.8c0-0.3,0.1-0.5,0.3-0.7c0.7-0.8,1.5-1,2.6-1c1.1,0,2.1,0.5,3,1.1
		c0.3,0.2,0.4,0.4,0.4,0.8c0,0.9-0.7,1.7-1.4,2.2c-0.3,0.2-1.3,0.7-1.4,0.9c0,0,0,0,0,0c0,0,0.1,0.1,0.1,0.1
		c0.8,0.6,1.6,1.3,2.3,1.9c0.3,0.3,0.7,0.5,1,0.8c0.1,0.1,0.1,0.2,0.1,0.3C306.9,127.8,306.5,128.3,306.1,128.3z M304.6,121.1
		c-0.4-0.3-1.7-0.5-2.2-0.5c-0.3,0-0.9,0.1-0.8,0.5c0,0.7,0.1,1.3,0.2,2c0,0,0,0.1,0,0.1c0.2,0,0.4-0.1,0.6-0.1
		c0.9-0.2,1.6-0.5,2.3-1.1c0.1-0.1,0.2-0.3,0.2-0.4C304.8,121.4,304.7,121.2,304.6,121.1z"/>
</g>
<path fill="none" stroke="#333333" stroke-width="1.5" stroke-miterlimit="10" d="M214.9,133.1c33.1-2.1,45,8.6,45,8.6
	s9.7-12.7,44-8.6"/>
<g>
	<path d="M711.4,173.3c-0.3,1.9-1.8,3.3-3.8,3.5c-0.1,0-0.2,0-0.3,0c-0.6,0-1.1-0.1-1.6-0.3c-1.2-0.4-2.3-1.6-2.4-2.9
		c0-0.3,0-0.5,0.1-0.8c0.5-1.9,2.3-3.2,4.1-3.6c0.1,0,0.3-0.1,0.5-0.1c1.9-0.2,3.3,1.3,3.5,3.1C711.4,172.7,711.4,173,711.4,173.3z
		 M709.4,171.6L709.4,171.6c-0.3,0-0.5,0.2-0.7,0.2c-0.2,0-0.2-0.1-0.3-0.2c-0.2-0.6-0.2-0.9-0.9-0.9l-0.2,0c-1.4,0.1-2.8,1.5-2.6,3
		c0.1,1.5,1.9,1.9,3.2,1.8c1.3-0.1,2.2-1.2,2.3-2.5c0-0.2,0-0.5,0-0.7C710.1,171.9,709.9,171.7,709.4,171.6z"/>
	<path d="M717.4,170.7c-0.6,1-1.5,1.6-2.7,1.8c-0.1,0-0.2,0-0.3,0c0,0-0.1,0-0.1,0.1c0.1,0.7,0.4,1.4,0.5,2.2
		c0.1,0.6-0.1,1.4-0.7,1.8c-0.1,0.1-0.2,0.1-0.3,0.1c-0.2,0-0.3-0.1-0.4-0.2l-0.1-0.6l-0.3-1.6c-0.4-2-0.6-3.9-0.8-6
		c-0.1-0.8,0.9-1.5,1.6-1.6c0.1,0,0.1,0,0.2,0c1.3,0,2.5,0.7,3.3,1.8c0.2,0.3,0.3,0.6,0.4,0.9C717.8,169.9,717.6,170.3,717.4,170.7z
		 M714.1,168.2c-0.3,0-0.6,0.3-0.5,0.6c0,0.4,0.7,0.3,0.7,1c0,0.5-0.3,0.7-0.3,0.8l0,0c0.2,0.3,0.5,0.5,0.9,0.4
		c0.6-0.1,1.5-0.7,1.5-1.4C716.3,169,714.8,168.2,714.1,168.2z"/>
	<path d="M727.8,167.7c-0.5,0.3-1.3,0.6-1.9,0.7c-0.6,0.2-1.3,0.3-1.8,0.5c-0.2,0.1-0.4,0.2-0.3,0.4l0,0.1c0.2,1.1,0.4,2.2,0.7,3.3
		c0.1,0.4,0.2,0.9,0.4,1.2c0.1,0.1,0.6,0.1,0.6,0.5c0,0.4-0.3,1.1-0.8,1.1c-0.2,0-0.4-0.1-0.6-0.2c-0.5-0.4-0.7-0.9-0.8-1.5
		c-0.2-0.8-0.4-1.7-0.5-2.5c-0.1-0.5-0.1-1-0.2-1.4c-0.1-0.2-0.2-0.5-0.5-0.5l-0.1,0c-1,0.1-1.8,0.6-2.7,0.9c-0.1,0-0.1,0-0.2,0.1
		c-0.6,0.1-1.4-0.5-1.4-1.1c0-0.3,0.2-0.4,0.5-0.5c0.6-0.1,1.2-0.2,1.8-0.3c1-0.2,2-0.4,2.9-0.6c1.5-0.3,2.9-0.6,4.3-1.2
		c0,0,0.1,0,0.1,0c0.4,0,0.8,0.4,0.9,0.8C728,167.5,728,167.6,727.8,167.7z"/>
	<path d="M733.7,175.7c-0.4,0-0.8-0.2-0.9-0.6c-0.3-0.8-0.3-1.8-0.5-2.6c0,0,0-0.1-0.1-0.1l-1.7,0.2c-0.4,0-0.8,0.3-0.8,0.7
		c-0.2,1.2,0,1.6-0.6,2.8c-0.2,0.3-0.5,0.6-0.8,0.7c-0.5,0-0.8-0.3-0.8-0.8c-0.1-0.8,0.7-2.4,0.6-2.7c0-0.3-0.5-0.4-0.6-0.9
		c0-0.4,0.3-0.9,0.7-1c0.3-0.1,0.4-0.1,0.5-0.4c0.2-0.6,0.4-1.2,0.5-1.8c0.2-1.1,0.4-2.2,0.8-3.2c0.1-0.4,0.4-0.7,0.8-0.7
		c0.4,0,0.8,0.3,1,0.7c0.6,1.3,1,2.7,1.3,4.1c0.3,1.7,0.7,3.1,1.2,4.7c0,0.1,0,0.2,0.1,0.3C734.3,175.4,734.1,175.7,733.7,175.7z
		 M731.3,168.2c0-0.1-0.1-0.3-0.3-0.2c-0.2,0-0.2,0.2-0.3,0.3c-0.2,0.9-0.4,1.7-0.6,2.6l0,0c0,0.2,0.5,0.1,0.7,0.1l0,0
		c0.2,0,0.4,0,0.6,0c0.1,0,0.3,0,0.3,0c0,0,0.1,0,0.1-0.1C731.7,169.9,731.5,169.1,731.3,168.2z"/>
	<path d="M743.1,171.9c-0.9,1.4-1.9,2.3-3.5,2.4c-1.9,0.2-4.6-0.8-4.8-2.9c-0.2-2.6,2.4-5.3,4.4-6.6c0.3-0.2,0.7-0.3,1.1-0.4
		c0.6-0.1,1.4,0.2,1.5,0.9c0,0.4-0.3,0.8-0.7,0.8c-0.5,0-0.3-0.5-0.6-0.5c-0.1,0-0.2,0-0.3,0.1c-1.5,0.7-2.4,1.4-3.4,2.8
		c-0.5,0.7-0.8,1.5-0.7,2.3c0.1,1.4,1.5,2.5,2.9,2.3c1-0.1,2.5-0.9,3.1-1.7c0.1-0.1,0.2-0.3,0.2-0.5c0-0.3-1.2-0.3-1.4-0.3
		c-0.3,0-0.7,0.1-1,0.2c-0.4,0-0.8-0.2-0.8-0.6c0-0.5,0.4-0.7,0.8-0.7c0.3,0,0.6-0.1,1-0.1c1-0.1,2.5,0.1,2.6,1.3
		C743.4,171.2,743.3,171.6,743.1,171.9z"/>
	<path d="M751.6,172.6c-1.4,0.7-3.7,1.5-5.3,1.7c-0.4,0-0.9-0.1-0.9-0.6c-0.1-1.1,0-2.3-0.1-3.5c0-0.3-0.1-0.6-0.1-1
		c0-0.1,0-0.3-0.2-0.3c-0.4-0.1-0.9-0.1-0.9-0.6c0-0.4,0.3-0.7,0.5-0.9c0.1-0.1,0.2-0.1,0.3-0.2c0.1-0.1,0.1-0.2,0.1-0.4l0-0.1
		c0-0.2,0-0.3-0.1-0.5c-0.4-0.1-1-0.3-1.1-0.8c0-0.4,0.2-0.9,0.4-1.2c0.1-0.3,0.4-0.7,0.7-0.7c0.4,0,0.7,0.4,1.3,0.3
		c0.5,0,1-0.2,1.6-0.2c0.6-0.1,1.2-0.1,1.8-0.1c0.4,0,0.7,0.2,0.7,0.6c0,0.4-0.2,0.7-0.6,0.8l-0.2,0c-0.5,0-1,0.1-1.5,0.1
		c-0.5,0-1,0.1-1.4,0.3c-0.1,0-0.4,0-0.3,0.2l0.1,1.3c0,0.2,0.1,0.2,0.3,0.2c1.4,0,2.5-0.2,3.9,0.3c0.2,0.1,0.5,0.2,0.5,0.5
		c0,0.4-0.5,0.5-0.8,0.6c-0.1,0-0.1,0-0.2,0c-1.1,0-2.3,0.1-3.4,0.2c-0.1,0-0.2,0.1-0.2,0.2c0,0.2,0,0.3,0,0.5c0,0.6,0,1.2,0.1,1.8
		c0,0.3,0.1,0.7,0.1,1c0.1,0.3,0.2,0.4,0.5,0.4c0.3,0,0.6,0,0.9-0.1c1.1-0.1,2.3-0.4,3.4-0.7l0.1,0c0.3,0,0.4,0.2,0.5,0.4
		C751.9,172.4,751.8,172.6,751.6,172.6z"/>
	<path d="M761.4,164.6c-0.5,0.3-1.3,0.6-1.9,0.7c-0.6,0.2-1.3,0.3-1.8,0.5c-0.2,0.1-0.4,0.2-0.3,0.4l0,0.1c0.2,1.1,0.4,2.2,0.7,3.3
		c0.1,0.4,0.2,0.9,0.4,1.2c0.1,0.1,0.6,0.1,0.6,0.5c0,0.4-0.3,1.1-0.8,1.1c-0.2,0-0.4-0.1-0.6-0.2c-0.5-0.4-0.7-0.9-0.8-1.5
		c-0.2-0.8-0.4-1.7-0.5-2.5c-0.1-0.5-0.1-1-0.2-1.4c-0.1-0.2-0.2-0.5-0.5-0.5l-0.1,0c-1,0.1-1.8,0.6-2.7,0.9c-0.1,0-0.1,0-0.2,0.1
		c-0.6,0.1-1.4-0.5-1.4-1.1c0-0.3,0.2-0.4,0.5-0.5c0.6-0.1,1.2-0.2,1.8-0.3c1-0.2,2-0.4,2.9-0.6c1.5-0.3,2.9-0.6,4.3-1.2
		c0,0,0.1,0,0.1,0c0.4,0,0.8,0.4,0.9,0.8C761.6,164.4,761.5,164.5,761.4,164.6z"/>
	<path d="M771.1,165.8c-0.6,1-1.5,1.6-2.7,1.8c-0.1,0-0.2,0-0.3,0c0,0-0.1,0-0.1,0.1c0.1,0.7,0.4,1.4,0.5,2.2
		c0.1,0.6-0.1,1.4-0.7,1.8c-0.1,0.1-0.2,0.1-0.3,0.1c-0.2,0-0.3-0.1-0.4-0.2l-0.1-0.6l-0.3-1.6c-0.4-2-0.6-3.9-0.8-6
		c-0.1-0.8,0.9-1.5,1.6-1.6c0.1,0,0.1,0,0.2,0c1.3,0,2.5,0.7,3.3,1.8c0.2,0.3,0.3,0.6,0.4,0.9C771.5,164.9,771.3,165.3,771.1,165.8z
		 M767.8,163.3c-0.3,0-0.6,0.3-0.5,0.6c0,0.4,0.7,0.3,0.7,1c0,0.5-0.3,0.7-0.3,0.8l0,0c0.2,0.3,0.5,0.5,0.9,0.4
		c0.6-0.1,1.5-0.7,1.5-1.4C770,164,768.5,163.2,767.8,163.3z"/>
	<path d="M778.6,170.5c-0.3,0-0.7-0.1-0.7-0.5c0-0.3,0.3-0.4,0.3-0.6c0-0.3-0.4-0.6-0.6-0.8c-0.2-0.2-0.4-0.5-0.6-0.7
		c-0.1-0.1-0.2-0.2-0.4-0.2c-0.1,0-0.2,0-0.3,0.1c-0.8,0.2-1.9,0.7-2.5,1.4c-0.2,0.3-0.2,0.5-0.2,0.8l0,0.3c0,0.5-0.1,2.3-0.7,2.4
		c-0.5,0-0.6-0.9-0.6-1.2c0-0.3,0-0.6,0-0.9c0.1-1,0.1-2,0.2-3c0-0.6,0.1-1.2,0.2-1.8c0.2-0.8,0.5-1.9,0.4-2.7c0-0.1,0-0.3-0.2-0.4
		c-0.4-0.4-0.6-0.8-0.6-1.3c0-0.3,0-0.6,0.2-0.9c0.5-0.7,0.8-1.1,1.7-1.2s1.9,0.9,2,1.7c0.1,1.1-0.8,1.5-0.8,1.8
		c0,0.1,0.2,0.4,0.3,0.5c0.2,0.3,0.2,0.5,0.3,0.9c0.1,0.4,0.4,0.8,0.7,1.1c0.7,0.8,1.3,1.7,1.9,2.6c0.1,0.2,0.3,0.4,0.4,0.5
		c0.3,0.3,0.4,0.7,0.5,1C779.5,169.9,779.3,170.4,778.6,170.5z M774.2,160.3c-0.4,0-0.7,0.5-0.7,0.8c0,0.3,0.5,0.5,0.8,0.5
		c0.3,0,0.7-0.3,0.7-0.6C774.9,160.6,774.5,160.2,774.2,160.3z M775.8,166.2c-0.3-0.5-0.6-1-0.9-1.6c-0.1-0.1-0.1-0.3-0.2-0.5
		c0,0-0.1-0.2-0.2-0.2c-0.1,0-0.1,0.3-0.1,0.3c0,0.6-0.2,2.1-0.3,2.7c0,0,0,0,0,0.1c0,0,0,0,0,0c0.1,0,0.1,0,0.1-0.1
		c0.3-0.2,0.5-0.2,0.8-0.2c0.1,0,0.3,0,0.4,0c0.1,0,0.5,0,0.5-0.2C776,166.5,775.8,166.3,775.8,166.2z"/>
	<path d="M788.2,170.4c-0.3,0.3-0.6,0.4-1,0.4c-0.6,0.1-1.5-0.1-1.5-0.8l0-0.5c-0.1-1.4-0.4-2.7-0.6-4.1c-0.2-1.2-0.6-1.8-1.2-2.7
		c-0.2-0.3-0.3-0.6-0.3-1c-0.1-0.6,0.1-1,0.7-1.2c0.5-0.2,1.1-0.4,1.7-0.4c1.1-0.1,2,0.2,3,0.7c1.4,0.7,2.4,1.8,2.5,3.5
		C791.6,166.7,789.9,168.8,788.2,170.4z M789.4,162.8c-0.9-0.8-1.9-1.2-3-1.3c-0.1,0-0.3,0-0.4,0c-0.2,0-0.3,0.1-0.2,0.3
		c0,0.1,0,0.1,0,0.2c0.5,2.4,0.8,4.5,1.1,6.8c0,0.2,0.4,0.3,0.6,0.3c0.1,0,0.2,0,0.3-0.1c1-0.8,1.7-2.1,2.3-3.2
		c0.2-0.4,0.2-0.9,0.2-1.4C790.1,163.8,789.9,163.2,789.4,162.8z"/>
	<path d="M800.7,168.6c-0.3,0-0.5-0.2-0.7-0.4c-0.5-0.5-0.7-1.3-1-1.9c-0.1-0.4-0.8-2.7-0.9-2.8l0,0l0,0.1l0,0.1
		c-0.2,0.8-1,2.5-1.9,2.6c-0.6,0.1-1.2-1-1.7-1.4c0,0,0,0,0,0c0,0.1,0,0.5,0,0.6l0,0c0.1,0.6,0.2,1.2,0.2,1.8c0,0.3,0,0.6,0,0.9
		c-0.1,0.3-0.4,0.6-0.8,0.6c-0.3,0-0.5-0.2-0.5-0.5c-0.1-0.9-0.1-1.8-0.2-2.6c-0.1-1.4-0.4-2.8-0.8-4.1c0-0.1,0-0.1,0-0.2
		c0-0.3,0.2-0.5,0.5-0.5c0.3,0,0.6,0.1,0.7,0.3c0.2,0.3,0.3,0.6,0.5,0.9c0.5,0.9,1.1,1.7,1.9,2.3c0.1,0.1,0.2,0.2,0.3,0.2
		c0.1,0,0.2-0.2,0.3-0.3c0.5-0.9,0.6-1.9,1.1-2.7c0.1-0.2,0.3-0.3,0.6-0.4c0.3,0,0.6,0.2,0.8,0.5c0.5,1.2,0.9,2.5,1.4,3.7
		c0.2,0.7,0.5,1.4,0.8,2.1c0,0.1,0.1,0.2,0.1,0.2C801.2,168,801.1,168.6,800.7,168.6z"/>
	<path d="M805.5,163.8c0.1,0.9,0.1,1.9,0,2.8c-0.2,1.5-1.1,3-2.7,3.4c-0.1,0-0.1,0-0.2,0c-0.7,0.1-1.5-0.4-1.6-1.2
		c0-0.4,0.2-1.6,0.7-1.6c0.4,0,0.8,0.5,0.8,0.9c0,0.2-0.1,0.4-0.1,0.6c0,0,0,0,0,0c0,0,0,0,0,0c0,0,0,0,0.1,0
		c0.8-0.1,1.2-0.6,1.4-1.3c0.3-1,0.3-2.1,0.2-3.1c-0.1-1.6-0.6-3.1-1.1-4.6c0-0.1,0-0.2-0.1-0.3c0-0.4,0.2-0.7,0.6-0.7
		c0.6-0.1,1.1,0.3,1.2,0.9l0.1,1.3c0.1,0.8,0.2,1.6,0.3,2.4L805.5,163.8z"/>
	<path d="M813.8,166.4c-1.1,0.1-2.2-1-3-1.6c0,0-0.1-0.1-0.2-0.1c-0.1,0-0.1,0-0.1,0.1c-0.2,0.2-0.3,0.4-0.5,0.6
		c-0.7,1-1.2,1.6-1.7,2.7c-0.1,0.2-0.2,0.3-0.4,0.3c-0.3,0-0.6-0.2-0.6-0.5c0-0.1,0-0.2,0.1-0.3c0.5-1.1,1.2-2.6,1.8-3.6
		c0.1-0.1,0.2-0.3,0.2-0.5c0-0.2-0.2-0.3-0.3-0.4c-1.1-1-2.3-1.9-3.3-2.9c-0.1-0.1-0.2-0.3-0.2-0.5c0-0.4,0.3-0.9,0.8-0.9
		c0.1,0,0.2,0,0.3,0.1c1.5,0.7,2.2,2.2,3.4,3.2c0,0,0.1,0.2,0.2,0.1c0,0,0.1-0.1,0.1-0.1c0.5-0.6,1.2-2.3,1.9-2.4
		c0.5,0,1.3,0.2,1.4,0.8c0,0.2,0,0.4-0.2,0.5c-0.1,0.1-0.2,0.1-0.3,0.1l-0.1,0c-0.2,0-0.3,0-0.5,0.2l-0.4,0.6l-0.7,0.9
		c-0.1,0.1-0.2,0.3-0.2,0.5c0,0.2,0.1,0.3,0.2,0.4c0.4,0.4,1.5,1.5,2,1.4c0.1,0,0.1-0.1,0.2-0.1c0.3,0,0.5,0.4,0.5,0.7
		C814.4,166.1,814.2,166.4,813.8,166.4z"/>
	<path d="M706.6,195.1c-0.3,0-0.8-0.1-0.9-0.5c-0.1-1.2-0.1-2.5-0.1-3.8c0-0.7-0.1-1.4-0.1-2.1c0-0.4-0.1-0.9-0.2-1.3
		c0-0.2-0.1-0.4-0.1-0.6c0-0.3,0.5-0.8,0.8-0.8c0.6-0.1,0.8,1,0.8,1.7c0,0.2,0,0.4,0,0.5c0.1,1.6,0.2,3.2,0.4,4.8l0,0.3
		c0,0.3,0.5,0.4,0.5,0.8C707.8,194.7,707.1,195,706.6,195.1z"/>
	<path d="M720.4,194.4c-0.1,0-0.2,0-0.3-0.1c-0.5-0.2-0.9-0.4-1.4-0.6c-1.1-0.3-2.2-0.5-3.4-0.8c-0.1,0-0.2,0-0.3,0s-0.1,0-0.1,0.1
		c0,0.2,0,0.3,0,0.5c0,0.5,0,1-0.3,1.5c-0.1,0.3-0.4,0.4-0.6,0.5c-0.3,0-0.6-0.2-0.6-0.5c0-0.1,0-0.2,0-0.2c0.2-1.2,0.3-2.4,0.2-3.6
		c-0.2-1.7-0.6-3.3-1.1-4.9c0-0.1,0-0.1,0-0.2c0-0.5,0.3-0.8,0.8-0.9c0.5,0,0.7,0.2,0.8,0.7l0,0.3c0.1,0.9,0.3,1.7,0.5,2.6
		c0.1,0.4,0.1,0.8,0.2,1.1c0,0.1,0,0.2,0.1,0.2c0,0,0.1,0,0.1-0.1c0.9-0.6,1.6-1.4,2.3-2.2c0.4-0.5,0.7-0.9,1.2-1.3
		c0.1-0.1,0.2-0.1,0.3-0.1c0.4,0,0.8,0.3,0.8,0.7c0.1,0.9-2,2.5-2.6,3c-0.4,0.4-0.7,0.7-1.1,1.2c0,0,0,0,0,0c0,0,0.1,0,0.1,0
		c0.4,0.2,0.8,0.4,1.2,0.5c1.2,0.4,2.4,0.5,3.4,1.4c0.2,0.2,0.3,0.4,0.3,0.6C720.8,194,720.7,194.4,720.4,194.4z"/>
	<path d="M729.2,183.8c-0.5,0.5-2.1,1.8-2.1,2.5c0,0.4,0.4,1.1,0.5,1.4c0.2,0.5,0.4,0.9,0.4,1.4c0,0.1,0,0.1,0,0.2
		c0,1.3-1.2,2.8-2.2,3.5c-0.4,0.2-0.8,0.4-1.2,0.5l-0.2,0c-0.8,0.1-1.1-0.1-1.8-0.4c0,0-0.1,0-0.1,0c0,0,0,0.1,0,0.1
		c-0.2,0.7-1.2,2.6-1.2,3.1c0,0.2,0.1,0.4,0.1,0.7c0,0.4,0,0.8-0.6,0.9c-0.5,0-0.8-0.2-0.9-0.7c-0.1-0.7,0.8-3.3,1.2-3.8
		c0.1-0.2,0.5-0.6,0.5-0.8c0-0.1-0.1-0.2-0.1-0.2c-0.2-0.3-0.4-0.6-0.6-1c-0.1-0.3-0.2-0.5-0.2-0.8c-0.2-2.1,1.7-4.7,3.9-4.9
		c0.5,0,0.9,0.1,1.4,0.1c0.2,0,0.4-0.1,0.5-0.3c0.5-0.7,1.1-1.5,1.4-2.3c0.1-0.3,0.4-0.7,0.8-0.7s0.9,0.4,0.9,0.7
		C729.9,183.2,729.5,183.5,729.2,183.8z M725,186.5c-0.1,0-0.1,0-0.2,0c-1.4,0.4-2.2,1.4-2.6,2.8c-0.1,0.3-0.2,0.8-0.1,1
		c0,0.2,0.2,0.5,0.4,0.5c0.1,0,0.2-0.1,0.2-0.2c0.1-0.2,0.3-0.4,0.4-0.6l0.9-1.3c0.4-0.6,0.9-1.2,1.3-1.9c0.1-0.1,0.1-0.2,0.1-0.3
		C725.3,186.5,725.1,186.5,725,186.5z M726.4,188c-0.1-0.1-0.3-0.2-0.4-0.2c-0.2,0-0.3,0.3-0.4,0.4c-0.3,0.5-0.6,0.9-0.9,1.4
		c-0.4,0.6-0.9,1.1-1.3,1.7c-0.1,0.1-0.2,0.3-0.2,0.4c0,0.2,0.5,0.2,0.9,0.2l0.3,0c1-0.1,2-1.1,2.2-2.1c0.1-0.3,0.1-0.7,0.1-1
		C726.7,188.4,726.7,188.1,726.4,188z"/>
	<path d="M733.8,193c-0.6,0.3-1.1,0.6-1.7,0.7c-0.1,0-0.2,0-0.3,0c-0.5,0-1.4-0.2-1.4-0.8c-0.1-0.6,0.6-0.4,0.6-1.1l0-0.4
		c-0.1-0.9-0.6-4.7-1.2-5.3c-0.2-0.2-0.4-0.4-0.4-0.8c0-0.3,0-0.4,0.2-0.6c0.7-0.6,1.6-1.1,2.5-1.2c0.8-0.1,1.6,0.1,2.4,0.4
		c0.4,0.1,0.6,0.4,0.6,0.8c0.1,1.3-1.2,2.1-1.2,2.3c0,0,0.1,0.1,0.1,0.1c1.2,0.5,2.7,0.9,2.8,2.4C736.8,190.8,734.8,192.4,733.8,193
		z M732.7,185l-0.1,0c-0.4,0-0.8,0.1-1.1,0.2c-0.4,0.1-0.3,0.5-0.3,0.8c0,0.3,0.2,0.7,0.3,1c0,0.1,0.1,0.1,0.2,0.1
		c0.1,0,0.3-0.1,0.4-0.2c0.6-0.4,1.1-0.8,1.5-1.4c0.1-0.1,0.1-0.2,0.1-0.2C733.5,184.9,733,185,732.7,185z M734.9,189.2
		c-0.8-0.6-1.4-0.7-2.4-0.7c0,0-0.1,0-0.2,0c-0.3,0-0.4,0.1-0.4,0.4c0,0.6,0.1,1.2,0.1,1.8c0,0.4,0.1,0.8,0.2,1.2
		c0,0.1,0,0.3,0.2,0.3c0.1,0,0.3-0.1,0.4-0.1c0.9-0.5,1.6-0.8,2.3-1.7c0.1-0.2,0.3-0.4,0.2-0.6C735.2,189.5,735.1,189.3,734.9,189.2
		z"/>
	<path d="M745.1,191.3c-1.4,0.7-3.7,1.5-5.3,1.7c-0.4,0-0.9-0.1-0.9-0.6c-0.1-1.1,0-2.3-0.1-3.5c0-0.3-0.1-0.6-0.1-1
		c0-0.1,0-0.3-0.2-0.3c-0.4-0.1-0.9-0.1-0.9-0.6c0-0.4,0.3-0.7,0.5-0.9c0.1-0.1,0.2-0.1,0.3-0.2c0.1-0.1,0.1-0.2,0.1-0.4l0-0.1
		c0-0.2,0-0.3-0.1-0.5c-0.4-0.1-1-0.3-1.1-0.8c0-0.4,0.2-0.9,0.4-1.2c0.1-0.3,0.4-0.7,0.7-0.7c0.4,0,0.7,0.4,1.3,0.3
		c0.5,0,1-0.2,1.6-0.2c0.6-0.1,1.2-0.1,1.8-0.1c0.4,0,0.7,0.2,0.7,0.6c0,0.4-0.2,0.7-0.6,0.8l-0.2,0c-0.5,0-1,0.1-1.5,0.1
		c-0.5,0-1,0.2-1.4,0.3c-0.1,0-0.4,0-0.3,0.2l0.1,1.3c0,0.2,0.1,0.2,0.3,0.2c1.4,0,2.5-0.2,3.9,0.3c0.2,0.1,0.5,0.2,0.5,0.5
		c0,0.4-0.5,0.5-0.8,0.6c-0.1,0-0.1,0-0.2,0c-1.1,0-2.3,0.1-3.4,0.2c-0.1,0-0.2,0.1-0.2,0.2c0,0.2,0,0.3,0,0.5c0,0.6,0,1.2,0.1,1.8
		c0,0.3,0.1,0.7,0.1,1c0.1,0.3,0.2,0.4,0.5,0.4c0.3,0,0.6,0,0.9-0.1c1.1-0.1,2.3-0.4,3.4-0.7l0.1,0c0.3,0,0.4,0.2,0.5,0.4
		C745.4,191,745.3,191.2,745.1,191.3z"/>
	<path d="M752.6,192c-0.3,0-0.6,0-0.7-0.4c-0.2-0.6-0.2-1.4-0.7-1.8c-0.4-0.4-0.8-0.7-1.2-1.1c-0.6-0.6-1.2-1.2-1.8-1.7
		c0,0-0.1-0.1-0.2-0.1c-0.1,0-0.1,0.1-0.1,0.2c0.1,1,0.3,2.1,0.4,3.1c0,0.4-0.2,0.6-0.6,0.6c-0.3,0-0.8-0.1-0.9-0.4
		c0-0.2,0-0.5,0-0.7c0-0.5-0.1-1-0.1-1.4c-0.1-0.6-0.3-3.5-0.8-3.8c-0.1-0.1-0.2-0.2-0.2-0.3c0-0.4,0.3-1.1,0.8-1.2
		c0.2,0,0.3,0.1,0.4,0.2c0.6,0.9,1.3,1.6,2,2.4c0.7,0.7,1.4,1.5,2,2.3c0,0.1,0.1,0.2,0.2,0.2c0,0-0.1-1.4-0.1-1.6
		c-0.1-1-0.3-1.8-0.7-2.7c0-0.1-0.1-0.2-0.1-0.2c0-0.4,0.2-0.7,0.6-0.7c0.2,0,0.5,0.1,0.6,0.2c0.7,0.4,0.8,1.9,0.9,2.7l0,0.2
		c0.1,0.6,0.1,1.3,0.1,1.9c0.1,0.7,0.2,2.2,0.5,2.7c0.1,0.3,0.3,0.5,0.3,0.8C753.4,191.8,753,192,752.6,192z"/>
	<path d="M761,190.6c0,0.3-0.4,0.5-0.7,0.5c-0.2,0-0.6,0-0.7-0.3c-0.1-0.3-0.1-0.7-0.2-1c-0.2-0.8-0.4-1.7-0.5-2.5l0-0.4
		c0-0.1,0-0.3-0.2-0.3l0,0c-0.5,0.2-1,0.4-1.5,0.5c-0.3,0.1-0.8,0.2-1.1,0.3c-0.1,0.1-0.2,0.1-0.2,0.3c0,0.2,0.1,0.5,0.2,0.8
		c0.1,0.5,0.3,1,0.3,1.5c0,0.4,0,0.6-0.5,0.6c-0.3,0-0.7-0.1-0.8-0.4c-0.3-1.3-0.5-2.7-0.8-4.1c-0.2-1.3-0.5-2.6-0.9-3.8l0-0.1
		c0-0.4,0.4-0.7,0.7-0.7c0.3,0,0.6,0.1,0.7,0.4c0.3,0.9,0.6,2.1,0.6,3c0,0.3,0,0.5,0,0.8c0,0.1,0.1,0.2,0.2,0.2
		c0.7-0.1,1.9-0.4,2.6-0.6c0.2,0,0.2-0.1,0.2-0.2c0-0.1,0-0.1,0-0.2c-0.1-1.1-0.5-2.1-0.6-3.2c0-0.5,0.1-0.9,0.7-1
		c0.4,0,0.8,0.2,0.8,0.6l0,0.4c0.1,1.1,0.4,2.2,0.6,3.3C760.6,186.8,760.7,188.7,761,190.6L761,190.6z"/>
	<path d="M768.4,190.6c-0.4,0-0.8-0.2-0.9-0.6c-0.3-0.8-0.3-1.8-0.5-2.6c0,0,0-0.1-0.1-0.1l-1.7,0.2c-0.4,0-0.8,0.3-0.8,0.7
		c-0.2,1.2,0,1.6-0.6,2.8c-0.2,0.3-0.5,0.6-0.8,0.7c-0.5,0-0.8-0.3-0.8-0.8c-0.1-0.8,0.7-2.4,0.6-2.7c0-0.3-0.5-0.4-0.6-0.9
		c0-0.4,0.3-0.9,0.7-1c0.3-0.1,0.4-0.1,0.5-0.4c0.2-0.6,0.4-1.2,0.5-1.8c0.2-1.1,0.4-2.2,0.8-3.2c0.1-0.4,0.4-0.7,0.8-0.7
		c0.4,0,0.8,0.3,1,0.7c0.6,1.3,1,2.7,1.3,4.1c0.4,1.7,0.7,3.1,1.2,4.7c0,0.1,0,0.2,0.1,0.3C769,190.3,768.7,190.6,768.4,190.6z
		 M766,183.1c0-0.1-0.1-0.3-0.3-0.2c-0.2,0-0.2,0.2-0.3,0.3c-0.2,0.9-0.4,1.7-0.6,2.6l0,0c0,0.2,0.5,0.1,0.7,0.1l0,0
		c0.2,0,0.4,0,0.6,0c0.1,0,0.3,0,0.3,0c0,0,0.1,0,0.1-0.1C766.3,184.8,766.2,183.9,766,183.1z"/>
	<path d="M775.1,183.3c-0.3,0.7-0.2,1.8-0.3,2.5c-0.1,1-0.2,1.9-0.7,2.7c-0.1,0.2-0.3,0.5-0.6,0.5c-0.3,0-0.5-0.2-0.8-0.4
		c-2-1.7-2.6-3.3-3.8-5.6c-0.3-0.5-0.5-1-0.8-1.5c-0.1-0.1-0.1-0.2-0.1-0.3c0-0.4,0.3-0.7,0.7-0.8c0.2,0,0.4,0,0.5,0.2
		c1,0.8,1.2,2.6,1.9,3.7c0.3,0.4,0.5,0.9,0.8,1.3c0.3,0.5,0.7,0.8,1.1,1.2c0,0.1,0.1,0.1,0.1,0.1c0,0,0,0,0,0c0.3-1,0.5-2,0.6-3.1
		c0-0.6,0-1.2,0-1.9c0-0.4,0.5-0.6,0.8-0.6c0.4,0,1.4,0.1,1.4,0.6C776,182.7,775.2,182.9,775.1,183.3z"/>
	<path d="M782.9,189.2c-0.3,0-0.6,0-0.7-0.4c-0.2-0.6-0.2-1.4-0.7-1.8c-0.4-0.4-0.8-0.7-1.2-1.1c-0.6-0.6-1.2-1.2-1.8-1.7
		c0,0-0.1-0.1-0.2-0.1c-0.1,0-0.1,0.1-0.1,0.2c0.1,1,0.3,2.1,0.4,3.1c0,0.4-0.2,0.6-0.6,0.6c-0.3,0-0.8-0.1-0.9-0.4
		c0-0.2,0-0.5,0-0.7c0-0.5-0.1-1-0.1-1.4c-0.1-0.6-0.3-3.5-0.8-3.8c-0.1-0.1-0.2-0.2-0.2-0.3c0-0.4,0.3-1.1,0.8-1.2
		c0.2,0,0.3,0.1,0.4,0.2c0.6,0.9,1.3,1.6,2,2.4c0.7,0.7,1.4,1.5,2,2.3c0,0.1,0.1,0.2,0.2,0.2c0,0-0.1-1.4-0.1-1.6
		c-0.1-1-0.3-1.8-0.7-2.7c0-0.1-0.1-0.2-0.1-0.2c0-0.4,0.2-0.7,0.6-0.7c0.2,0,0.5,0.1,0.6,0.2c0.7,0.4,0.8,1.9,0.9,2.7l0,0.2
		c0.1,0.6,0.1,1.3,0.1,1.9c0.1,0.7,0.2,2.2,0.5,2.7c0.1,0.3,0.3,0.5,0.3,0.8C783.7,188.9,783.3,189.2,782.9,189.2z"/>
</g>
<g>
	<path fill="#333333" d="M752.4,116.1c3.6,5,6.9,10,7.7,16.3c0.8,6.3-1.3,12.9-3.4,18.9c1,0,1.9,0,2.9,0c-0.6-3-1.3-4.7-1.9-7
		c-0.4-1.3-2.7-1.6-2.9-0.1c-0.5,3.4-0.1,6.3,1.7,9.3c0.5,0.9,1.6,0.9,2.4,0.3c2.4-1.9,4.7-2.5,7.7-2.9c0.7-0.1,1-0.3,1.6-0.8
		c0.6-0.6,0.5-1.5,0-2.1c-0.1-0.1-0.2-0.2-0.3-0.3c-0.4-0.5-1.3-0.6-1.8-0.2c-0.1,0.1-0.2,0.1-0.2,0.2c-1.5,1.1,0,3.7,1.5,2.6
		c0.1-0.1,0.2-0.1,0.2-0.2c-0.6-0.1-1-0.2-1.6-0.2c0.1,0.1,0.4,0.2,0.4,0.3c0-0.7,0-1.4,0-2.1c-1,0.5-4.2,0.7-4.9,1
		c-1.7,0.6-3.2,1.7-4.6,2.8c0.8,0.1,1.5,0.4,2.3,0.5c-1.3-2.3-1.8-4.8-1.4-6.8c-1,0-1.9,0-2.9,0c0.6,2,1.3,4.4,1.9,6.7
		c0.4,1.5,2.4,1.2,2.9-0.1c2.3-6.3,3.9-12.8,3.5-19.6c-0.4-6.8-4.2-12.4-8.1-17.7C753.8,113.1,751.2,114.5,752.4,116.1L752.4,116.1z
		"/>
</g>
<g>
	<path d="M8.2,146.4c-1.4,0.8-3.7,1.7-5.2,1.9c-0.4,0.1-0.9-0.1-0.9-0.6c-0.2-1.1-0.1-2.3-0.3-3.5c0-0.3-0.1-0.6-0.2-0.9
		c0-0.1,0-0.3-0.2-0.3c-0.4-0.1-0.9-0.1-1-0.5c0-0.4,0.3-0.7,0.5-0.9c0.1-0.1,0.2-0.1,0.3-0.2c0.1-0.1,0.1-0.3,0.1-0.4l0-0.1
		c0-0.2-0.1-0.3-0.1-0.5c-0.5-0.1-1-0.2-1.1-0.8c-0.1-0.4,0.2-0.9,0.3-1.2c0.1-0.3,0.3-0.7,0.7-0.7c0.4-0.1,0.8,0.3,1.3,0.3
		c0.5-0.1,1-0.2,1.6-0.3c0.6-0.1,1.2-0.2,1.8-0.2c0.4,0,0.7,0.1,0.8,0.6c0.1,0.4-0.2,0.7-0.6,0.8l-0.2,0c-0.5,0.1-1,0.1-1.5,0.2
		c-0.5,0.1-1,0.2-1.4,0.4c-0.1,0-0.4,0.1-0.3,0.2l0.2,1.3c0,0.2,0.1,0.2,0.3,0.2c1.4-0.1,2.5-0.3,3.9,0.1c0.2,0.1,0.5,0.2,0.5,0.4
		c0.1,0.4-0.5,0.6-0.7,0.6c-0.1,0-0.1,0-0.2,0c-1.1,0-2.2,0.2-3.4,0.3c-0.1,0-0.2,0.1-0.2,0.2c0,0.2,0,0.3,0,0.5
		c0,0.6,0.1,1.2,0.2,1.8c0,0.3,0.1,0.7,0.2,1c0.1,0.2,0.2,0.4,0.5,0.4c0.3,0,0.6-0.1,0.9-0.1c1.1-0.2,2.2-0.5,3.3-0.8l0.1,0
		c0.3,0,0.4,0.1,0.5,0.4C8.5,146.1,8.4,146.4,8.2,146.4z"/>
	<path d="M17.6,137.9c-0.5,0.4-1.2,0.6-1.8,0.8c-0.6,0.2-1.3,0.3-1.8,0.5c-0.2,0.1-0.4,0.2-0.3,0.4l0,0.1c0.2,1.1,0.5,2.2,0.8,3.3
		c0.1,0.4,0.3,0.9,0.4,1.2c0.1,0.1,0.6,0.1,0.6,0.5c0.1,0.4-0.3,1.1-0.7,1.2c-0.2,0-0.4-0.1-0.6-0.2c-0.5-0.4-0.7-0.9-0.9-1.5
		c-0.2-0.8-0.4-1.6-0.6-2.5c-0.1-0.5-0.2-1-0.3-1.4c-0.1-0.2-0.3-0.5-0.5-0.4l-0.1,0c-0.9,0.2-1.8,0.7-2.7,1C9.1,141,9,141,8.9,141
		c-0.6,0.1-1.4-0.5-1.5-1.1c0-0.3,0.2-0.4,0.4-0.5c0.6-0.2,1.2-0.3,1.8-0.4c1-0.2,1.9-0.5,2.9-0.8c1.4-0.4,2.9-0.7,4.2-1.4
		c0,0,0.1,0,0.1-0.1c0.4-0.1,0.9,0.4,0.9,0.8C17.8,137.7,17.7,137.8,17.6,137.9z"/>
	<path d="M28.6,143.3c-0.3,0.2-0.7,0.3-1.1,0.4c-0.8,0.2-1,0.3-1.8,0.8c-0.3,0.2-0.7,0.4-1.1,0.5c-0.5,0.1-0.6-0.2-0.7-0.6
		c-0.2-0.9-0.5-1.8-0.7-2.7c-0.2-0.9-0.4-1.9-0.6-2.8c-0.1-0.8-0.6-1.4-0.9-2.2c0-0.1,0-0.1,0-0.2c-0.1-0.4,0.1-0.8,0.5-0.9
		c0.2,0,0.3,0,0.5,0.1c0.9,0.5,1.1,2,1.3,2.9c0.2,1.4,0.4,2.8,0.8,4.2c0.1,0.1,0.1,0.3,0.2,0.2c0.9-0.1,1.5-0.8,2.4-0.9
		c0.1,0,0.3,0,0.4,0c0.4,0,0.8,0.4,0.9,0.8C28.8,143,28.7,143.2,28.6,143.3z"/>
	<path d="M39.3,141.6c-0.8,0.3-2.1,0.5-2.8,0.9c-0.4,0.2-0.7,0.4-1.1,0.5c-0.3,0-0.6,0-0.8-0.3c-0.2-0.2-0.4-0.5-0.4-0.8
		c-0.1-0.5,0.2-0.7,0.2-1c0-0.3-0.2-0.6-0.2-0.9c0-0.1-0.1-0.6-0.1-0.7c0-0.1-0.1-0.1-0.2-0.1c-0.2,0-0.3,0.1-0.5,0.1l-0.5,0.1
		c-0.4,0.1-0.8,0.2-1,0.6c-0.2,0.5-0.9,1.4-0.8,2c0,0.2,0.2,0.4,0.2,0.6c0.1,0.4-0.2,1-0.4,1.4c-0.1,0.3-0.3,0.9-0.7,0.9
		c-0.5,0.1-0.8-0.6-0.9-1c-0.2-1.2,1.2-2.8,1.1-3.4c0-0.2-0.5-0.5-0.5-0.8c0-0.3,0.1-0.5,0.3-0.8c0.9-1.2,1.4,0,1.6-1.8
		c0-0.2,0-0.3,0-0.5c-0.1-0.4-0.2-0.8-0.3-1.2c0-0.2,0-0.3,0-0.5c0.1-0.5,0.6-1.4,1.2-1.5c0.6-0.1,0.8,0.5,1.2,0.5
		c0.3,0,0.5-0.1,0.8-0.2c1-0.4,2.1-0.7,3.1-0.8c0.2,0,0.7-0.1,0.8,0c0.3,0.2,0.6,0.6,0.7,0.9c0,0.3-0.2,0.5-0.5,0.5
		c-0.6,0.1-1.3,0.1-1.9,0.2c-0.5,0.1-3,0.6-2.9,1.3c0,0.2,0.4,1.3,0.5,1.4c0.1,0,0.1,0.1,0.2,0.2c0,0,0.1,0,0.2,0
		c0.7-0.1,1.7-0.9,2.6-1c0.5-0.1,1.2,0.4,1.3,0.9c0,0.3-0.1,0.4-0.4,0.4c-0.6,0.1-3.3,0.5-3.1,1.4c0,0.1,0,0.2,0.1,0.3
		c0.1,0.3,0.1,0.7,0.3,1.1c0.1,0.3,0.2,0.5,0.5,0.4l1.2-0.2c0.5-0.1,1.5-0.2,1.8-0.5c0.2-0.1,0.4-0.3,0.6-0.3c0.3,0,0.5,0.1,0.6,0.4
		C40.5,141,40,141.4,39.3,141.6z M33.2,137.4c0-0.2-0.2-0.4-0.2-0.7c0,0,0,0,0,0c-0.1,0-0.2,0.8-0.2,0.9c0,0.1,0,0.1,0.1,0.1
		C32.9,137.7,33.1,137.5,33.2,137.4L33.2,137.4z"/>
	<path d="M46.6,141.4c-1.2,0.2-2.8-0.4-3.9-0.9c-0.2-0.1-0.5-0.3-0.5-0.5c0-0.3,0.3-0.4,0.5-0.5c0.2,0,0.3,0,0.5,0
		c1.1,0.3,1.9,0.7,3,0.5l0.1,0c0.4-0.1,0.9-0.1,0.8-0.7c0-0.1-0.1-0.2-0.2-0.3c-0.8-0.8-3.3-0.9-4.4-1c-0.4-0.1-0.9-0.2-1.3-0.4
		c-0.4-0.2-1-0.6-1.1-1.2c-0.1-0.5,0.3-1,0.7-1.3c1.2-0.9,3.6-2.2,5.1-2.4c0.8-0.1,1.2,0.1,1.3,0.9c0,0.3,0,0.7-0.4,0.7
		c-0.2,0-0.3,0-0.5-0.1c-0.2-0.1-0.6,0-0.8,0c-0.3,0-0.6,0.1-0.9,0.2c-0.4,0.2-2.9,1.3-2.8,1.6c0,0.1,0.2,0.2,0.2,0.3
		c0.2,0.1,0.7,0.2,0.9,0.2c1.5,0.2,3.8,0.5,4.9,1.6c0.3,0.3,0.5,0.7,0.6,1.1C48.7,140.4,47.6,141.3,46.6,141.4z"/>
	<path d="M54.1,134.8c-0.6,1.1-1.4,1.7-2.6,1.9c-0.1,0-0.2,0-0.3,0c0,0-0.1,0-0.1,0.1c0.1,0.7,0.5,1.4,0.6,2.2
		c0.1,0.6,0,1.4-0.6,1.8c-0.1,0.1-0.2,0.1-0.3,0.2c-0.2,0-0.3,0-0.4-0.2l-0.1-0.6l-0.4-1.6c-0.5-2-0.8-3.9-1.1-5.9
		c-0.1-0.8,0.8-1.6,1.5-1.7c0.1,0,0.1,0,0.2,0c1.3,0,2.5,0.6,3.4,1.6c0.2,0.3,0.4,0.6,0.4,0.9C54.5,133.9,54.3,134.4,54.1,134.8z
		 M50.8,132.5c-0.3,0-0.5,0.3-0.5,0.6c0.1,0.4,0.7,0.3,0.8,0.9c0.1,0.5-0.3,0.8-0.3,0.9l0,0c0.2,0.3,0.5,0.5,0.9,0.4
		c0.6-0.1,1.5-0.8,1.4-1.5C53,133.1,51.4,132.4,50.8,132.5z"/>
	<path d="M63.4,138.6c-1.4,0.8-3.7,1.7-5.2,1.9c-0.4,0.1-0.9-0.1-0.9-0.6c-0.2-1.1-0.1-2.3-0.3-3.5c0-0.3-0.1-0.6-0.2-0.9
		c0-0.1,0-0.3-0.2-0.3c-0.4-0.1-0.9-0.1-1-0.5c-0.1-0.4,0.3-0.7,0.5-0.9c0.1-0.1,0.2-0.1,0.3-0.2c0.1-0.1,0.1-0.3,0.1-0.4l0-0.1
		c0-0.2-0.1-0.3-0.1-0.5c-0.5-0.1-1-0.2-1.1-0.8c-0.1-0.4,0.2-0.9,0.3-1.2c0.1-0.3,0.3-0.7,0.7-0.7c0.4-0.1,0.8,0.3,1.3,0.3
		c0.5-0.1,1-0.2,1.5-0.3c0.6-0.1,1.2-0.2,1.8-0.2c0.4,0,0.7,0.1,0.8,0.6c0.1,0.4-0.2,0.7-0.6,0.8l-0.2,0c-0.5,0.1-1,0.1-1.5,0.2
		c-0.5,0.1-1,0.2-1.4,0.4c-0.1,0-0.4,0.1-0.3,0.2l0.2,1.3c0,0.2,0.1,0.2,0.3,0.2c1.4-0.1,2.5-0.3,3.9,0.1c0.2,0.1,0.5,0.2,0.5,0.4
		c0.1,0.4-0.5,0.6-0.7,0.6c-0.1,0-0.1,0-0.2,0c-1.1,0-2.2,0.2-3.4,0.3c-0.1,0-0.2,0.1-0.2,0.2c0,0.2,0,0.3,0,0.5
		c0,0.6,0.1,1.2,0.2,1.8c0,0.3,0.1,0.7,0.2,1c0.1,0.2,0.2,0.4,0.5,0.4c0.3,0,0.6-0.1,0.9-0.1c1.1-0.2,2.2-0.5,3.3-0.8l0.1,0
		c0.3,0,0.4,0.1,0.5,0.4C63.7,138.3,63.6,138.6,63.4,138.6z"/>
	<path d="M70.9,139c-0.3,0-0.6,0-0.8-0.3c-0.2-0.6-0.2-1.4-0.8-1.8c-0.4-0.3-0.9-0.7-1.3-1.1c-0.6-0.6-1.2-1.1-1.9-1.6
		c-0.1,0-0.1-0.1-0.2-0.1c-0.1,0-0.1,0.1-0.1,0.2c0.1,1,0.4,2,0.6,3.1c0.1,0.4-0.2,0.6-0.6,0.7c-0.3,0-0.8,0-0.9-0.4
		c0-0.2,0-0.5-0.1-0.7c0-0.5-0.1-1-0.2-1.4c-0.1-0.6-0.5-3.5-1-3.8c-0.1-0.1-0.2-0.2-0.2-0.3c-0.1-0.4,0.3-1.1,0.7-1.2
		c0.2,0,0.3,0.1,0.4,0.2c0.7,0.8,1.4,1.5,2.1,2.3c0.7,0.7,1.5,1.4,2.1,2.2c0,0.1,0.1,0.2,0.2,0.2c0-0.1-0.2-1.4-0.2-1.6
		c-0.1-1-0.4-1.8-0.8-2.7c0-0.1-0.1-0.2-0.1-0.2c-0.1-0.4,0.2-0.7,0.5-0.8c0.2,0,0.5,0,0.7,0.1c0.7,0.4,0.9,1.8,1,2.7l0,0.2
		c0.1,0.6,0.2,1.3,0.2,1.9c0.1,0.7,0.3,2.2,0.6,2.7c0.1,0.3,0.3,0.5,0.4,0.8C71.7,138.7,71.3,138.9,70.9,139z"/>
	<path d="M76.5,137.9c-0.3,0.3-0.6,0.4-1,0.5c-0.6,0.1-1.5,0-1.6-0.8l-0.1-0.5c-0.2-1.4-0.5-2.7-0.8-4c-0.2-1.2-0.7-1.7-1.3-2.7
		c-0.2-0.3-0.3-0.6-0.4-1c-0.1-0.5,0.1-1,0.6-1.3c0.5-0.2,1.1-0.4,1.6-0.5c1.1-0.2,2.1,0.1,3.1,0.6c1.4,0.6,2.5,1.7,2.7,3.3
		C79.8,134.1,78.1,136.2,76.5,137.9z M77.4,130.3c-0.9-0.7-1.9-1.2-3.1-1.2c-0.1,0-0.3,0-0.4,0c-0.2,0-0.3,0.1-0.2,0.3
		c0,0.1,0,0.1,0,0.2c0.6,2.3,1,4.4,1.4,6.8c0,0.2,0.4,0.3,0.6,0.3c0.1,0,0.2-0.1,0.3-0.1c1-0.8,1.6-2.1,2.1-3.3
		c0.2-0.4,0.2-0.9,0.1-1.4C78.1,131.3,77.9,130.7,77.4,130.3z"/>
	<path d="M88.3,135.1c-1.4,0.8-3.7,1.7-5.2,1.9c-0.4,0.1-0.9-0.1-0.9-0.6c-0.2-1.1-0.1-2.3-0.3-3.5c0-0.3-0.1-0.6-0.2-0.9
		c0-0.1,0-0.3-0.2-0.3c-0.4-0.1-0.9-0.1-1-0.5c0-0.4,0.3-0.7,0.5-0.9c0.1-0.1,0.2-0.1,0.3-0.2c0.1-0.1,0.1-0.3,0.1-0.4l0-0.1
		c0-0.2-0.1-0.3-0.1-0.5c-0.4-0.1-1-0.2-1.1-0.8c-0.1-0.4,0.2-0.9,0.3-1.2c0.1-0.3,0.3-0.7,0.7-0.7c0.4-0.1,0.8,0.3,1.3,0.3
		c0.5-0.1,1-0.2,1.6-0.3c0.6-0.1,1.2-0.2,1.8-0.2c0.4,0,0.7,0.1,0.8,0.6c0.1,0.4-0.2,0.7-0.6,0.8l-0.2,0c-0.5,0.1-1,0.1-1.5,0.2
		c-0.5,0.1-1,0.2-1.4,0.4c-0.1,0-0.4,0.1-0.3,0.2l0.2,1.3c0,0.2,0.1,0.2,0.3,0.2c1.4-0.1,2.5-0.3,3.9,0.1c0.2,0.1,0.5,0.2,0.5,0.4
		c0.1,0.4-0.5,0.6-0.7,0.6c-0.1,0-0.1,0-0.2,0c-1.1,0-2.2,0.2-3.4,0.3c-0.1,0-0.2,0.1-0.2,0.2c0,0.2,0,0.3,0,0.5
		c0,0.6,0.1,1.2,0.2,1.8c0,0.3,0.1,0.7,0.2,1c0.1,0.2,0.2,0.4,0.5,0.4c0.3,0,0.6-0.1,0.9-0.1c1.1-0.2,2.2-0.5,3.3-0.8l0.1,0
		c0.3,0,0.4,0.1,0.5,0.4C88.6,134.8,88.5,135,88.3,135.1z"/>
	<path d="M8.9,164.9c-1.2,0.2-2.8-0.4-3.9-0.9c-0.2-0.1-0.5-0.3-0.5-0.5c0-0.3,0.3-0.4,0.5-0.5c0.2,0,0.3,0,0.5,0
		c1.1,0.3,1.9,0.7,3,0.5l0.1,0c0.4-0.1,0.9-0.1,0.8-0.7c0-0.1-0.1-0.2-0.2-0.3c-0.8-0.8-3.3-0.9-4.4-1c-0.4-0.1-0.9-0.2-1.3-0.4
		c-0.4-0.2-1-0.6-1.1-1.2s0.3-1,0.7-1.3c1.2-0.9,3.6-2.2,5.1-2.4c0.8-0.1,1.2,0.1,1.3,0.9c0,0.3,0,0.7-0.4,0.7c-0.2,0-0.3,0-0.5-0.1
		c-0.2-0.1-0.6,0-0.8,0c-0.3,0-0.6,0.1-0.9,0.2c-0.4,0.2-2.9,1.3-2.8,1.6c0,0.1,0.2,0.2,0.2,0.3c0.2,0.1,0.7,0.2,0.9,0.2
		c1.5,0.2,3.8,0.5,4.9,1.6c0.3,0.3,0.5,0.7,0.6,1.1C10.9,163.9,9.8,164.8,8.9,164.9z"/>
	<path d="M19.3,163.8c-0.1,0-0.2,0-0.3-0.1c-0.5-0.2-0.9-0.4-1.4-0.5c-1.1-0.3-2.3-0.4-3.4-0.7c-0.1,0-0.2,0-0.3,0
		c-0.1,0-0.1,0-0.1,0.1c0,0.2,0,0.3,0,0.5c0,0.5,0,1-0.2,1.6c-0.1,0.3-0.3,0.5-0.6,0.5c-0.3,0-0.6-0.1-0.6-0.5c0-0.1,0-0.2,0-0.2
		c0.1-1.2,0.2-2.4,0-3.6c-0.2-1.7-0.8-3.2-1.3-4.8c0-0.1,0-0.1,0-0.2c-0.1-0.5,0.3-0.9,0.7-0.9c0.5-0.1,0.7,0.2,0.8,0.6l0,0.3
		c0.1,0.9,0.4,1.7,0.6,2.5c0.1,0.4,0.2,0.7,0.3,1.1c0,0.1,0,0.2,0.1,0.2c0,0,0.1,0,0.1-0.1c0.9-0.6,1.5-1.4,2.1-2.3
		c0.3-0.5,0.7-1,1.1-1.4c0.1-0.1,0.2-0.1,0.3-0.2c0.4-0.1,0.8,0.2,0.9,0.6c0.1,0.8-1.9,2.6-2.5,3.1c-0.4,0.4-0.7,0.8-1,1.2
		c0,0,0,0,0,0c0,0,0.1,0,0.1,0c0.4,0.2,0.8,0.3,1.2,0.5c1.3,0.3,2.4,0.4,3.5,1.2c0.2,0.1,0.3,0.3,0.3,0.5
		C19.7,163.5,19.6,163.8,19.3,163.8z"/>
	<path d="M27.1,162.9c-0.1,0-0.2,0-0.3-0.1c-0.6-0.3-4.5-2.8-4.8-2.8c-0.1,0-0.1,0.1-0.1,0.2c0,0.1,0,0.1,0,0.2
		c0.1,0.4,0.1,0.8,0.2,1.2c0.1,0.4,0.1,0.8,0.1,1.2c0,0.4-0.3,0.6-0.6,0.6c-0.5,0.1-0.9-0.3-1-0.8c0-0.3,0-0.6,0.1-0.9
		c0.1-0.3,0-0.8-0.1-1c-0.1-1-0.5-3-0.9-3.9c-0.1-0.3-0.3-0.5-0.3-0.8c0-0.3,0-0.5,0.2-0.8c0.7-1,1.5-1.2,2.6-1.4
		c1.2-0.2,2.3,0.2,3.3,0.7c0.3,0.2,0.5,0.4,0.5,0.8c0.1,1-0.5,1.9-1.2,2.5c-0.3,0.2-1.3,1-1.4,1.2c0,0,0,0,0,0c0,0,0.1,0.1,0.2,0.1
		c0.9,0.6,1.8,1.1,2.8,1.7c0.4,0.2,0.8,0.5,1.2,0.7c0.1,0.1,0.2,0.2,0.2,0.3C27.9,162.3,27.5,162.9,27.1,162.9z M24.5,155.6
		c-0.4-0.2-1.9-0.3-2.4-0.2c-0.3,0-0.9,0.2-0.8,0.6c0.1,0.7,0.3,1.4,0.4,2.1c0,0,0,0.1,0.1,0.1c0.2,0,0.4-0.1,0.6-0.2
		c0.9-0.3,1.7-0.8,2.3-1.5c0.1-0.2,0.2-0.3,0.1-0.5C24.8,155.8,24.7,155.6,24.5,155.6z"/>
	<path d="M29.9,161.7c-0.3,0-0.9,0-0.9-0.4c-0.2-1.2-0.2-2.5-0.3-3.7c0-0.7-0.1-1.4-0.2-2c-0.1-0.4-0.1-0.9-0.2-1.3
		c0-0.2-0.1-0.4-0.1-0.6c0-0.3,0.4-0.8,0.7-0.8c0.6-0.1,0.8,1,0.9,1.7c0,0.2,0,0.4,0.1,0.5c0.2,1.6,0.4,3.2,0.6,4.8l0,0.3
		c0,0.3,0.5,0.4,0.6,0.8C31.1,161.3,30.4,161.6,29.9,161.7z"/>
	<path d="M40.1,158.6c-0.8,1.4-1.7,2.4-3.4,2.6c-1.9,0.3-4.6-0.6-4.9-2.7c-0.4-2.6,2.1-5.4,4.1-6.8c0.3-0.2,0.7-0.4,1-0.4
		c0.6-0.1,1.5,0.1,1.6,0.8c0.1,0.4-0.3,0.8-0.7,0.9c-0.5,0.1-0.3-0.5-0.6-0.4c-0.1,0-0.2,0.1-0.3,0.1c-1.5,0.8-2.4,1.5-3.2,3
		c-0.4,0.7-0.7,1.5-0.6,2.3c0.2,1.4,1.6,2.4,3,2.2c1-0.1,2.4-1,3-1.8c0.1-0.1,0.2-0.3,0.2-0.5c0-0.3-1.2-0.2-1.4-0.2
		c-0.3,0-0.7,0.2-1,0.2c-0.4,0.1-0.8-0.2-0.9-0.6c-0.1-0.5,0.3-0.7,0.7-0.7c0.3,0,0.6-0.1,0.9-0.1c1-0.1,2.5-0.1,2.7,1.2
		C40.4,157.8,40.3,158.2,40.1,158.6z"/>
	<path d="M53.1,155.2c-0.2,1.9-1.7,3.4-3.6,3.7c-0.1,0-0.2,0-0.3,0c-0.6,0-1.1,0-1.6-0.2c-1.2-0.4-2.3-1.4-2.5-2.8
		c0-0.3,0-0.5,0-0.8c0.4-2,2.1-3.3,4-3.8c0.1,0,0.3-0.1,0.5-0.1c1.9-0.3,3.3,1.1,3.6,2.9C53.1,154.6,53.1,154.9,53.1,155.2z
		 M51.1,153.6L51.1,153.6c-0.3,0-0.5,0.2-0.7,0.3c-0.2,0-0.3-0.1-0.3-0.2c-0.3-0.6-0.2-0.9-1-0.8l-0.2,0c-1.4,0.2-2.7,1.7-2.5,3.1
		c0.2,1.5,2,1.8,3.3,1.7c1.3-0.2,2.2-1.3,2.2-2.6c0-0.2,0-0.5,0-0.7C51.8,153.8,51.6,153.6,51.1,153.6z"/>
	<path d="M62.3,157.5c-0.3,0-0.5-0.2-0.7-0.4c-0.5-0.5-0.8-1.2-1.1-1.9c-0.1-0.3-0.9-2.6-1-2.7l0,0l0,0.1l0,0.1
		c-0.2,0.8-0.9,2.5-1.8,2.6c-0.6,0.1-1.3-0.9-1.7-1.3c0,0,0,0,0,0c0,0.1,0,0.5,0,0.6l0,0c0.1,0.6,0.2,1.2,0.3,1.8
		c0,0.3,0.1,0.6,0,0.9c-0.1,0.3-0.4,0.6-0.7,0.7c-0.3,0-0.5-0.2-0.5-0.5c-0.1-0.9-0.2-1.7-0.3-2.6c-0.2-1.4-0.5-2.7-1-4.1
		c0-0.1,0-0.1,0-0.2c0-0.3,0.2-0.5,0.5-0.6c0.3,0,0.6,0,0.7,0.2c0.2,0.3,0.4,0.6,0.5,0.8c0.6,0.8,1.2,1.6,2,2.2
		c0.1,0.1,0.2,0.2,0.3,0.2c0.1,0,0.2-0.2,0.3-0.3c0.4-0.9,0.5-1.9,1-2.8c0.1-0.2,0.3-0.4,0.5-0.4c0.3,0,0.6,0.2,0.8,0.5
		c0.6,1.2,1,2.4,1.5,3.6c0.3,0.7,0.6,1.4,0.9,2c0,0.1,0.1,0.2,0.1,0.2C62.8,156.8,62.7,157.4,62.3,157.5z"/>
	<path d="M74.2,156c0.1,0.3-0.4,0.5-0.6,0.6c-0.2,0-0.6,0-0.7-0.3c-0.1-0.3-0.2-0.7-0.2-1c-0.2-0.8-0.5-1.6-0.6-2.5l-0.1-0.4
		c0-0.1-0.1-0.3-0.2-0.3l0,0c-0.5,0.2-1,0.4-1.5,0.6c-0.3,0.1-0.7,0.2-1.1,0.3c-0.1,0.1-0.2,0.1-0.2,0.3c0,0.2,0.1,0.5,0.2,0.7
		c0.2,0.5,0.3,1,0.4,1.5c0.1,0.4,0,0.6-0.4,0.6c-0.3,0-0.8-0.1-0.8-0.4c-0.4-1.3-0.7-2.7-1-4c-0.3-1.3-0.6-2.5-1-3.8l0-0.1
		c-0.1-0.4,0.3-0.7,0.7-0.8c0.3,0,0.6,0.1,0.7,0.4c0.3,0.9,0.7,2,0.8,3c0,0.3,0,0.5,0.1,0.8c0,0.1,0.1,0.2,0.2,0.2
		c0.7-0.1,1.9-0.5,2.6-0.7c0.2-0.1,0.2-0.1,0.2-0.2c0-0.1,0-0.1,0-0.2c-0.2-1.1-0.6-2.1-0.8-3.1c-0.1-0.5,0.1-0.9,0.7-1
		c0.4-0.1,0.8,0.1,0.9,0.6l0.1,0.4c0.2,1.1,0.5,2.2,0.8,3.3C73.7,152.3,73.9,154.1,74.2,156L74.2,156z"/>
	<path d="M78.6,150.8c0.1,0.9,0.2,1.9,0.1,2.8c-0.1,1.5-1,3-2.5,3.5c-0.1,0-0.1,0-0.2,0c-0.7,0.1-1.5-0.3-1.6-1.1
		c-0.1-0.4,0.1-1.6,0.6-1.7c0.4-0.1,0.8,0.5,0.9,0.9c0,0.2-0.1,0.5-0.1,0.6c0,0,0,0,0,0c0,0,0,0,0,0c0,0,0,0,0.1,0
		c0.8-0.1,1.2-0.6,1.4-1.3c0.3-1,0.2-2.1,0.1-3.1c-0.2-1.6-0.8-3.1-1.3-4.6c0-0.1-0.1-0.2-0.1-0.2c-0.1-0.4,0.2-0.7,0.6-0.7
		c0.6-0.1,1.1,0.3,1.3,0.9l0.2,1.3c0.1,0.8,0.3,1.6,0.4,2.4L78.6,150.8z"/>
	<path d="M90.3,152.6c-0.8,0.3-2.1,0.5-2.8,0.9c-0.4,0.2-0.7,0.4-1.1,0.5c-0.3,0-0.6,0-0.8-0.3c-0.2-0.2-0.4-0.5-0.4-0.8
		c-0.1-0.5,0.2-0.7,0.2-1c0-0.3-0.2-0.6-0.2-0.9c0-0.1-0.1-0.6-0.1-0.7c0-0.1-0.1-0.1-0.2-0.1c-0.2,0-0.3,0.1-0.5,0.1l-0.5,0.1
		c-0.4,0.1-0.8,0.2-1,0.6c-0.2,0.5-0.9,1.4-0.8,2c0,0.2,0.2,0.4,0.2,0.6c0.1,0.4-0.2,1-0.4,1.4c-0.1,0.3-0.3,0.9-0.7,0.9
		c-0.5,0.1-0.8-0.6-0.9-1c-0.2-1.2,1.2-2.8,1.1-3.4c0-0.2-0.5-0.5-0.5-0.8c0-0.3,0.1-0.5,0.3-0.8c0.9-1.2,1.4,0,1.6-1.8
		c0-0.2,0-0.3,0-0.5c-0.1-0.4-0.2-0.8-0.3-1.2c0-0.2,0-0.3,0-0.5c0.1-0.5,0.6-1.4,1.2-1.5c0.6-0.1,0.8,0.5,1.2,0.5
		c0.3,0,0.5-0.1,0.8-0.2c1-0.4,2.1-0.7,3.1-0.8c0.2,0,0.7-0.1,0.8,0c0.3,0.2,0.6,0.6,0.7,0.9c0,0.3-0.2,0.5-0.5,0.5
		c-0.6,0.1-1.3,0.1-1.9,0.2c-0.5,0.1-3,0.6-2.9,1.3c0,0.2,0.4,1.3,0.5,1.4c0.1,0,0.1,0.1,0.2,0.2c0,0,0.1,0,0.2,0
		c0.7-0.1,1.7-0.9,2.6-1c0.5-0.1,1.2,0.4,1.3,0.9c0,0.3-0.1,0.4-0.4,0.4c-0.6,0.1-3.3,0.5-3.1,1.4c0,0.1,0,0.2,0.1,0.3
		c0.1,0.3,0.1,0.7,0.3,1.1c0.1,0.3,0.2,0.5,0.5,0.4l1.2-0.2c0.5-0.1,1.5-0.2,1.8-0.5c0.2-0.1,0.4-0.3,0.6-0.3c0.3,0,0.5,0.1,0.6,0.4
		C91.5,152,91,152.3,90.3,152.6z M84.2,148.4c0-0.2-0.2-0.4-0.2-0.7c0,0,0,0,0,0c-0.1,0-0.2,0.8-0.2,0.9c0,0.1,0,0.1,0.1,0.1
		C83.9,148.7,84.1,148.5,84.2,148.4L84.2,148.4z"/>
	<path d="M98,151.6c-0.3,0.2-0.7,0.3-1.1,0.4c-0.8,0.2-1,0.3-1.8,0.8c-0.3,0.2-0.7,0.4-1.1,0.5c-0.5,0.1-0.6-0.2-0.7-0.6
		c-0.2-0.9-0.5-1.8-0.7-2.7c-0.2-0.9-0.4-1.9-0.6-2.8c-0.1-0.8-0.6-1.4-0.9-2.2c0-0.1,0-0.1,0-0.2c0-0.4,0.1-0.8,0.5-0.9
		c0.2,0,0.3,0,0.5,0.1c0.9,0.5,1.1,2,1.3,2.9c0.2,1.4,0.4,2.8,0.8,4.2c0.1,0.1,0.1,0.3,0.2,0.2c0.9-0.1,1.5-0.8,2.4-0.9
		c0.1,0,0.3,0,0.4,0c0.4,0,0.8,0.4,0.9,0.8C98.2,151.4,98.2,151.5,98,151.6z"/>
	<path d="M103.3,146.1c-0.6,1.1-1.4,1.7-2.6,1.9c-0.1,0-0.2,0-0.3,0c0,0-0.1,0-0.1,0.1c0.1,0.7,0.5,1.4,0.6,2.2
		c0.1,0.6,0,1.4-0.6,1.8c-0.1,0.1-0.2,0.1-0.3,0.2c-0.2,0-0.3,0-0.4-0.2l-0.1-0.6l-0.4-1.6c-0.5-2-0.8-3.9-1.1-5.9
		c-0.1-0.8,0.8-1.6,1.5-1.7c0.1,0,0.1,0,0.2,0c1.3,0,2.5,0.6,3.4,1.6c0.2,0.3,0.4,0.6,0.4,0.9C103.6,145.2,103.5,145.6,103.3,146.1z
		 M99.9,143.7c-0.3,0-0.5,0.3-0.5,0.6c0.1,0.4,0.7,0.3,0.8,0.9c0.1,0.5-0.3,0.8-0.3,0.9l0,0c0.2,0.3,0.5,0.5,0.9,0.4
		c0.6-0.1,1.5-0.8,1.4-1.5C102.1,144.3,100.6,143.6,99.9,143.7z"/>
</g>
</svg>
