<?xml version="1.0" encoding="utf-8"?>
<!-- Generator: Adobe Illustrator 18.0.0, SVG Export Plug-In . SVG Version: 6.00 Build 0)  -->
<!DOCTYPE svg PUBLIC "-//W3C//DTD SVG 1.1//EN" "http://www.w3.org/Graphics/SVG/1.1/DTD/svg11.dtd">
<svg version="1.1" id="Layer_1" xmlns="http://www.w3.org/2000/svg" xmlns:xlink="http://www.w3.org/1999/xlink" x="0px" y="0px"
	 width="2010px" height="201.6px" viewBox="0 0 2010 201.6" enable-background="new 0 0 2010 201.6" xml:space="preserve">
<g>
	<g>
		<g>
			<path fill="none" stroke="#231F20" stroke-width="1.5" d="M1098.7,128.9c-1.8-1.1,0-2.2,0-4.3c0-2.1,0.7-3.8,1.9-5.1
				c1.3-1.3,3-2.2,5-2.2c1.9,0,3.7,0.8,4.9,2.2c1.2,1.3,2,3,2,5.1c0,2.1,1.8,3.2,0,4.3c-2.9,1.8-3.5-0.6-6.9,0
				C1102.1,129.5,1101.6,130.7,1098.7,128.9z"/>
		</g>
		<g>
			<path fill="none" stroke="#231F20" stroke-width="1.5" d="M1121.6,137.5c-3-1-3.2,0.2-6.4,0.2c-3.2,0-3.2-0.3-6.4-0.3
				c-3.2,0-3.2-0.2-6.4-0.2c-3.2,0-3.2,0.5-6.4,0.5c-3.2,0-3.3-1-6.3,0c-1,0.4-0.2,0.8,0.2,1.8c0.4,1,0.9,0.6,1.1,1.6
				c0.5,2.9-0.1,2.9-0.1,5.8c0,2.9-0.1,2.9-0.1,5.8c0,2.9,0.3,2.9,0.3,5.8c0,2.9-0.2,2.9-0.2,5.8c0,2.9,0.1,2.9,0.1,5.8
				c0,2.9,0.3,2.9,0.3,5.8c0,2.9-0.2,2.9-0.2,5.8c0,2.9,0.2,2.9,0.2,5.8c0,2.9-0.1,2.9-0.1,5.8s-2.1,3.7-0.2,5.9
				c1.7,1.9,2.7,0.2,5.3,0.2s2.6-0.3,5.2-0.3c4.2,0,4.2,0.2,8.3,0.2c2.6,0,2.6-0.1,5.2-0.1s3.6,2,5.3,0.1c1.9-2.2-0.1-3-0.1-5.9
				c0-2.9-0.4-2.9-0.4-5.8c0-2.9,0-2.9,0-5.8c0-2.9,0-2.9,0-5.8c0-2.9,0-2.9,0-5.8c0-2.9,0.4-2.9,0.4-5.8c0-2.9,0.2-2.9,0.2-5.8
				c0-2.9-0.3-2.9-0.3-5.8c0-2.9,0.2-2.9,0.2-5.8s-0.9-3-0.4-5.8c0.2-1,0.7-0.8,1.3-1.6C1122.1,138.5,1122.6,137.9,1121.6,137.5z"/>
		</g>
		<g>
			<path fill="none" stroke="#231F20" stroke-width="1.5" d="M1121.6,131c-2.7-1.7-3.2,0.2-6.4,0.2c-3.2,0-3.2-0.1-6.4-0.1
				c-3.2,0-3.2,0-6.4,0c-3.2,0-3.2-0.1-6.4-0.1c-3.2,0-3.8-1.7-6.5,0c-1.7,1.1-1.6,3,0.1,4.1c2.7,1.7,3.2-0.1,6.3-0.1
				c3.2,0,3.2,0.1,6.4,0.1c3.2,0,3.2-0.1,6.4-0.1c3.2,0,3.2,0,6.4,0s3.3,1.1,6.3,0C1123.6,134.2,1123.3,132.1,1121.6,131z"/>
		</g>
	</g>
	<g>
		<g>
			<path fill="none" stroke="#231F20" stroke-width="1.5" d="M1384,178.1c0,1.8-0.3,3.5-1.2,4.9c-0.9,1.5-2.2,2.6-3.7,3.5
				c-1.4,0.8-3.1,1.4-4.8,1.4c-1.8,0-3.4-0.5-4.9-1.3c-1.5-0.9-2.8-2-3.6-3.5c-0.8-1.4-1.2-3.1-1.2-4.9c0-1.8,0.4-3.5,1.2-4.9
				c0.9-1.5,2.2-2.7,3.6-3.5c1.4-0.8,3.1-1.4,4.9-1.4c1.8,0,3.5,0.5,4.9,1.3c1.5,0.9,2.6,2.2,3.5,3.7
				C1383.6,174.7,1384,176.3,1384,178.1z"/>
		</g>
		<g>
			<path fill="none" stroke="#231F20" stroke-width="1.5" d="M1376.6,199.3c-1.6,1.7-3,1.7-4.6,0c-1.7-1.7,0.1-2.4,0.1-4.8
				s-1.6-3,0-4.7c1.6-1.7,3-1.7,4.5,0c1.7,1.7-0.4,2.4,0.1,4.7C1377.2,197,1378.3,197.6,1376.6,199.3z"/>
		</g>
	</g>
	<g>
		<g>
			<path fill="none" stroke="#231F20" stroke-width="1.5" d="M1141.5,178.1c0,1.8-0.4,3.5-1.2,4.9c-0.9,1.5-2.1,2.8-3.6,3.6
				c-1.4,0.8-3.1,1.3-4.9,1.3s-3.5-0.5-4.9-1.3c-1.5-0.9-2.6-2.2-3.5-3.6c-0.8-1.4-1.3-3.1-1.3-4.9c0-1.8,0.5-3.4,1.3-4.9
				c0.9-1.5,2-2.8,3.5-3.7c1.4-0.8,3.2-1.3,4.9-1.3c1.8,0,3.5,0.5,4.9,1.3c1.5,0.9,2.7,2.2,3.5,3.6
				C1141.1,174.7,1141.5,176.3,1141.5,178.1z"/>
		</g>
		<g>
			<path fill="none" stroke="#231F20" stroke-width="1.5" d="M1134.1,199.3c-1.6,1.7-3,1.6-4.6,0c-1.7-1.7,0-2.4,0-4.7s-1.6-3,0-4.8
				c1.6-1.7,3-1.6,4.6,0c1.7,1.7-0.4,2.4,0.1,4.7C1134.6,197,1135.7,197.6,1134.1,199.3z"/>
		</g>
	</g>
	<g>
		<g>
			<path fill="none" stroke="#231F20" stroke-width="1.5" d="M1065.6,178.1c0,1.8-0.4,3.5-1.2,4.9c-0.9,1.5-2.1,2.7-3.6,3.6
				c-1.4,0.8-3.1,1.4-4.9,1.4c-1.8,0-3.4-0.6-4.9-1.5c-1.5-0.9-2.7-2.1-3.6-3.5c-0.8-1.4-1.4-3.1-1.4-4.9c0-1.8,0.5-3.5,1.4-4.9
				c0.9-1.5,2.1-2.8,3.5-3.7c1.4-0.8,3.2-1.3,4.9-1.3c1.8,0,3.5,0.5,4.9,1.3c1.5,0.9,2.7,2.1,3.6,3.6
				C1065.3,174.6,1065.6,176.3,1065.6,178.1z"/>
		</g>
		<g>
			<path fill="none" stroke="#231F20" stroke-width="1.5" d="M1058.2,199.3c-1.6,1.7-3,1.6-4.6,0c-1.7-1.7,0-2.4,0-4.8
				s-1.6-3,0.1-4.8c1.6-1.7,3-1.7,4.6,0c1.7,1.7-0.5,2.4,0,4.8C1058.8,197,1059.9,197.6,1058.2,199.3z"/>
		</g>
	</g>
	<g>
		<g>
			<path fill="none" stroke="#231F20" stroke-width="1.5" d="M1083.9,178.1c0,1.8-0.4,3.5-1.2,4.9c-0.9,1.5-2.2,2.6-3.7,3.5
				c-1.4,0.8-3.1,1.4-4.9,1.4c-1.8,0-3.5-0.5-4.9-1.3c-1.5-0.9-2.7-2.1-3.6-3.6c-0.8-1.4-1.3-3.1-1.3-4.9c0-1.8,0.6-3.4,1.4-4.9
				c0.9-1.5,2.1-2.7,3.5-3.6c1.4-0.8,3.1-1.3,4.9-1.3c1.8,0,3.4,0.5,4.9,1.4c1.5,0.9,2.7,2.1,3.6,3.6
				C1083.4,174.7,1083.9,176.3,1083.9,178.1z"/>
		</g>
		<g>
			<path fill="none" stroke="#231F20" stroke-width="1.5" d="M1076.4,199.3c-1.6,1.7-3,1.7-4.6,0c-1.7-1.7,0-2.4,0-4.8
				s-1.7-3.1,0-4.8c1.6-1.7,3-1.6,4.6,0c1.7,1.7-0.5,2.4,0,4.7C1077,197,1078.1,197.6,1076.4,199.3z"/>
		</g>
	</g>
	<g>
		<g>
			<path fill="none" stroke="#231F20" stroke-width="1.5" d="M364.1,178.1c0,1.8-0.4,3.5-1.2,4.9c-0.9,1.5-2.2,2.6-3.7,3.5
				c-1.4,0.8-3.1,1.5-4.8,1.5c-1.8,0-3.4-0.6-4.9-1.4c-1.5-0.9-2.8-2-3.7-3.5c-0.8-1.4-1.2-3.2-1.2-4.9c0-1.8,0.5-3.4,1.3-4.9
				c0.9-1.5,2.1-2.7,3.6-3.6c1.4-0.8,3.1-1.3,4.9-1.3c1.8,0,3.5,0.4,4.9,1.2c1.5,0.9,2.7,2.1,3.6,3.6
				C363.7,174.6,364.1,176.3,364.1,178.1z"/>
		</g>
		<g>
			<path fill="none" stroke="#231F20" stroke-width="1.5" d="M356.6,199.3c-1.6,1.7-3,1.6-4.6,0c-1.7-1.7,0-2.4,0-4.8s-1.6-3,0-4.7
				c1.6-1.7,3-1.6,4.5,0c1.7,1.7-0.5,2.4,0,4.7C357.1,197,358.3,197.6,356.6,199.3z"/>
		</g>
	</g>
	<g>
		<g>
			<path fill="none" stroke="#231F20" stroke-width="1.5" d="M684.4,178.1c0,1.8-0.5,3.5-1.3,4.9c-0.9,1.5-2.1,2.8-3.6,3.6
				c-1.4,0.8-3.1,1.2-4.9,1.2c-1.8,0-3.5-0.3-4.9-1.2c-1.5-0.9-2.7-2.2-3.6-3.6c-0.8-1.4-1.3-3.1-1.3-4.9c0-1.8,0.5-3.5,1.3-4.9
				c0.9-1.5,2.2-2.7,3.6-3.5c1.4-0.8,3.1-1.3,4.9-1.3c1.8,0,3.5,0.4,4.9,1.2c1.5,0.9,2.7,2.1,3.6,3.6
				C683.8,174.7,684.4,176.3,684.4,178.1z"/>
		</g>
		<g>
			<path fill="none" stroke="#231F20" stroke-width="1.5" d="M676.8,199.3c-1.6,1.7-3,1.6-4.5,0c-1.7-1.7,0-2.4,0-4.7
				s-1.7-3.1,0-4.8c1.6-1.7,3-1.6,4.6,0c1.7,1.7-0.5,2.4,0,4.8C677.4,197,678.5,197.6,676.8,199.3z"/>
		</g>
	</g>
	<g>
		<g>
			<path fill="none" stroke="#231F20" stroke-width="1.5" d="M349.4,178.1c0,1.8-0.4,3.5-1.2,4.9c-0.9,1.5-2.1,2.7-3.6,3.6
				c-1.4,0.8-3.1,1.2-4.9,1.2c-1.8,0-3.4-0.4-4.9-1.3c-1.5-0.9-2.7-2.1-3.6-3.6c-0.8-1.4-1.4-3.1-1.4-4.9c0-1.8,0.5-3.5,1.3-4.9
				c0.9-1.5,2.2-2.7,3.7-3.5c1.4-0.8,3.1-1.3,4.9-1.3c1.8,0,3.5,0.4,4.9,1.3c1.5,0.9,2.8,2.1,3.6,3.6
				C349,174.6,349.4,176.3,349.4,178.1z"/>
		</g>
		<g>
			<path fill="none" stroke="#231F20" stroke-width="1.5" d="M342,199.3c-1.6,1.7-3,1.6-4.6,0c-1.7-1.7,0-2.4,0-4.7
				s-1.7-3.1-0.1-4.8c1.6-1.7,3-1.6,4.6,0c1.7,1.7-0.5,2.4,0,4.8C342.4,197,343.6,197.6,342,199.3z"/>
		</g>
	</g>
	<g>
		<g>
			<path fill="none" stroke="#231F20" stroke-width="1.5" d="M263.7,178.1c0,1.8-0.5,3.5-1.3,4.9c-0.9,1.5-2.2,2.6-3.7,3.5
				c-1.4,0.8-3.1,1.4-4.9,1.4c-1.8,0-3.4-0.5-4.9-1.4c-1.5-0.9-2.7-2.1-3.5-3.6c-0.8-1.4-1.4-3.1-1.4-4.8c0-1.8,0.4-3.5,1.2-4.9
				c0.9-1.5,2.2-2.7,3.6-3.6c1.4-0.8,3.1-1.2,4.9-1.2c1.8,0,3.5,0.3,4.9,1.2c1.5,0.9,2.8,2.1,3.6,3.6
				C263.2,174.6,263.7,176.3,263.7,178.1z"/>
		</g>
		<g>
			<path fill="none" stroke="#231F20" stroke-width="1.5" d="M256.2,199.3c-1.6,1.7-3,1.6-4.6,0c-1.7-1.7,0-2.4,0-4.8
				s-1.7-3.1,0-4.8c1.6-1.7,3-1.6,4.6,0c1.7,1.7-0.5,2.4,0,4.8C256.7,197.1,257.8,197.6,256.2,199.3z"/>
		</g>
	</g>
	<g>
		<g>
			<path fill="none" stroke="#231F20" stroke-width="1.5" d="M246.7,178.1c0,1.8-0.4,3.5-1.3,4.9c-0.9,1.5-2.2,2.6-3.7,3.5
				c-1.4,0.8-3.1,1.4-4.9,1.4c-1.8,0-3.5-0.5-4.9-1.3c-1.5-0.9-2.6-2.2-3.5-3.7c-0.8-1.4-1.4-3.1-1.4-4.9c0-1.8,0.4-3.5,1.3-4.9
				c0.9-1.5,2.1-2.7,3.6-3.6c1.4-0.8,3.1-1.3,4.9-1.3c1.8,0,3.5,0.5,4.9,1.3c1.5,0.9,2.7,2.2,3.6,3.6
				C246.3,174.7,246.7,176.3,246.7,178.1z"/>
		</g>
		<g>
			<path fill="none" stroke="#231F20" stroke-width="1.5" d="M239.2,199.3c-1.6,1.7-3,1.7-4.6,0c-1.7-1.7,0-2.4,0-4.8
				s-1.6-3.1,0-4.8c1.6-1.7,3-1.6,4.6,0c1.7,1.7-0.5,2.4,0,4.8C239.7,197,240.9,197.6,239.2,199.3z"/>
		</g>
	</g>
	<g>
		<g>
			<path fill="none" stroke="#231F20" stroke-width="1.5" d="M229.7,178.1c0,1.8-0.5,3.4-1.3,4.9c-0.9,1.5-2,2.7-3.5,3.6
				c-1.4,0.8-3.1,1.2-4.9,1.2c-1.8,0-3.4-0.4-4.9-1.3c-1.5-0.9-2.7-2.1-3.5-3.6c-0.8-1.4-1.4-3.1-1.4-4.9c0-1.8,0.5-3.5,1.3-4.9
				c0.9-1.5,2.1-2.8,3.6-3.6c1.4-0.8,3.1-1.2,4.9-1.2c1.8,0,3.5,0.4,4.9,1.2c1.5,0.9,2.7,2.1,3.6,3.6
				C229.4,174.6,229.7,176.3,229.7,178.1z"/>
		</g>
		<g>
			<path fill="none" stroke="#231F20" stroke-width="1.5" d="M222.3,199.3c-1.6,1.7-3,1.7-4.6,0c-1.7-1.7,0-2.4,0-4.8
				s-1.7-3.1,0-4.8c1.6-1.7,3-1.7,4.6,0c1.7,1.7-0.5,2.5-0.1,4.8C222.8,197,223.9,197.6,222.3,199.3z"/>
		</g>
	</g>
	<g>
		<g>
			<path fill="none" stroke="#231F20" stroke-width="1.5" d="M212.8,178.1c0,1.8-0.4,3.5-1.2,4.9c-0.9,1.5-2.1,2.7-3.6,3.6
				c-1.4,0.8-3.1,1.2-4.9,1.2c-1.8,0-3.5-0.4-4.9-1.2c-1.5-0.9-2.8-2.1-3.7-3.5c-0.8-1.4-1.2-3.2-1.2-4.9c0-1.8,0.3-3.5,1.2-4.9
				c0.9-1.5,2.2-2.7,3.6-3.6c1.4-0.8,3.1-1.3,4.9-1.3c1.8,0,3.5,0.4,4.9,1.3c1.5,0.9,2.8,2.1,3.6,3.6
				C212.4,174.6,212.8,176.3,212.8,178.1z"/>
		</g>
		<g>
			<path fill="none" stroke="#231F20" stroke-width="1.5" d="M205.4,199.3c-1.6,1.7-3,1.6-4.6,0c-1.7-1.7,0-2.4,0-4.8s-1.6-3,0-4.8
				c1.6-1.7,3-1.7,4.6,0c1.7,1.7-0.5,2.4,0,4.8C205.9,197,207.1,197.6,205.4,199.3z"/>
		</g>
	</g>
	<g>
		<g>
			<path fill="none" stroke="#231F20" stroke-width="1.5" d="M1733.8,178.1c0,1.8-0.4,3.5-1.2,4.9c-0.9,1.5-2.2,2.6-3.7,3.5
				c-1.4,0.8-3.1,1.3-4.9,1.3c-1.8,0-3.5-0.4-4.9-1.2c-1.5-0.9-2.7-2.1-3.6-3.6c-0.8-1.4-1.3-3.1-1.3-4.9c0-1.8,0.5-3.4,1.4-4.9
				c0.9-1.5,2-2.8,3.5-3.7c1.4-0.8,3.2-1.3,4.9-1.3c1.8,0,3.5,0.5,4.9,1.3c1.5,0.9,2.6,2.2,3.5,3.7
				C1733.3,174.7,1733.8,176.3,1733.8,178.1z"/>
		</g>
		<g>
			<path fill="none" stroke="#231F20" stroke-width="1.5" d="M1726.3,199.3c-1.6,1.7-3,1.7-4.6,0c-1.7-1.7,0-2.4,0-4.8
				s-1.7-3.1,0-4.8c1.6-1.7,3-1.6,4.6,0c1.7,1.7-0.5,2.4,0,4.8C1726.9,197,1728,197.6,1726.3,199.3z"/>
		</g>
	</g>
	<g>
		<g>
			<path fill="none" stroke="#231F20" stroke-width="1.5" d="M1749.4,178.1c0,1.8-0.4,3.5-1.2,4.9c-0.9,1.5-2.2,2.6-3.7,3.5
				c-1.4,0.8-3.1,1.4-4.9,1.4c-1.8,0-3.4-0.5-4.9-1.4c-1.5-0.9-2.8-2-3.7-3.5c-0.8-1.4-1.2-3.2-1.2-4.9c0-1.8,0.5-3.4,1.3-4.9
				c0.9-1.5,2.1-2.7,3.6-3.6c1.4-0.8,3.1-1.3,4.9-1.3c1.8,0,3.4,0.5,4.9,1.3c1.5,0.9,2.8,2,3.7,3.5
				C1749,174.6,1749.4,176.3,1749.4,178.1z"/>
		</g>
		<g>
			<path fill="none" stroke="#231F20" stroke-width="1.5" d="M1742,199.3c-1.6,1.7-3,1.6-4.6,0c-1.7-1.7,0-2.4,0-4.8s-1.7-3,0-4.7
				c1.6-1.7,3-1.7,4.6,0c1.7,1.7-0.5,2.4,0,4.7C1742.5,197,1743.6,197.6,1742,199.3z"/>
		</g>
	</g>
	<g>
		<g>
			<path fill="none" stroke="#231F20" stroke-width="1.5" d="M1906.4,196.8c0,1.5,1.2,2.6,2.6,2.6c1.5,0,2.6-1.2,2.6-2.6
				c0-1.5-1.2-2.7-2.6-2.7C1907.5,194.1,1906.4,195.3,1906.4,196.8z"/>
		</g>
		<g>
			<path fill="none" stroke="#231F20" stroke-width="1.5" d="M1936.3,196.8c0,1.5,1.2,2.7,2.6,2.7c1.5,0,2.7-1.2,2.7-2.7
				c0-1.5-1.2-2.6-2.7-2.6C1937.5,194.1,1936.3,195.3,1936.3,196.8z"/>
		</g>
		<g>
			<path fill="none" stroke="#231F20" stroke-width="1.5" d="M1950.2,178.3c-3,0-3-0.1-6-0.1s-3-0.2-6-0.2c-3,0-3-0.1-6-0.1
				c-3,0-3,0.2-6,0.2c-3,0-3,0.3-6,0.3c-3,0-3-0.3-6-0.3c-3,0-3,0.1-6,0.1c-3,0-3-0.1-6-0.1c-1.8,0-3.5,1.5-3.5,3.6
				c0,2.5,0,2.5,0,5.1c0,2.5,0,2.5,0,5.1s-1.7,3.4,0.1,5.2c2,1.9,3.2,1.3,5.7,0.2c0-2.5,1.9-4.6,4.4-4.6c2.5,0,4.4,2.1,4.4,4.5
				c2.4,1.1,2.7-0.4,5.3-0.4c2.6,0,2.6,0.3,5.2,0.3c2.6,0,2.6,0,5.2,0s2.8,0.9,5.1-0.3c0-2.5,2.1-4.3,4.6-4.3c2.5,0,4.6,1.9,4.6,4.4
				c2.3,1.1,2.5,0.3,5,0.3s3.4,1.7,5.2,0c1.8-1.8-0.2-2.7-0.2-5.2c0-2.5,0-2.5,0-5.1s0.4-2.5,0.4-5.1
				C1953.8,179.5,1952.1,178.3,1950.2,178.3z"/>
		</g>
	</g>
	<g>
		<g>
			<path fill="none" stroke="#231F20" stroke-width="1.5" d="M19,196.3c0,1.7-1.4,3-3,3c-1.7,0-3-1.3-3-3c0-1.7,1.4-3,3-3
				C17.7,193.2,19,194.6,19,196.3z"/>
		</g>
		<g>
			<path fill="none" stroke="#231F20" stroke-width="1.5" d="M48.9,196.3c0,1.7-1.4,3-3,3c-1.7,0-3-1.3-3-3c0-1.7,1.4-3,3-3
				C47.6,193.3,48.9,194.6,48.9,196.3z"/>
		</g>
		<g>
			<path fill="none" stroke="#231F20" stroke-width="1.5" d="M57.2,177.5c-3,0-3,0.1-6,0.1c-3,0-3,0.3-6,0.3c-3,0-3,0-6,0
				c-3,0-3,0-6,0c-3,0-3,0-6,0c-3,0-3,0.1-6,0.1c-3,0-3,0-6,0s-3,0-6,0c-1.8,0-3.4,1.3-3.4,3.3c0,2.5,0.3,2.5,0.3,5.1
				c0,2.5-0.2,2.5-0.2,5.1s-2,3.5-0.1,5.2c2,1.9,3.1,0.9,5.6-0.3c0-2.5,2.1-4.3,4.5-4.3c2.5,0,4.4,2.1,4.4,4.6
				c2.4,1.1,2.7-0.2,5.3-0.2c2.6,0,2.6,0.1,5.2,0.1c2.6,0,2.6,0,5.2,0s2.9,1.2,5.3,0.1c0-2.5,2-4.4,4.5-4.4c2.5,0,4.6,1.7,4.6,4.2
				c2.3,1.1,2.5,0.3,5,0.3c2.5,0,3.1,1.5,4.9-0.3c1.8-1.8,0.1-2.4,0.1-4.9c0-2.5,0.1-2.5,0.1-5.1s-0.2-2.5-0.2-5.1
				C60.3,179,59,177.5,57.2,177.5z"/>
		</g>
	</g>
	<g>
		<g>
			<path fill="none" stroke="#231F20" stroke-width="1.5" d="M752.5,199.5c-2.2,2-3.1,0-6,0c-2.9,0-2.9,0-5.9,0
				c-2.9,0-2.9-0.1-5.9-0.1s-2.9-0.2-5.9-0.2s-2.9,0.1-5.9,0.1c-2.9,0-2.9,0-5.9,0c-2.9,0-2.9,0.1-5.9,0.1c-2.9,0-2.9-0.2-5.9-0.2
				c-2.9,0-2.9-0.1-5.9-0.1c-2.9,0-3.7,2.2-5.8,0.2c-2-1.8,0-2.6,0-5.3c0-2.7,0.1-2.7,0.1-5.4s-2.2-3.7-0.3-5.5c2.2-2,3-0.1,6-0.1
				c2.9,0,2.9,0.2,5.9,0.2c2.9,0,2.9-0.3,5.9-0.3s2.9,0.3,5.9,0.3c2.9,0,2.9,0.1,5.9,0.1c2.9,0,2.9-0.2,5.9-0.2c2.9,0,2.9,0,5.9,0
				c2.9,0,2.9,0,5.9,0c2.9,0,2.9,0.3,5.9,0.3c2.9,0,3.7-2.1,5.9-0.1c2,1.8-0.3,2.7-0.3,5.3c0,2.7-0.5,2.8,0.1,5.4
				C752.8,196.9,754.5,197.7,752.5,199.5z"/>
		</g>
		<g>
			<path fill="none" stroke="#231F20" stroke-width="1.5" d="M682.6,178.4c2.3,1.8,2.7,0.1,5.6,0.1c2.9,0,2.9,0.1,5.8,0.1
				c2.9,0,2.9,0.4,5.8,0.4c2.9,0,2.9-0.3,5.8-0.3c2.9,0,2.9-0.6,5.8-0.6c2.9,0,2.9-0.1,5.8-0.1c2.9,0,2.9,0,5.8,0
				c2.9,0,2.9,0.4,5.8,0.4s2.9-0.2,5.8-0.2c2.9,0,2.9,0.4,5.8,0.4c2.9,0,2.9-0.5,5.8-0.5c2.9,0,2.9,0.8,5.8,0.8
				c2.9,0,2.9-0.7,5.8-0.7s3.3,2,5.5,0.2c1.8-1.4,2.2-3,0.4-4.4c-2.3-1.8-3,0.8-5.9,0.8c-2.9,0-2.9-0.6-5.8-0.6
				c-2.9,0-2.9-0.2-5.8-0.2c-2.9,0-2.9-0.4-5.8-0.4c-2.9,0-2.9,1.2-5.8,1.2c-2.9,0-2.9-0.7-5.8-0.7c-2.9,0-2.9-0.4-5.8-0.4
				c-2.9,0-2.9-0.1-5.8-0.1s-2.9,1.2-5.8,1.2c-2.9,0-2.9-1-5.8-1c-2.9,0-2.9,0.2-5.8,0.2c-2.9,0-2.9,0.7-5.8,0.7
				c-2.9,0-2.9,0.1-5.8,0.1c-2.9,0-3.1-1.7-5.8-0.7C680.2,174.9,680.8,177,682.6,178.4z M682.6,169.2c2.3,1.8,2.7,0.1,5.6,0.1
				c2.9,0,2.9,0.1,5.8,0.1c2.9,0,2.9,0.4,5.8,0.4c2.9,0,2.9-0.3,5.8-0.3c2.9,0,2.9-0.6,5.8-0.6c2.9,0,2.9-0.1,5.8-0.1
				c2.9,0,2.9,0,5.8,0c2.9,0,2.9,0.4,5.8,0.4s2.9-0.2,5.8-0.2c2.9,0,2.9,0.4,5.8,0.4c2.9,0,2.9-0.5,5.8-0.5c2.9,0,2.9,0.8,5.8,0.8
				c2.9,0,2.9-0.7,5.8-0.7s3.3,2,5.5,0.2c1.8-1.4,2.2-3,0.4-4.4c-2.3-1.8-3,0.8-5.9,0.8c-2.9,0-2.9-0.6-5.8-0.6
				c-2.9,0-2.9-0.2-5.8-0.2c-2.9,0-2.9-0.4-5.8-0.4c-2.9,0-2.9,1.2-5.8,1.2c-2.9,0-2.9-0.7-5.8-0.7c-2.9,0-2.9-0.4-5.8-0.4
				c-2.9,0-2.9-0.1-5.8-0.1s-2.9,1.2-5.8,1.2c-2.9,0-2.9-1-5.8-1c-2.9,0-2.9,0.2-5.8,0.2c-2.9,0-2.9,0.7-5.8,0.7
				c-2.9,0-2.9,0.1-5.8,0.1c-2.9,0-3.1-1.7-5.8-0.7C680.2,165.7,680.8,167.8,682.6,169.2z M682.6,160.1c2.3,1.8,2.7,0.1,5.6,0.1
				c2.9,0,2.9,0.1,5.8,0.1c2.9,0,2.9,0.4,5.8,0.4c2.9,0,2.9-0.3,5.8-0.3c2.9,0,2.9-0.6,5.8-0.6c2.9,0,2.9-0.1,5.8-0.1
				c2.9,0,2.9,0,5.8,0c2.9,0,2.9,0.4,5.8,0.4s2.9-0.2,5.8-0.2c2.9,0,2.9,0.4,5.8,0.4c2.9,0,2.9-0.5,5.8-0.5c2.9,0,2.9,0.8,5.8,0.8
				c2.9,0,2.9-0.7,5.8-0.7s3.3,2,5.5,0.2c1.8-1.4,2.2-3,0.4-4.4c-2.3-1.8-3,0.8-5.9,0.8c-2.9,0-2.9-0.6-5.8-0.6
				c-2.9,0-2.9-0.2-5.8-0.2c-2.9,0-2.9-0.4-5.8-0.4c-2.9,0-2.9,1.2-5.8,1.2c-2.9,0-2.9-0.7-5.8-0.7c-2.9,0-2.9-0.4-5.8-0.4
				c-2.9,0-2.9-0.1-5.8-0.1s-2.9,1.2-5.8,1.2c-2.9,0-2.9-1-5.8-1c-2.9,0-2.9,0.2-5.8,0.2c-2.9,0-2.9,0.7-5.8,0.7
				c-2.9,0-2.9,0.1-5.8,0.1c-2.9,0-3.1-1.7-5.8-0.7C680.2,156.6,680.8,158.6,682.6,160.1z M682.6,150.9c2.3,1.8,2.7,0.1,5.6,0.1
				c2.9,0,2.9,0.1,5.8,0.1c2.9,0,2.9,0.4,5.8,0.4c2.9,0,2.9-0.3,5.8-0.3c2.9,0,2.9-0.6,5.8-0.6c2.9,0,2.9-0.1,5.8-0.1
				c2.9,0,2.9,0,5.8,0c2.9,0,2.9,0.4,5.8,0.4s2.9-0.2,5.8-0.2c2.9,0,2.9,0.4,5.8,0.4c2.9,0,2.9-0.5,5.8-0.5c2.9,0,2.9,0.8,5.8,0.8
				c2.9,0,2.9-0.7,5.8-0.7s3.3,2,5.5,0.2c1.8-1.4,2.2-3,0.4-4.4c-2.3-1.8-3,0.8-5.9,0.8c-2.9,0-2.9-0.6-5.8-0.6
				c-2.9,0-2.9-0.2-5.8-0.2c-2.9,0-2.9-0.4-5.8-0.4c-2.9,0-2.9,1.2-5.8,1.2c-2.9,0-2.9-0.7-5.8-0.7c-2.9,0-2.9-0.4-5.8-0.4
				c-2.9,0-2.9-0.1-5.8-0.1s-2.9,1.2-5.8,1.2c-2.9,0-2.9-1-5.8-1c-2.9,0-2.9,0.2-5.8,0.2c-2.9,0-2.9,0.7-5.8,0.7
				c-2.9,0-2.9,0.1-5.8,0.1c-2.9,0-3.1-1.7-5.8-0.7C680.2,147.4,680.8,149.5,682.6,150.9z M682.6,141.7c2.3,1.8,2.7,0.1,5.6,0.1
				c2.9,0,2.9,0.1,5.8,0.1c2.9,0,2.9,0.4,5.8,0.4c2.9,0,2.9-0.3,5.8-0.3c2.9,0,2.9-0.6,5.8-0.6c2.9,0,2.9-0.1,5.8-0.1
				c2.9,0,2.9,0,5.8,0c2.9,0,2.9,0.4,5.8,0.4s2.9-0.2,5.8-0.2c2.9,0,2.9,0.4,5.8,0.4c2.9,0,2.9-0.5,5.8-0.5c2.9,0,2.9,0.8,5.8,0.8
				c2.9,0,2.9-0.7,5.8-0.7s3.3,2,5.5,0.2c1.8-1.4,2.2-3,0.4-4.4c-2.3-1.8-3,0.8-5.9,0.8c-2.9,0-2.9-0.6-5.8-0.6
				c-2.9,0-2.9-0.2-5.8-0.2c-2.9,0-2.9-0.4-5.8-0.4c-2.9,0-2.9,1.2-5.8,1.2c-2.9,0-2.9-0.7-5.8-0.7c-2.9,0-2.9-0.4-5.8-0.4
				c-2.9,0-2.9-0.1-5.8-0.1s-2.9,1.2-5.8,1.2c-2.9,0-2.9-1-5.8-1c-2.9,0-2.9,0.2-5.8,0.2c-2.9,0-2.9,0.7-5.8,0.7
				c-2.9,0-2.9,0.1-5.8,0.1c-2.9,0-3.1-1.7-5.8-0.7C680.2,138.2,680.8,140.3,682.6,141.7z M682.6,132.5c2.3,1.8,2.7,0.1,5.6,0.1
				c2.9,0,2.9,0.1,5.8,0.1c2.9,0,2.9,0.4,5.8,0.4c2.9,0,2.9-0.3,5.8-0.3c2.9,0,2.9-0.6,5.8-0.6c2.9,0,2.9-0.1,5.8-0.1
				c2.9,0,2.9,0,5.8,0c2.9,0,2.9,0.4,5.8,0.4s2.9-0.2,5.8-0.2c2.9,0,2.9,0.4,5.8,0.4c2.9,0,2.9-0.5,5.8-0.5c2.9,0,2.9,0.8,5.8,0.8
				c2.9,0,2.9-0.7,5.8-0.7s3.3,2,5.5,0.2c1.8-1.4,2.2-3,0.4-4.4c-2.3-1.8-3,0.8-5.9,0.8c-2.9,0-2.9-0.6-5.8-0.6
				c-2.9,0-2.9-0.2-5.8-0.2c-2.9,0-2.9-0.4-5.8-0.4c-2.9,0-2.9,1.2-5.8,1.2c-2.9,0-2.9-0.7-5.8-0.7c-2.9,0-2.9-0.4-5.8-0.4
				c-2.9,0-2.9-0.1-5.8-0.1s-2.9,1.2-5.8,1.2c-2.9,0-2.9-1-5.8-1c-2.9,0-2.9,0.2-5.8,0.2c-2.9,0-2.9,0.7-5.8,0.7
				c-2.9,0-2.9,0.1-5.8,0.1c-2.9,0-3.1-1.7-5.8-0.7C680.2,129,680.8,131.1,682.6,132.5z M682.6,123.3c2.3,1.8,2.7,0.1,5.6,0.1
				c2.9,0,2.9,0.1,5.8,0.1c2.9,0,2.9,0.4,5.8,0.4c2.9,0,2.9-0.3,5.8-0.3c2.9,0,2.9-0.6,5.8-0.6c2.9,0,2.9-0.1,5.8-0.1
				c2.9,0,2.9,0,5.8,0c2.9,0,2.9,0.4,5.8,0.4s2.9-0.2,5.8-0.2c2.9,0,2.9,0.4,5.8,0.4c2.9,0,2.9-0.5,5.8-0.5c2.9,0,2.9,0.8,5.8,0.8
				c2.9,0,2.9-0.7,5.8-0.7s3.3,2,5.5,0.2c1.8-1.4,2.2-3,0.4-4.4c-2.3-1.8-3,0.8-5.9,0.8c-2.9,0-2.9-0.6-5.8-0.6
				c-2.9,0-2.9-0.2-5.8-0.2c-2.9,0-2.9-0.4-5.8-0.4c-2.9,0-2.9,1.2-5.8,1.2c-2.9,0-2.9-0.7-5.8-0.7c-2.9,0-2.9-0.4-5.8-0.4
				c-2.9,0-2.9-0.1-5.8-0.1s-2.9,1.2-5.8,1.2c-2.9,0-2.9-1-5.8-1c-2.9,0-2.9,0.2-5.8,0.2c-2.9,0-2.9,0.7-5.8,0.7
				c-2.9,0-2.9,0.1-5.8,0.1c-2.9,0-3.1-1.7-5.8-0.7C680.2,119.8,680.8,121.9,682.6,123.3z M682.6,114.2c2.3,1.8,2.7,0.1,5.6,0.1
				c2.9,0,2.9,0.1,5.8,0.1c2.9,0,2.9,0.4,5.8,0.4c2.9,0,2.9-0.3,5.8-0.3c2.9,0,2.9-0.6,5.8-0.6c2.9,0,2.9-0.1,5.8-0.1
				c2.9,0,2.9,0,5.8,0c2.9,0,2.9,0.4,5.8,0.4s2.9-0.2,5.8-0.2c2.9,0,2.9,0.4,5.8,0.4c2.9,0,2.9-0.5,5.8-0.5c2.9,0,2.9,0.8,5.8,0.8
				c2.9,0,2.9-0.7,5.8-0.7s3.3,2,5.5,0.2c1.8-1.4,2.2-3,0.4-4.4c-2.3-1.8-3,0.8-5.9,0.8c-2.9,0-2.9-0.6-5.8-0.6
				c-2.9,0-2.9-0.2-5.8-0.2c-2.9,0-2.9-0.4-5.8-0.4c-2.9,0-2.9,1.2-5.8,1.2c-2.9,0-2.9-0.7-5.8-0.7c-2.9,0-2.9-0.4-5.8-0.4
				c-2.9,0-2.9-0.1-5.8-0.1s-2.9,1.2-5.8,1.2c-2.9,0-2.9-1-5.8-1c-2.9,0-2.9,0.2-5.8,0.2c-2.9,0-2.9,0.7-5.8,0.7
				c-2.9,0-2.9,0.1-5.8,0.1c-2.9,0-3.1-1.7-5.8-0.7C680.2,110.7,680.8,112.7,682.6,114.2z M682.6,105c2.3,1.8,2.7,0.1,5.6,0.1
				c2.9,0,2.9,0.1,5.8,0.1c2.9,0,2.9,0.4,5.8,0.4c2.9,0,2.9-0.3,5.8-0.3c2.9,0,2.9-0.6,5.8-0.6c2.9,0,2.9-0.1,5.8-0.1
				c2.9,0,2.9,0,5.8,0c2.9,0,2.9,0.4,5.8,0.4s2.9-0.2,5.8-0.2c2.9,0,2.9,0.4,5.8,0.4c2.9,0,2.9-0.5,5.8-0.5c2.9,0,2.9,0.8,5.8,0.8
				c2.9,0,2.9-0.7,5.8-0.7s3.3,2,5.5,0.2c1.8-1.4,2.2-3,0.4-4.4c-2.3-1.8-3,0.8-5.9,0.8c-2.9,0-2.9-0.6-5.8-0.6
				c-2.9,0-2.9-0.2-5.8-0.2c-2.9,0-2.9-0.4-5.8-0.4c-2.9,0-2.9,1.2-5.8,1.2c-2.9,0-2.9-0.7-5.8-0.7c-2.9,0-2.9-0.4-5.8-0.4
				c-2.9,0-2.9-0.1-5.8-0.1s-2.9,1.2-5.8,1.2c-2.9,0-2.9-1-5.8-1c-2.9,0-2.9,0.2-5.8,0.2c-2.9,0-2.9,0.7-5.8,0.7
				c-2.9,0-2.9,0.1-5.8,0.1c-2.9,0-3.1-1.7-5.8-0.7C680.2,101.5,680.8,103.6,682.6,105z M682.6,95.8c2.3,1.8,2.7,0.1,5.6,0.1
				c2.9,0,2.9,0.1,5.8,0.1c2.9,0,2.9,0.4,5.8,0.4c2.9,0,2.9-0.3,5.8-0.3c2.9,0,2.9-0.6,5.8-0.6c2.9,0,2.9-0.1,5.8-0.1
				c2.9,0,2.9,0,5.8,0c2.9,0,2.9,0.4,5.8,0.4s2.9-0.2,5.8-0.2c2.9,0,2.9,0.4,5.8,0.4c2.9,0,2.9-0.5,5.8-0.5c2.9,0,2.9,0.8,5.8,0.8
				c2.9,0,2.9-0.7,5.8-0.7s3.3,2,5.5,0.2c1.8-1.4,2.2-3,0.4-4.4c-2.3-1.8-3,0.8-5.9,0.8c-2.9,0-2.9-0.6-5.8-0.6
				c-2.9,0-2.9-0.2-5.8-0.2c-2.9,0-2.9-0.4-5.8-0.4c-2.9,0-2.9,1.2-5.8,1.2c-2.9,0-2.9-0.7-5.8-0.7c-2.9,0-2.9-0.4-5.8-0.4
				c-2.9,0-2.9-0.1-5.8-0.1s-2.9,1.2-5.8,1.2c-2.9,0-2.9-1-5.8-1c-2.9,0-2.9,0.2-5.8,0.2c-2.9,0-2.9,0.7-5.8,0.7
				c-2.9,0-2.9,0.1-5.8,0.1c-2.9,0-3.1-1.7-5.8-0.7C680.2,92.3,680.8,94.4,682.6,95.8z M682.6,86.6c2.3,1.8,2.7,0.1,5.6,0.1
				c2.9,0,2.9,0.1,5.8,0.1c2.9,0,2.9,0.4,5.8,0.4c2.9,0,2.9-0.3,5.8-0.3c2.9,0,2.9-0.6,5.8-0.6c2.9,0,2.9-0.1,5.8-0.1
				c2.9,0,2.9,0,5.8,0c2.9,0,2.9,0.4,5.8,0.4s2.9-0.2,5.8-0.2c2.9,0,2.9,0.4,5.8,0.4c2.9,0,2.9-0.5,5.8-0.5c2.9,0,2.9,0.8,5.8,0.8
				c2.9,0,2.9-0.7,5.8-0.7s3.3,2,5.5,0.2c1.8-1.4,2.2-3,0.4-4.4c-2.3-1.8-3,0.8-5.9,0.8c-2.9,0-2.9-0.6-5.8-0.6
				c-2.9,0-2.9-0.2-5.8-0.2c-2.9,0-2.9-0.4-5.8-0.4c-2.9,0-2.9,1.2-5.8,1.2c-2.9,0-2.9-0.7-5.8-0.7c-2.9,0-2.9-0.4-5.8-0.4
				c-2.9,0-2.9-0.1-5.8-0.1s-2.9,1.2-5.8,1.2c-2.9,0-2.9-1-5.8-1c-2.9,0-2.9,0.2-5.8,0.2c-2.9,0-2.9,0.7-5.8,0.7
				c-2.9,0-2.9,0.1-5.8,0.1c-2.9,0-3.1-1.7-5.8-0.7C680.2,83.1,680.8,85.2,682.6,86.6z M682.6,77.4c2.3,1.8,2.7,0.1,5.6,0.1
				c2.9,0,2.9,0.1,5.8,0.1c2.9,0,2.9,0.4,5.8,0.4c2.9,0,2.9-0.3,5.8-0.3c2.9,0,2.9-0.6,5.8-0.6c2.9,0,2.9-0.1,5.8-0.1
				c2.9,0,2.9,0,5.8,0c2.9,0,2.9,0.4,5.8,0.4s2.9-0.2,5.8-0.2c2.9,0,2.9,0.4,5.8,0.4c2.9,0,2.9-0.5,5.8-0.5c2.9,0,2.9,0.8,5.8,0.8
				c2.9,0,2.9-0.7,5.8-0.7s3.3,2,5.5,0.2c1.8-1.4,2.2-3,0.4-4.4c-2.3-1.8-3,0.8-5.9,0.8c-2.9,0-2.9-0.6-5.8-0.6
				c-2.9,0-2.9-0.2-5.8-0.2c-2.9,0-2.9-0.4-5.8-0.4c-2.9,0-2.9,1.2-5.8,1.2c-2.9,0-2.9-0.7-5.8-0.7c-2.9,0-2.9-0.4-5.8-0.4
				c-2.9,0-2.9-0.1-5.8-0.1s-2.9,1.2-5.8,1.2c-2.9,0-2.9-1-5.8-1c-2.9,0-2.9,0.2-5.8,0.2c-2.9,0-2.9,0.7-5.8,0.7
				c-2.9,0-2.9,0.1-5.8,0.1c-2.9,0-3.1-1.7-5.8-0.7C680.2,73.9,680.8,76,682.6,77.4z M682.6,68.3c2.3,1.8,2.7,0.1,5.6,0.1
				c2.9,0,2.9,0.1,5.8,0.1c2.9,0,2.9,0.4,5.8,0.4c2.9,0,2.9-0.3,5.8-0.3c2.9,0,2.9-0.6,5.8-0.6c2.9,0,2.9-0.1,5.8-0.1
				c2.9,0,2.9,0,5.8,0c2.9,0,2.9,0.4,5.8,0.4s2.9-0.2,5.8-0.2c2.9,0,2.9,0.4,5.8,0.4c2.9,0,2.9-0.5,5.8-0.5c2.9,0,2.9,0.8,5.8,0.8
				c2.9,0,2.9-0.7,5.8-0.7s3.3,2,5.5,0.2c1.8-1.4,2.2-3,0.4-4.4c-2.3-1.8-3,0.8-5.9,0.8c-2.9,0-2.9-0.6-5.8-0.6
				c-2.9,0-2.9-0.2-5.8-0.2c-2.9,0-2.9-0.4-5.8-0.4c-2.9,0-2.9,1.2-5.8,1.2c-2.9,0-2.9-0.7-5.8-0.7c-2.9,0-2.9-0.4-5.8-0.4
				c-2.9,0-2.9-0.1-5.8-0.1s-2.9,1.2-5.8,1.2c-2.9,0-2.9-1-5.8-1c-2.9,0-2.9,0.2-5.8,0.2c-2.9,0-2.9,0.7-5.8,0.7
				c-2.9,0-2.9,0.1-5.8,0.1c-2.9,0-3.1-1.7-5.8-0.7C680.2,64.8,680.8,66.8,682.6,68.3z M682.6,50.4c-1.8,1.4,0,2.1,0,4.4
				s-1.9,3.1-0.1,4.5c2.3,1.8,2.8,0.4,5.7,0.4c2.9,0,2.9-0.3,5.8-0.3c2.9,0,2.9-0.6,5.8-0.6c2.9,0,2.9-0.1,5.8-0.1
				c2.9,0,2.9,0,5.8,0c2.9,0,2.9,0.4,5.8,0.4c2.9,0,2.9-0.2,5.8-0.2c2.9,0,2.9,0.4,5.8,0.4s2.9-0.5,5.8-0.5c2.9,0,2.9,0.8,5.8,0.8
				c2.9,0,2.9-0.7,5.8-0.7c2.9,0,2.9,0.1,5.8,0.1c2.9,0,2.9,0.6,5.8,0.6s3.1,1.1,5.4-0.7c1.8-1.4,0.4-1.8,0.4-4.1s1.9-3.3,0.1-4.8
				c-2.3-1.8-3-0.5-5.9-0.5c-2.9,0-2.9,1.2-5.8,1.2c-2.9,0-2.9-0.7-5.8-0.7c-2.9,0-2.9-0.4-5.8-0.4c-2.9,0-2.9-0.1-5.8-0.1
				c-2.9,0-2.9,1.2-5.8,1.2c-2.9,0-2.9-1-5.8-1c-2.9,0-2.9,0.2-5.8,0.2s-2.9,0.7-5.8,0.7c-2.9,0-2.9,0.1-5.8,0.1
				c-2.9,0-2.9-0.7-5.8-0.7c-2.9,0-2.9,0.6-5.8,0.6c-2.9,0-3,0.4-5.9-0.1C685.3,50.1,684.9,48.6,682.6,50.4z"/>
		</g>
	</g>
	<g>
		<g>
			<path fill="none" stroke="#231F20" stroke-width="1.5" d="M783.2,148.9c0.7,1.2,1.7-1,2.3,0.3c1.3,2.9,0.9,3.1,0.9,6.2
				c0,3.1-1.4,3.1-1.4,6.3c0,3.1,1.5,3.1,1.5,6.3c0,3.1-1.4,3.1-1.4,6.3c0,3.1,0.2,3.1,0.2,6.3c0,3.1,1.1,3.1,1.1,6.3
				c0,3.1-1.2,3.1-1.2,6.3c0,3.1-2,4.2,0.1,6.5c2.1,2.2,3.3-0.6,6.3-0.6c3.1,0,3.1-0.3,6.1-0.3c3.1,0,3.1,0.8,6.1,0.8
				c3.1,0,3.1-0.5,6.1-0.5c3.1,0,3.1,0.7,6.1,0.7c3.1,0,3.1,0.7,6.1,0.7c3.1,0,3.1-1.3,6.1-1.3c3.1,0,3.1-0.6,6.1-0.6
				s3.1,1.2,6.1,1.2c3.1,0,3.1,0.4,6.1,0.4c3.1,0,3.1,0.2,6.1,0.2c3.1,0,3.1-0.9,6.1-0.9c3.1,0,3.1-0.2,6.1-0.2
				c3.1,0,3.1,0.7,6.1,0.7c3.1,0,3.1-1.6,6.1-1.6c3,0,3,1.5,6,1.5c3,0,3,0.1,6,0.1c3.1,0,3.1,0.3,6.1,0.3c3.1,0,3.1-1.8,6.1-1.8
				c3.1,0,3.1,0.4,6.1,0.4c3.1,0,3.1-0.1,6.1-0.1c3.1,0,3.1,0.1,6.1,0.1c3.1,0,3.1,0.2,6.1,0.2c3.1,0,3.1,0.2,6.1,0.2
				c3.1,0,3.1-0.3,6.1-0.3c3.1,0,3.1-0.5,6.1-0.5c3.1,0,3.1,0.9,6.1,0.9c3.1,0,3.1,0,6.1,0c3.1,0,3.1-0.2,6.1-0.2c3.1,0,3.1,1,6.1,1
				c3.1,0,3.1-0.7,6.1-0.7c3.1,0,4.2,2.3,6.3,0.1c2.2-2.2,0.4-3.3,0.4-6.4c0-3.1-1-3.1-1-6.3c0-3.1,0.5-3.1,0.5-6.3
				c0-3.1,0.6-3.1,0.6-6.3c0-3.1-0.7-3.1-0.7-6.3c0-3.1-1-3.1-1-6.3c0-3.1,1.9-3.1,1.9-6.3c0-3.1-2.2-3.4-0.9-6.3
				c0.6-1.3,1.8,1,2.5-0.2c1.2-1.9,0.8-2.1,0.8-4.4s1.3-3.2-0.5-4.5c-2.3-1.8-2.9,0.1-5.9,0.1c-3,0-3-0.4-5.9-0.4
				c-3,0-3-0.1-5.9-0.1c-3,0-3-0.3-5.9-0.3c-3,0-3,1.8-5.9,1.8c-3,0-3-0.6-5.9-0.6c-3,0-3,0.4-5.9,0.4c-3,0-3-0.2-5.9-0.2
				c-3,0-3,0.2-5.9,0.2c-3,0-3-0.2-5.9-0.2c-3,0-3-0.3-5.9-0.3c-3,0-3-0.3-5.9-0.3c-3,0-3,0.6-5.9,0.6c-3,0-3-1-5.9-1
				c-3,0-3,1.1-5.9,1.1c-3,0-3-0.7-5.9-0.7c-3,0-3,0.6-5.9,0.6c-3,0-3,0.1-5.9,0.1c-3,0-3-0.5-5.9-0.5c-3,0-3-0.1-5.9-0.1
				c-3,0-3,0.6-5.9,0.6c-3,0-3-1-5.9-1c-3,0-3,1.3-5.9,1.3c-3,0-3-0.5-5.9-0.5c-3,0-3-0.5-5.9-0.5c-3,0-3,0.3-5.9,0.3
				c-3,0-3-0.6-5.9-0.6c-3,0-3-0.4-5.9-0.4c-3,0-3,1.3-5.9,1.3c-3,0-3-0.2-5.9-0.2c-3,0-3,0.3-5.9,0.3c-3,0-3-0.2-5.9-0.2
				c-3,0-3-0.3-5.9-0.3s-3.9-2.2-6.2-0.4c-1.8,1.4,1.5,2.8,1.2,5.1C783.4,146.9,782,147,783.2,148.9z"/>
		</g>
		<g>
			<path fill="none" stroke="#231F20" stroke-width="1.5" d="M815.6,45c-0.5-3,0.2-3.1,0.2-6.1s2.1-4-0.2-6
				c-2.4-2.2-3.2-0.2-6.5-0.2s-4.2-2.1-6.6,0.1c-2.2,2.1-0.1,3.1-0.1,6.1s0.6,3.1,0.1,6.1c-0.4,2.5-0.9,2.4-1.8,4.7
				c-0.9,2.4-0.9,2.4-1.8,4.7c-0.9,2.4-3.5,2.8-1.9,4.7c2,2.2,3,0,6,0c3,0,3-0.1,6-0.1c3,0,3,0.1,6,0.1s4.1,2.3,6.1,0
				c1.7-1.9-1-2.4-1.9-4.7c-0.9-2.4-0.8-2.4-1.9-4.7C816.3,47.5,816,47.5,815.6,45z"/>
		</g>
		<g>
			<path fill="none" stroke="#231F20" stroke-width="1.5" d="M809.2,0.8c-3.1,0-0.7,3.1-1.5,6.1c-0.8,3-1.1,2.9-1.9,5.9
				c-0.8,3-0.5,3-1.4,6c-0.8,3-0.9,3-1.7,5.9c-0.8,3-3.4,3.3-1.8,5.9c1.5,2.3,2.7,0.1,5.5,0.1c2.7,0,2.7-0.1,5.4-0.1
				c2.7,0,4,2.3,5.5,0c1.7-2.6-0.8-3-1.6-6c-0.8-3-0.8-3-1.6-5.9c-0.8-3-0.9-2.9-1.7-5.9c-0.8-3-1.6-2.9-1.6-5.9
				C810.8,3.2,812.3,0.8,809.2,0.8z"/>
		</g>
		<g>
			<path fill="none" stroke="#231F20" stroke-width="1.5" d="M954.6,84.9c-3.1,0-0.9,2.9-1.9,5.9c-0.9,2.9-0.8,3-1.7,5.9
				c-0.9,2.9-3.6,3.3-1.9,5.9c1.5,2.3,2.8-0.1,5.5-0.1c2.8,0,4.1,2.4,5.5,0.1c1.6-2.6-0.9-3-1.8-5.9c-0.9-2.9-1.7-2.8-1.8-5.8
				C956.3,87.3,957.6,84.9,954.6,84.9z"/>
		</g>
		<g>
			<path fill="#231F20" d="M819.9,60c0.6,0,1.1,0.2,1.8,0.9c2.1,2.2-0.1,3.6-0.1,6.6c0,3-0.1,3-0.1,6.1c0,3-1.1,3-1.1,6.1
				c0,3,1.7,3,1.7,6.1c0,3-0.5,3-0.5,6.1c0,3,0.1,3,0.1,6.1c0,3-0.6,3-0.6,6.1c0,3-1.5,3.6,0.6,5.8c0.5,0.5,0.9,0.6,1.3,0.6
				c1,0,1.9-1,2.9-1c0.4,0,0.8,0.2,1.3,0.6c2,1.8-2.2,3.8-0.2,5.7c0.9,0.9,1.7,1.3,2.5,1.3c1,0,2-0.7,3.2-1.8c2-1.8-1.1-2.7,0.8-4.5
				c1.2-1.2,2.2-1.9,3.1-1.9c0.7,0,1.4,0.4,2.3,1.2c2,1.8-2.7,4.3-0.7,6.2c0.8,0.7,1.5,1,2.3,1c1.2,0,2.4-0.9,3.8-2.2
				c2-1.8-2.2-3.8-0.2-5.6c1-0.9,2-1.3,3.1-1.3c1.3,0,2.6,0.6,3.7,1.7c2,1.8-2.3,3.9-0.3,5.8c1,0.9,1.9,1.4,2.7,1.4
				c0.9,0,1.8-0.5,3-1.6c2-1.8-1.7-3.2,0.3-5.1c1.2-1.1,2.3-1.8,3.5-1.8c0.8,0,1.7,0.4,2.6,1.2c2,1.8-3,4.6-1,6.5
				c1.1,1,2.2,1.4,3.4,1.4c1.2,0,2.4-0.5,3.6-1.6c2-1.8-2.1-3.7-0.1-5.5c1.1-1.1,2-1.6,2.9-1.6c0.8,0,1.5,0.4,2.5,1.3
				c2,1.8-1.3,2.9,0.7,4.7c1.1,1,1.7,1.5,2.3,1.5c0.6,0,1.2-0.5,2.4-1.5c2-1.8-1.9-3.4,0.1-5.3c1.1-1,2.3-1.5,3.4-1.5
				c1.2,0,2.4,0.5,3.5,1.5c2,1.8-2.3,3.9-0.3,5.7c1.3,1.2,2.5,2,3.6,2c0.8,0,1.6-0.3,2.5-1.1c2-1.8-1.8-3.4,0.2-5.2
				c1.3-1.2,2.3-2.1,3.4-2.1c0.6,0,1.3,0.3,2.1,1.1c2,1.8-2.3,3.9-0.3,5.7c1,0.9,1.8,1.3,2.5,1.3c0.9,0,1.8-0.6,3-1.7
				c2-1.8-2.2-3.8-0.2-5.6c0.9-0.9,1.9-1.2,2.8-1.2c1.2,0,2.5,0.7,3.7,1.8c2,1.8-1.8,3.3,0.2,5.1c1,0.9,1.7,1.3,2.3,1.3
				c0.7,0,1.4-0.6,2.6-1.7c2-1.8-1.9-3.4,0.1-5.3c0.9-0.9,1.9-1.3,2.8-1.3c1.2,0,2.4,0.6,3.6,1.8c2,1.8-1.4,2.9,0.6,4.7
				c1.1,1,1.7,1.5,2.3,1.5c0.6,0,1.2-0.5,2.3-1.5c2-1.8-2-3.6,0-5.4c0.8-0.8,1.7-1.1,2.5-1.1c1.3,0,2.6,0.8,3.9,2
				c2,1.8-1.9,3.5,0.1,5.3c1,0.9,1.8,1.3,2.6,1.3c0.9,0,1.9-0.6,3-1.7c2-1.8-1.5-3,0.5-4.9c1-0.9,1.7-1.3,2.4-1.3
				c0.8,0,1.6,0.6,2.8,1.6c2,1.8-1.2,2.8,0.8,4.6c1.3,1.2,2.4,1.9,3.5,1.9c0.8,0,1.6-0.4,2.5-1.2c2-1.8-0.8-3.1-0.8-5.7
				c0-2.7-1.8-3.7,0-5.7c0.5-0.6,1-0.8,1.5-0.8c1,0,2.1,0.8,3.7,0.8c1.3,0,2.1-0.4,2.7-0.4c0.5,0,1,0.2,1.6,1
				c1.8,2.3-0.4,2.6-0.4,5.6c0,3-0.1,3-0.1,5.9c0,3-0.4,3.3,1.2,5.7c1.6,2.5,2,2.5,4.8,3.3c2.8,0.8,2.6,1.1,5.2,2.3
				c2.7,1.2,2.6,1.2,5.3,2.4c2.7,1.2,2.7,1.1,5.4,2.3c1,0.4,1.7,0.5,2.4,0.5c0.3,0,0.5,0,0.7,0c0.9,0,1.6,0.1,2.6,1.2
				c1.1,1.2,0.9,2-0.5,2.8c-1.4,0.7-2,0.9-2.8,0.9c-0.7,0-1.5-0.2-2.9-0.2c-3,0-3,0.1-6,0.1c-3,0-3-0.3-6-0.3c-3,0-3,0.5-6,0.5
				c-3,0-3,0.3-6,0.3c-3,0-3-0.7-6-0.7c-3,0-3-1-6-1c-3,0-3,0.6-6,0.6c-3,0-3,0.2-6,0.2c-3,0-3-0.2-6-0.2c-3,0-3,0.8-6,0.8
				c-3,0-3-1-6-1c-3,0-3,0.7-6,0.7c-3,0-3-0.1-6-0.1c-3,0-3,0-6,0c-3,0-3,0.9-6,0.9c-3,0-3-0.4-6-0.4c-3,0-3,0.1-6,0.1
				c-3,0-3-0.9-6-0.9c-3,0-3,1.1-6,1.1c-3,0-3-0.6-6-0.6c-3,0-3-0.8-6-0.8c-3,0-3,0.8-6,0.8c-3,0-3-0.9-6-0.9c-3,0-3,0.4-6,0.4
				c-3,0-3-0.3-6-0.3c-3,0-3-0.3-6-0.3c-3,0-3,0.9-6,0.9c-3,0-3,0.3-6,0.3c-3,0-3-0.1-6-0.1c-3,0-3-1.1-6-1.1c-3,0-3,0.4-6,0.4
				c-3,0-3,1.3-6,1.3c-0.5,0-1,0-1.3,0c-1.8,0-2.2-0.1-4.4-1.3c-1.4-0.8-2.1-2.3-1-3.4c2-2.1,3-1.4,5.7-2.6c0.8-0.4,1.5-0.5,2.1-0.5
				c0.7,0,1.3,0.1,2,0.1c0.6,0,1.2-0.1,2.1-0.5c2.7-1.2,3.2-0.8,4.8-3.3c1.6-2.5,0.3-2.9,0.3-5.9c0-3,0.8-3,0.8-6c0-3-0.6-3-0.6-6
				c0-3,0-3,0-6c0-3,0.5-3,0.5-6c0-3-1.4-3-1.4-6s0.5-3,0.5-6c0-3,0.4-3,0.4-6c0-3,0.4-3,0.4-6c0-3-0.6-3-0.6-6c0-3-2.2-3.9,0-6
				c0.6-0.6,1.1-0.8,1.6-0.8c1.2,0,2.3,1.4,4.5,1.4c3,0,3-0.2,6.1-0.2c3,0,3-0.5,6.1-0.5C817.2,61.3,818.5,60,819.9,60 M808.9,77.6
				c2.2,0,4.6-1.5,4.6-3.7c0-2.2-2.3-4.9-4.6-4.9c-2.2,0-5,2.6-5,4.9C804,76.1,806.7,77.6,808.9,77.6 M819.9,58.2
				c-1,0-1.8,0.3-2.6,0.7c-0.8,0.3-1.5,0.6-2.3,0.6c-1.6,0-2.5,0.1-3.3,0.2c-0.7,0.1-1.4,0.2-2.8,0.2c-1.6,0-2.4,0-3.1,0.1
				c-0.8,0-1.5,0.1-2.9,0.1c-0.8,0-1.4-0.3-2.1-0.6c-0.7-0.3-1.5-0.7-2.4-0.7c-1,0-1.9,0.4-2.8,1.3c-2.1,2.1-1.4,3.9-1,5.2
				c0.2,0.7,0.5,1.3,0.5,2.1c0,1.7,0.2,2.6,0.4,3.4c0.2,0.7,0.3,1.3,0.3,2.6c0,1.4-0.1,2.1-0.2,2.8c-0.1,0.8-0.2,1.6-0.2,3.2
				c0,1.4-0.1,2.1-0.2,2.8c-0.1,0.8-0.2,1.6-0.2,3.2c0,1.4-0.1,2-0.2,2.7c-0.1,0.8-0.3,1.6-0.3,3.3c0,1.9,0.5,2.9,0.9,3.7
				c0.3,0.7,0.5,1.1,0.5,2.2c0,1.3-0.1,2-0.2,2.7c-0.1,0.8-0.3,1.7-0.3,3.3c0,1.5,0,2.3,0,3c0,0.7,0,1.5,0,3c0,1.7,0.2,2.5,0.3,3.3
				c0.1,0.7,0.3,1.3,0.3,2.7c0,1.3-0.2,1.9-0.3,2.6c-0.2,0.8-0.4,1.7-0.4,3.4c0,1.3,0.2,2.2,0.3,2.8c0.2,0.9,0.3,1.1-0.4,2.1
				c-0.9,1.4-1.1,1.5-2.3,2c-0.5,0.2-1,0.4-1.7,0.7c-0.6,0.3-1,0.3-1.3,0.3c-0.2,0-0.5,0-0.8-0.1c-0.3,0-0.7-0.1-1.2-0.1
				c-0.9,0-1.8,0.2-2.8,0.6c-0.8,0.4-1.5,0.5-2.1,0.7c-1.2,0.3-2.5,0.6-4.1,2.3c-0.8,0.9-1.2,1.9-1,3c0.2,1.3,1.1,2.4,2.4,3.1
				c2.4,1.3,3.1,1.5,5.3,1.5l0.6,0l0.8,0c1.9,0,2.9-0.4,3.7-0.8c0.7-0.3,1.2-0.5,2.3-0.5c1.6,0,2.4-0.1,3.2-0.2
				c0.7-0.1,1.4-0.2,2.8-0.2c1.2,0,1.7,0.2,2.4,0.4c0.8,0.3,1.8,0.7,3.6,0.7c1.5,0,2.2,0,3,0.1c0.8,0,1.5,0.1,3.1,0.1
				c1.6,0,2.4-0.1,3.2-0.2c0.7-0.1,1.4-0.1,2.8-0.1c1.8,0,2.7-0.3,3.5-0.6c0.7-0.2,1.3-0.4,2.5-0.4c1.4,0,2.1,0.1,2.8,0.1
				c0.8,0.1,1.6,0.2,3.2,0.2c1.4,0,2.1,0.1,2.9,0.1c0.8,0.1,1.6,0.1,3.2,0.1c1.6,0,2.4-0.1,3.2-0.2c0.7-0.1,1.4-0.2,2.8-0.2
				c1.3,0,1.8,0.2,2.5,0.4c0.8,0.2,1.7,0.5,3.5,0.5c1.7,0,2.7-0.2,3.5-0.5c0.7-0.2,1.3-0.3,2.6-0.3c1.3,0,1.9,0.2,2.5,0.4
				c0.8,0.2,1.7,0.5,3.5,0.5c1.3,0,2,0.1,2.7,0.3c0.8,0.2,1.7,0.3,3.3,0.3c1.8,0,2.8-0.3,3.6-0.6c0.7-0.2,1.2-0.4,2.4-0.4
				c1.2,0,1.8,0.2,2.5,0.4c0.8,0.3,1.8,0.5,3.5,0.5c1.5,0,2.3,0,3,0c0.7,0,1.5,0,3,0c1.4,0,2.1,0.1,2.8,0.2c0.8,0.1,1.6,0.2,3.3,0.2
				c1.8,0,2.7-0.3,3.5-0.6c0.7-0.2,1.3-0.4,2.5-0.4c1.5,0,2.3,0,3,0c0.7,0,1.5,0,3,0c1.5,0,2.2,0,3,0.1c0.8,0,1.5,0.1,3.1,0.1
				c1.7,0,2.6-0.2,3.4-0.4c0.7-0.2,1.3-0.3,2.6-0.3c1.2,0,1.8,0.2,2.5,0.4c0.8,0.3,1.8,0.6,3.6,0.6c1.7,0,2.7-0.3,3.5-0.5
				c0.7-0.2,1.3-0.4,2.6-0.4c1.4,0,2.1,0.1,2.9,0.1c0.8,0.1,1.6,0.1,3.1,0.1c1.6,0,2.4-0.1,3.2-0.1c0.7-0.1,1.4-0.1,2.9-0.1
				c1.7,0,2.6-0.2,3.4-0.3c0.7-0.1,1.3-0.3,2.7-0.3c1.2,0,1.8,0.2,2.5,0.4c0.8,0.3,1.8,0.6,3.5,0.6c1.3,0,1.9,0.1,2.6,0.3
				c0.8,0.2,1.7,0.4,3.4,0.4c1.6,0,2.4-0.1,3.2-0.1c0.7-0.1,1.4-0.1,2.9-0.1c1.7,0,2.5-0.2,3.3-0.3c0.7-0.1,1.4-0.2,2.7-0.2
				c1.4,0,2.1,0.1,2.9,0.1c0.8,0.1,1.6,0.1,3.2,0.1c1.5,0,2.3,0,3.1,0c0.8,0,1.5,0,3,0c0.8,0,1.3,0,1.8,0.1c0.4,0,0.7,0.1,1.1,0.1
				c1.1,0,2.1-0.3,3.6-1.1c0.5-0.2,1.9-1,2.1-2.5c0.2-1-0.2-2-1.1-3c-1.4-1.5-2.7-1.7-3.9-1.7c-0.1,0-0.3,0-0.4,0
				c-0.1,0-0.2,0-0.4,0c-0.5,0-1,0-1.7-0.3c-1.4-0.6-2.1-0.9-2.7-1.2c-0.7-0.3-1.3-0.5-2.6-1.1c-1.3-0.6-2-0.9-2.6-1.2
				c-0.7-0.3-1.3-0.6-2.7-1.2c-0.9-0.4-1.5-0.7-1.9-1c-1-0.5-1.7-0.9-3.5-1.4l-0.3-0.1c-2.4-0.7-2.4-0.7-3.5-2.5
				c-1-1.6-1-1.8-0.9-3.3c0-0.4,0-0.9,0-1.5c0-1.5,0-2.2,0-2.9c0-0.7,0-1.5,0-3c0-0.8,0.2-1.3,0.5-1.9c0.5-1,1.3-2.6-0.5-4.8
				c-0.6-0.8-1.5-1.7-3-1.7c-0.5,0-0.9,0.1-1.3,0.2c-0.4,0.1-0.9,0.2-1.4,0.2c-0.6,0-1.1-0.2-1.7-0.4c-0.6-0.2-1.3-0.4-2-0.4
				c-1,0-2,0.5-2.8,1.4c-1.8,2-1.2,3.7-0.8,5c0.2,0.6,0.4,1.2,0.4,1.9c0,1.5,0.6,2.7,1.1,3.6c0.1,0.2,0.3,0.6,0.4,0.8
				c0,0-0.1,0.1-0.1,0.1c-0.5,0.5-1,0.7-1.3,0.7c-0.6,0-1.6-0.8-2.3-1.5c0,0,0,0-0.1-0.1c0-0.1,0.1-0.2,0.1-0.2
				c0.3-0.8,1.1-2.5-0.8-4.3c-1.1-1.1-2.4-2.1-4-2.1c-1.5,0-2.7,0.9-3.6,1.8c-1.9,1.8-1,3.7-0.6,4.5c0.1,0.1,0.1,0.2,0.2,0.4
				c0,0,0,0,0,0c-0.9,0.8-1.5,1.2-1.9,1.2c-0.2,0-0.6-0.1-1.4-0.8c0.1-0.2,0.2-0.4,0.3-0.5c0.5-0.9,1.6-2.9-0.4-4.8
				c-1.8-1.7-3.4-2.5-5-2.5c-1.3,0-2.6,0.5-3.7,1.6c-2,1.9-0.8,3.9-0.3,4.8c0.1,0.2,0.2,0.4,0.3,0.6c-0.3,0.2-0.8,0.7-1.1,0.9
				c-0.3-0.2-0.9-0.7-1.1-1c0,0,0,0,0,0c0-0.1,0.1-0.2,0.1-0.3c0.4-0.8,1.2-2.6-0.7-4.4c-1.6-1.5-3.2-2.2-4.8-2.2
				c-1.4,0-2.7,0.6-4,1.7c-2,1.8-0.9,3.9-0.4,4.7c0.1,0.2,0.2,0.4,0.3,0.5c-0.4,0.3-1.1,1-1.4,1.2c-0.1-0.1-0.4-0.3-1.1-0.9
				c0.1-0.1,0.2-0.3,0.2-0.5c0.4-0.8,1.5-2.8-0.5-4.7c-1.6-1.5-3.2-2.2-4.9-2.2c-1.4,0-2.8,0.6-4,1.7c-2,1.9-0.7,4-0.2,5
				c0.1,0.2,0.3,0.5,0.4,0.7c-0.9,0.8-1.5,1.2-1.7,1.2c-0.1,0-0.5-0.1-1.3-0.8c0.1-0.2,0.3-0.5,0.4-0.7c0.6-1,1.8-3.1-0.2-5
				c-1.1-1-2.2-1.5-3.3-1.5c-1.8,0-3.1,1.2-4.5,2.6c-2,1.8-0.9,3.9-0.4,4.7c0.1,0.2,0.2,0.4,0.3,0.5c-0.7,0.7-1.2,0.7-1.3,0.7
				c-0.5,0-1.3-0.5-2.4-1.5c0.1-0.2,0.3-0.5,0.4-0.7c0.6-1,1.8-3.1-0.2-5c-1.4-1.3-3-2-4.6-2c-1.7,0-3.3,0.7-4.6,1.9
				c-2,1.8-0.9,3.9-0.4,4.7c0.1,0.2,0.2,0.4,0.3,0.5c-0.3,0.3-0.8,0.8-1.2,1c-0.3-0.2-0.9-0.7-1.1-0.9c0,0,0,0-0.1-0.1
				c0-0.1,0.1-0.2,0.1-0.3c0.4-0.8,1.2-2.6-0.7-4.3c-0.9-0.8-2.1-1.8-3.7-1.8c-1.5,0-2.7,0.8-4.1,2.1c-2,1.9-0.8,4-0.3,4.9
				c0.1,0.2,0.3,0.5,0.3,0.7c-0.5,0.5-1.4,1.1-2.3,1.1c-0.7,0-1.4-0.3-2-0.9c0.1-0.3,0.4-0.8,0.6-1.1c0.7-1.1,2.3-3.5,0.2-5.4
				c-1.2-1.1-2.5-1.7-3.8-1.7c-2,0-3.6,1.3-4.7,2.3c-2,1.8-0.9,3.8-0.5,4.6c0.1,0.1,0.2,0.3,0.2,0.4c0,0,0,0,0,0
				c-0.8,0.8-1.4,1.1-1.8,1.1c-0.3,0-0.8-0.3-1.5-0.9c0.1-0.2,0.3-0.5,0.4-0.8c0.6-1,1.9-3.2-0.1-5.1c-1.5-1.4-3.2-2.1-4.9-2.1
				c-1.5,0-3,0.6-4.3,1.8c-2,1.9-0.7,4-0.2,5c0.1,0.2,0.3,0.5,0.4,0.7c-0.6,0.6-1.8,1.7-2.5,1.7c-0.3,0-0.6-0.2-1-0.5
				c0.1-0.3,0.4-0.7,0.5-1c0.7-1.1,2.1-3.4,0.1-5.3c-0.8-0.7-2-1.7-3.5-1.7c-1.7,0-3,1.1-4.3,2.3c-1.9,1.8-1.1,3.5-0.8,4.2
				c0,0.1,0.1,0.1,0.1,0.2c0,0,0,0-0.1,0.1c-0.4,0.3-1.4,1.3-2,1.3c-0.3,0-0.7-0.3-1.3-0.7c0.1-0.2,0.3-0.5,0.4-0.7
				c0.5-0.9,1.8-3.1-0.2-5c-0.8-0.7-1.6-1.1-2.5-1.1c-0.9,0-1.7,0.4-2.3,0.7c-0.2,0.1-0.4,0.2-0.6,0.3c0,0-0.1-0.1-0.1-0.1
				c-0.7-0.7-0.7-0.7-0.5-1.7c0.2-0.7,0.4-1.6,0.4-2.9c0-1.3,0.1-2,0.3-2.7c0.2-0.8,0.4-1.7,0.4-3.4c0-1.5,0-2.3,0-3.1
				c0-0.8,0-1.5,0-3c0-1.4,0.1-2,0.2-2.7c0.1-0.8,0.3-1.7,0.3-3.3c0-2-0.6-3-1-3.9c-0.4-0.7-0.6-1.1-0.6-2.2c0-1.2,0.2-1.8,0.5-2.4
				c0.3-0.8,0.7-1.8,0.7-3.6c0-1.5,0-2.2,0.1-3c0-0.8,0.1-1.6,0.1-3.1c0-0.9,0.2-1.6,0.5-2.3c0.5-1.5,1.2-3.4-0.9-5.6
				C822,58.7,821,58.2,819.9,58.2L819.9,58.2z M808.9,75.9c-1.4,0-3.2-0.9-3.2-2c0-1.3,1.9-3.1,3.2-3.1c1.2,0,2.8,1.8,2.8,3.1
				C811.8,75,810.3,75.9,808.9,75.9L808.9,75.9z"/>
		</g>
	</g>
	<g>
		<path fill="none" stroke="#231F20" stroke-width="1.5" d="M1998,194.6c-1.3-1.5-2,0.2-4,0.2c-0.7,0-1.2-0.7-1.2-1.4
			c0-0.7,0.6-1.2,1.2-1.2c1.9,0,2.7,1.4,3.9,0c1.5-1.8,1.3-2.8-0.2-4.6c-1.2-1.5-1.8-0.2-3.7-0.2c-0.7,0-1.1-0.4-1.1-1.1
			c0-0.7,0.4-1.3,1.1-1.3c1.9,0,2.5,1.5,3.7,0c1.5-1.8,1.5-2.7,0-4.5c-1.2-1.5-1.8,0-3.7,0c-0.7,0-1-0.7-1-1.3c0-0.7,0.3-1.2,1-1.2
			c1.9,0,2.3,1.2,3.8,0c1.2-1-1.3-2.2,0.1-2.9c2.5-1.3,3.6,1.8,5.7-0.1c2-1.9,2-3.7,0-5.5c-2.1-2-3.8,2.1-5.7,0
			c-2.1-2.3-2.2-3.8-0.1-6.1c1.9-2.1,3,0.8,5.7,0c0.8-0.2,0.8-1.4,0-1.6c-2.7-0.8-2.8,0.1-5.6,0.1c-2.8,0-2.8,0-5.6,0
			c-2.8,0-2.8,0-5.6,0c-2.8,0-2.8-0.2-5.6-0.2s-2.9-0.7-5.6,0.1c-0.8,0.2-0.8,1.4-0.1,1.7c1.5,0.7,2.6-1.6,3.4-0.1
			c1.5,2.7,1.4,3.4-0.1,6.2c-0.8,1.5-2.3-1.3-3.1,0.1c-1.4,2.3-1.6,3.1-0.2,5.4c0.9,1.4,2.6-1.5,3.3,0c1.5,2.7,0,3,0,6.1
			c0,3.1,0.2,3.1,0.2,6.2c0,3.1,0,3.1,0,6.2c0,3.1-2.4,4.1-0.2,6.3c2.3,2.2,3.3-0.1,6.4-0.1c3.2,0,3.2,0,6.3,0c3.2,0,3.4,1.1,6.4,0
			C2000.3,198.6,1999.5,196.4,1998,194.6z M1993.4,163.1c0.7-1.4,2.5-1.5,3.2-0.1c1.4,2.8,1.2,3.5-0.2,6.2c-0.7,1.4-1.8,0.9-3-0.1
			C1990.9,167.3,1992,165.9,1993.4,163.1z M1980.3,163.1c0.7-1.4,2.5-1.5,3.2-0.1c1.4,2.8,1.2,3.5-0.2,6.2c-0.7,1.4-1.8,0.9-3-0.1
			C1977.8,167.3,1978.9,165.9,1980.3,163.1z M1987.6,169.3c-0.7,1.4-2.5,1.5-3.2,0.1c-1.4-2.8-1.2-3.5,0.2-6.2
			c0.7-1.4,1.8-0.9,3,0.1C1990.1,165.1,1989,166.5,1987.6,169.3z M1992,169.3c-0.7,1.4-2.5,1.5-3.2,0.1c-1.4-2.8-1.2-3.5,0.2-6.2
			c0.7-1.4,1.8-0.9,3,0.1C1994.5,165.1,1993.4,166.5,1992,169.3z"/>
	</g>
	<g>
		<g>
			<g>
				<path fill="none" stroke="#231F20" stroke-width="1.5" d="M1301.5,199.3c-2.4,2.3-3.3,0.1-6.6,0.1c-3.3,0-3.3-0.1-6.7-0.1
					c-3.3,0-3.3-0.1-6.7-0.1c-3.3,0-4.2,2.3-6.6,0c-2.3-2.2-0.2-3.1-0.2-6.3c0-3.2,0.2-3.2,0.2-6.4c0-3.2-0.3-3.2-0.3-6.4
					c0-3.2,0.1-3.2,0.1-6.4c0-3.2,0.2-3.2,0.2-6.4s-2.5-4.2-0.2-6.4c2.4-2.3,3.4,0.1,6.7,0.1c3.3,0,3.3,0,6.7,0
					c3.3,0,3.3,0.1,6.7,0.1c3.3,0,4.3-2.4,6.7-0.1c2.3,2.2-0.2,3.3-0.2,6.4c0,3.2,0.2,3.2,0.2,6.4c0,3.2-0.1,3.2-0.1,6.4
					c0,3.2,0.1,3.2,0.1,6.4c0,3.2-0.8,3.3-0.1,6.4C1302.2,196.3,1303.8,197.1,1301.5,199.3z"/>
			</g>
			<g>
				<path fill="none" stroke="#231F20" stroke-width="1.5" d="M1298.7,141c-1,1.1,1.3,2.4-0.1,3c-3.1,1.4-3.4,0-6.8,0
					s-3.5,0.8-6.8-0.1c-0.9-0.2,0.8-1.3,0-1.8c-1.2-0.8-1.7-0.8-2.9,0c-0.8,0.5,1,1.7,0.1,2c-3.6,0.9-4.7-2.6-7.3,0
					c-2.6,2.6,0.1,3.7,0.1,7.3s-2.6,4.7-0.2,7.4c2.2,2.5,3.4,0,6.7,0c3.3,0,3.3,0,6.7,0c3.3,0,3.3,0,6.7,0c3.3,0,4.2,2.2,6.7-0.1
					c2.2-2-0.1-3-0.1-5.9c0-3,0.1-3,0.1-5.9c0-3,0.8-3.1,0.1-5.9C1301.2,139.5,1299.7,139.9,1298.7,141z"/>
			</g>
		</g>
		<g>
			<g>
				<path fill="none" stroke="#231F20" stroke-width="1.5" d="M1330.4,199.2c-2.6,2.1-3.3,0.1-6.6,0.1c-3.3,0-3.3,0.1-6.7,0.1
					c-3.3,0-3.3-0.1-6.7-0.1c-3.3,0-4.1,2.1-6.6,0c-2.1-1.8-0.1-2.7-0.1-5.5c0-2.8,0.2-2.8,0.2-5.5c0-2.8-0.1-2.8-0.1-5.5
					c0-2.8,0-2.8,0-5.5c0-2.8,0-2.8,0-5.5s-2.2-3.8,0-5.6c2.6-2.1,3.4-0.1,6.7-0.1c3.3,0,3.3,0,6.7,0c3.3,0,3.3,0.1,6.7,0.1
					c3.3,0,4.1-2.1,6.6,0c2.1,1.8,0.1,2.7,0.1,5.5c0,2.8,0,2.8,0,5.5c0,2.8,0,2.8,0,5.5c0,2.8-0.2,2.8-0.2,5.5
					c0,2.8-0.4,2.8,0.2,5.5C1331.2,196.6,1332.5,197.5,1330.4,199.2z"/>
			</g>
			<g>
				<path fill="none" stroke="#231F20" stroke-width="1.5" d="M1327.6,147.3c-0.8,0.5,0.9,1.7,0,1.9c-3.3,0.9-3.4,0-6.8,0
					c-3.4,0-3.8,1.6-6.8,0.1c-1.5-0.8,1.2-2.2,0.1-3.6c-0.9-1.1-2-1.1-2.9,0c-1.1,1.3,1.6,2.7,0,3.4c-3.3,1.6-4.7-2.5-7.3,0.1
					c-2.6,2.6-0.1,3.6-0.1,7.3c0,3.7-2.3,4.6,0.1,7.3c2.2,2.5,3.3,0.1,6.6,0.1c3.3,0,3.3-0.2,6.7-0.2c3.3,0,3.3,0.1,6.7,0.1
					c3.3,0,4.1,2.2,6.7,0c2.1-1.8,0-2.8,0-5.5c0-2.8,0.1-2.8,0.1-5.5s0.6-2.8-0.1-5.5C1330.1,145.9,1328.7,146.5,1327.6,147.3z"/>
			</g>
		</g>
		<g>
			<g>
				<path fill="none" stroke="#231F20" stroke-width="1.5" d="M1362.4,199.5c-2.1,2.1-3.1-0.1-6-0.1c-3,0-3-0.2-5.9-0.2
					c-3,0-3,0.3-5.9,0.3c-3,0-3-0.2-5.9-0.2s-3.8,2.1-5.9,0.1c-2.1-2.1,0.1-2.9,0.1-5.9c0-3-0.2-3-0.2-5.9c0-3-0.1-3-0.1-5.9
					c0-3,0.3-3,0.3-5.9c0-3-0.2-3-0.2-5.9c0-3,0.2-3,0.2-5.9c0-3-2.3-3.8-0.2-5.9c2.1-2.1,2.9-0.1,5.9-0.1c3,0,3,0.3,5.9,0.3
					c3,0,3-0.2,5.9-0.2c3,0,3-0.1,5.9-0.1c3,0,3.8-2,5.9,0.1c2.1,2.1,0.2,3,0.2,5.9c0,3-0.2,3-0.2,5.9c0,3,0.1,3,0.1,5.9
					c0,3,0.1,3,0.1,5.9c0,3-0.1,3-0.1,5.9c0,3-0.8,3-0.1,5.9C1362.9,196.6,1364.5,197.4,1362.4,199.5z"/>
			</g>
			<g>
				<path fill="none" stroke="#231F20" stroke-width="1.5" d="M1332.6,141c0,3.7,0.1,3.7,0.1,7.3s-2.3,4.5,0,7.4
					c1.9,2.3,3-0.1,5.9-0.1c3,0,3,0.1,5.9,0.1c3,0,3,0,5.9,0c3,0,3-0.1,5.9-0.1c3,0,3.9,2.2,6,0.2c2.1-2.1-0.2-3-0.2-5.9
					c0-2.9,0-2.9,0-5.8c0-2.9,1.6-3.3,0.3-5.9c-0.6-1.3-2.1-1-3.1,0c-1,1,0,1.5,0,2.9"/>
			</g>
		</g>
	</g>
	<g>
		<path fill="none" stroke="#231F20" stroke-width="1.5" d="M1211.8,82.9c-0.7-2,1.9-3.3,0.1-4.6c-2.4-1.8-3.2,0.5-6.2,0.5
			c-3,0-3-0.4-6-0.4c-3,0-3,0.2-6,0.2c-3,0-3.8-2.1-6.2-0.3c-1.8,1.3,1,2.6,0.3,4.7c-1.9,0.7-3.6,1.9-5.4,2.9
			c-1.7,1-3.6,1.9-5.2,3.1c-1.6,1.3-2.8,2.9-4.2,4.4c-1.4,1.5-2.9,2.9-4,4.5c-1.2,1.7-2.3,3.4-3.2,5.2c-0.9,1.8-1.8,3.6-2.5,5.6
			c-0.6,1.9-0.9,3.9-1.2,6c-0.3,2-0.5,4.1-0.5,6.1c2.8,1,3-0.2,5.9-0.2c2.9,0,2.9,0,5.9,0c2.9,0,2.9,0.3,5.9,0.3
			c2.9,0,2.9-0.2,5.9-0.2c2.9,0,2.9-0.2,5.9-0.2c2.9,0,2.9,0.6,5.9,0.6c2.9,0,2.9-0.6,5.9-0.6s2.9-0.1,5.9-0.1
			c2.9,0,2.9,0.2,5.9,0.2c2.9,0,2.9,0.1,5.9,0.1c2.9,0,2.9,0.2,5.9,0.2c2.9,0,2.9,0,5.9,0s3.2,1,6,0c0-2.1-0.2-4.4-0.5-6.3
			c-0.3-2-1.1-3.9-1.7-5.8c-0.6-1.9-0.8-4.1-1.7-5.9c-0.9-1.8-2.1-3.5-3.3-5.2c-1.2-1.7-2.8-3-4.2-4.5c-1.4-1.5-2.7-3.1-4.2-4.4
			c-1.6-1.3-3.4-2.2-5.1-3.3C1215.3,84.7,1213.6,83.7,1211.8,82.9z"/>
	</g>
	<g>
		<path fill="none" stroke="#231F20" stroke-width="1.5" d="M1242,123.5c-2.8-1.1-2.9-0.6-5.9-0.6c-3,0-3,0-6.1,0
			c-3,0-3,0.3-6.1,0.3c-3,0-3-0.4-6.1-0.4c-3,0-3,0.3-6.1,0.3c-3,0-3-0.3-6.1-0.3c-3,0-3,0.3-6.1,0.3c-3,0-3,0.1-6.1,0.1
			c-3,0-3,0.2-6.1,0.2c-3,0-3-0.4-6.1-0.4c-3,0-3,0.3-6.1,0.3c-3,0-3-0.2-6.1-0.2c-3,0-3,0.3-6.1,0.3s-3.3-1.8-6.2-0.7
			c-1.1,0.4-0.9,2-0.1,2.8c0.9,0.8,2.5-1.5,3-0.3c1.1,2.9,0,3.2,0,6.3c0,3.1,0,3.1,0,6.2c0,3.1-0.2,3.1-0.2,6.2c0,3.1,0,3.1,0,6.2
			c0,3.1-2.4,4.1-0.2,6.3c2.2,2.2,3.2,0.3,6.3,0.3c3.1,0,3.1-0.1,6.1-0.1c3.1,0,3.1-0.5,6.1-0.5c3.1,0,3.1,0.4,6.1,0.4
			c3.1,0,3.1-0.5,6.1-0.5c3.1,0,3.1,0.5,6.1,0.5c3.1,0,3.1-0.5,6.1-0.5s3.1,0.4,6.1,0.4c3.1,0,3.1-0.5,6.2-0.5
			c3.1,0,3.1,0.5,6.1,0.5c3.1,0,3.1-0.4,6.2-0.4c3.1,0,3.1,0.4,6.2,0.4s4.1,2.2,6.2,0c2.2-2.2,0.2-3.2,0.2-6.3
			c0-3.1-0.2-3.1-0.2-6.2c0-3.1-0.2-3.1-0.2-6.2c0-3.1-0.2-3.1-0.2-6.2c0-3.1-1.3-3.5-0.1-6.3c0.5-1.1,1.7,0.6,2.8,0.1
			C1243.1,124.9,1243,123.9,1242,123.5z"/>
	</g>
	<g>
		<path fill="none" stroke="#231F20" stroke-width="1.5" d="M1201.7,37.4c0-1.2-0.9-2.1-2.1-2.1c-1.2,0-2.1,0.9-2.1,2.1
			c0,1.2,0.9,2.1,2.1,2.1C1200.8,39.5,1201.7,38.6,1201.7,37.4z"/>
	</g>
	<g>
		<path fill="none" stroke="#231F20" stroke-width="1.5" d="M1199.6,41.3c-1.5,0-2.7,1.2-2.7,2.6c0,2.4-1.7,3.1,0,4.7
			c2,1.8,3.3,1.8,5.3,0c1.8-1.6,0-2.3,0-4.7C1202.3,42.5,1201.1,41.3,1199.6,41.3z"/>
	</g>
	<g>
		<path fill="none" stroke="#231F20" stroke-width="1.5" d="M1199,23.9c-0.6,2.4,0,2.5,0,5s-0.6,2.6,0,5c0.2,0.6,1.2,0.6,1.4,0
			c0.6-2.4-0.1-2.5-0.1-5s0.5-2.6,0-5C1200.1,23.2,1199.1,23.3,1199,23.9z"/>
	</g>
	<g>
		<path fill="none" stroke="#231F20" stroke-width="1.5" d="M1195.9,28.4c3.6,0.6,3.8,0.6,7.4,0c0.6-0.1,0.6-1.2,0-1.3
			c-3.6-0.6-3.7-0.5-7.4,0C1195.2,27.2,1195.3,28.3,1195.9,28.4z"/>
	</g>
	<g>
		<path fill="none" stroke="#231F20" stroke-width="1.5" d="M1207.2,58.1c0-2.1-0.8-4.1-2.2-5.5c-1.4-1.4-3.4-2.2-5.5-2.2
			c-2.1,0-4.1,0.8-5.5,2.2c-1.4,1.4-2.1,3.4-2.1,5.5c0,1.4-1.2,2.1,0,2.8c2.3,1.2,2.6,0,5.1,0c2.6,0,2.6,0,5.1,0s2.6,0.5,5.1-0.1
			C1208.5,60.4,1207.2,59.5,1207.2,58.1z M1191.6,63c-2.1,2.6-0.1,3.4-0.1,6.8s-2,4.1,0.1,6.8c1.7,2.1,2.7,0.1,5.4,0.1
			c2.7,0,2.7-0.1,5.4-0.1c2.7,0,3.8,2.1,5.4,0c2.1-2.6,0-3.4,0-6.8s2.1-4.1,0-6.8c-1.7-2.1-2.7,0.1-5.4,0.1c-2.7,0-2.7,0.4-5.4-0.2
			C1194.1,62.2,1193.2,60.9,1191.6,63z"/>
	</g>
	<g>
		<path fill="none" stroke="#231F20" stroke-width="1.5" d="M1811.7,150.1c-2.5,2.7,1,4.2-1.6,6.8c-2.2,2.2-3,0.2-6.1,0.2
			c-3.1,0-3.1-0.1-6.2-0.1c-3.1,0-3.1,0.4-6.2,0.4c-3.1,0-3.1-0.9-6.2-0.9c-3.1,0-3.1,1.2-6.2,1.2c-3.1,0-4.6,2-6.6-0.3
			c-2.4-2.8,2.6-4.7,0.4-7.6c-1.6-2.2-2.7,0.2-5.5,0.2c-2.7,0-2.7-0.5-5.4-0.5s-3.4-1.4-5.2,0.6c-2,2.3-0.6,2.9-0.6,6
			s-0.2,3.1-0.2,6.2c0,3.1,0.7,3.1,0.7,6.2c0,3.1,0.4,3.1,0.4,6.2c0,3.1-0.4,3.1-0.4,6.2c0,3.1,0.5,3.1,0.5,6.2
			c0,3.1-0.3,3.1-0.3,6.2s-2.7,4.2-0.7,6.5c1.8,2,3.1-0.8,5.8-0.8c2.7,0,2.7,0.4,5.4,0.4s4,2.3,5.6,0.2c2.2-2.9-3.1-5.1-0.7-7.8
			c2.1-2.4,3.7,0.8,6.9,0.8c3.2,0,3.2-0.9,6.4-0.9c3.2,0,3.2,0.8,6.4,0.8c3.2,0,3.2-0.4,6.4-0.4s4.9-2.7,6.8-0.1
			c2.2,2.9-3.1,4.2-1.1,7.3c1.6,2.4,2.5,0.2,5.4,0.2c2.9,0,2.9,0.8,5.8,0.8c2.9,0,2.9-0.5,5.8-0.5c2.9,0,2.9,0.3,5.8,0.3
			c2.9,0,2.9-0.4,5.8-0.4c2.9,0,2.9-0.3,5.8-0.3c2.9,0,2.9,0.4,5.8,0.4c2.9,0,2.9-0.1,5.8-0.1c2.9,0,2.9,0.1,5.8,0.1
			c2.9,0,2.9,0.2,5.8,0.2c2.9,0,2.9-0.4,5.8-0.4c2.9,0,2.9-0.5,5.8-0.5c2.9,0,2.9,1,5.8,1c2.9,0,2.9,0,5.8,0s3.6,1.5,5.7-0.4
			c2.3-2.1,0.7-3,1.2-6.1s-0.1-3.2,0.4-6.3c0.5-3.1,0.9-3,1.4-6.1c0.5-3.1,0.9-3,1.4-6.1c0.5-3.1,0.4-3.1,0.8-6.2
			c0.5-3.1-0.3-3.2,0.2-6.3c0.5-3.1,1.5-2.9,2-6s1.8-3.4-0.1-5.9c-1.8-2.3-2.4-0.3-5.3-0.3c-2.9,0-2.9,0.3-5.8,0.3
			c-2.9,0-2.9-0.6-5.8-0.6c-2.9,0-2.9-0.3-5.8-0.3c-2.9,0-2.9,0.4-5.8,0.4c-2.9,0-2.9,0.6-5.8,0.6c-2.9,0-2.9-0.1-5.8-0.1
			c-2.9,0-2.9-0.3-5.8-0.3s-2.9,0.5-5.8,0.5s-2.9-1.2-5.8-1.2c-2.9,0-2.9,0.1-5.8,0.1c-2.9,0-2.9,0.4-5.8,0.4
			c-2.9,0-2.9,0.5-5.8,0.5c-2.9,0-3.1,0.6-5.9,0C1814.2,149.8,1813.7,148,1811.7,150.1z M1810.3,159c2,2.4,0.9,4.3-1.4,6.5
			c-2.2,2-2.9,0.2-5.9,0.2c-3,0-3-0.1-6-0.1c-3,0-3,0.4-6,0.4c-3,0-3-0.9-6-0.9c-3,0-3,1.2-6,1.2s-4.3,1.9-6.3-0.3
			c-2.2-2.3-1.8-4.3,0.4-6.6c2.2-2.2,3-0.2,6.1-0.2c3.1,0,3.1,0.5,6.2,0.5c3.1,0,3.1-0.7,6.2-0.7c3.1,0,3.1,0.7,6.2,0.7
			c3.1,0,3.3,1,6.3,0.2C1807.3,159,1808.3,156.7,1810.3,159z M1808.2,172.9c-2.2,2-3.3,0.1-6.2,0.8c-2.9,0.7-2.9,0.9-5.8,1.6
			c-2.9,0.7-2.9,0.5-5.9,1.2c-2.9,0.7-2.8,1.1-5.7,1.8c-2.9,0.7-3.1-0.2-6,0.5c-2.9,0.7-3.8,4.4-6.1,2.4c-2.4-2.1,0-3.7,0-6.9
			c0-3.2-1.7-4,0.5-6.4c2-2.2,2.9-0.2,5.9-0.2c3,0,3,0.5,5.9,0.5c3,0,3-0.7,5.9-0.7c3,0,3,0.7,5.9,0.7c3,0,3,0.2,6,0.2
			c3,0,3.4-2,6-0.7C1811.1,168.9,1810,171.3,1808.2,172.9z M1772.6,190.1c-2.3-2.4-1.5-4.2,0.5-7c1.7-2.4,2.7-0.8,5.6-1.5
			c2.9-0.7,2.9-0.5,5.8-1.2c2.9-0.7,2.8-1.1,5.7-1.7c2.9-0.7,3.1,0.2,6-0.4c2.9-0.7,2.6-1.9,5.5-2.6s3.8-2.8,6.2-1.1
			c2,1.4-0.7,2.8-1.1,5.3c-0.4,2.5-0.2,2.5-0.5,5s0.9,3.2-1.1,4.6c-2.7,1.8-3,0.7-6.3,0.7c-3.2,0-3.2-0.7-6.5-0.7
			c-3.2,0-3.2-0.2-6.5-0.2c-3.2,0-3.3,0-6.4,0.7C1775.9,190.9,1774.8,192.5,1772.6,190.1z"/>
	</g>
	<g>
		<path fill="none" stroke="#231F20" stroke-width="1.5" d="M1684.5,166c-3.5-2.7-4.3-3-7.8-0.3c-2.7,2-1.1,2.9-1.1,6.2
			s-2.3,5.2,0.3,7.2c3.5,2.7,5,1.3,8.5-1.3c2.7-2-0.3-2.6,0.3-5.9C1685.3,168.7,1687.1,168.1,1684.5,166z M1659.4,166
			c-3.5-2.7-4.3-3-7.8-0.3c-2.7,2-1.1,2.9-1.1,6.2s-2.3,5.2,0.3,7.2c3.5,2.7,5,1.3,8.5-1.3c2.7-2-0.3-2.6,0.3-5.9
			C1660.3,168.7,1662.1,168.1,1659.4,166z M1634.4,166c-3.5-2.7-4.3-3-7.8-0.3c-2.7,2-1.1,2.9-1.1,6.2s-2.3,5.2,0.3,7.2
			c3.5,2.7,5,1.3,8.5-1.3c2.7-2-0.3-2.6,0.3-5.9C1635.3,168.7,1637,168.1,1634.4,166z M1609.3,166c-3.5-2.7-4.3-3-7.8-0.3
			c-2.7,2-1.1,2.9-1.1,6.2s-2.3,5.2,0.3,7.2c3.5,2.7,5,1.3,8.5-1.3c2.7-2-0.3-2.6,0.3-5.9C1610.2,168.7,1612,168.1,1609.3,166z
			 M1466.7,165.7c-0.3-1-1.1,0.9-1.7,0c-0.9-1.5,2.3-3.1,1-4.4c-1.3-1.3-3.6-1.4-4.6,0.2c-1.5,2.4,1.6,3.1,1.6,5.9
			c0,2.8-0.8,2.8-0.8,5.6c0,2.8-1.7,3,0.3,5c2,2,3.5,3,5.3,0.8c2.2-2.5-0.3-3.5-0.3-6.9C1467.6,168.8,1467.7,168.8,1466.7,165.7z
			 M1492.1,166c-3.5-2.7-4.3-3-7.8-0.3c-2.7,2-1.1,2.9-1.1,6.2s-2.3,5.2,0.3,7.2c3.5,2.7,5,1.3,8.5-1.3c2.7-2-0.3-2.6,0.3-5.9
			C1493,168.7,1494.7,168.1,1492.1,166z M1517.1,166c-3.5-2.7-4.3-3-7.8-0.3c-2.7,2-1.1,2.9-1.1,6.2s-2.3,5.2,0.3,7.2
			c3.5,2.7,5,1.3,8.5-1.3c2.7-2-0.3-2.6,0.3-5.9C1518,168.7,1519.8,168.1,1517.1,166z M1542.1,166c-3.5-2.7-4.3-3-7.8-0.3
			c-2.7,2-1.1,2.9-1.1,6.2s-2.3,5.2,0.3,7.2c3.5,2.7,5,1.3,8.5-1.3c2.7-2-0.3-2.6,0.3-5.9C1543,168.7,1544.8,168.1,1542.1,166z
			 M1567,166c-3.4-2.6-4.2-2.9-7.6-0.3c-2.6,2.1-1.1,2.9-1.1,6.2s-2.3,5.1,0.3,7.2c3.4,2.6,4.9,1.3,8.3-1.3c2.6-2.1-0.3-2.6,0.3-5.9
			C1567.9,168.7,1569.6,168.1,1567,166z M1704.1,162.5c-1.2,1.2,0.7,1.6-0.1,3c-0.5,0.9-3-1.5-3.3-0.5c-1,3.2,0.1,3.6,0.1,6.9
			s-0.7,3.4,1.4,6c1.8,2.2,2.6,2.5,4.6,0.5c2-2-0.6-2.6-0.6-5.4c0-2.8,1.2-2.8,1.2-5.6s0.4-2.9-0.4-5.6
			C1706.6,160.3,1705.4,161.3,1704.1,162.5z M1698,171.7c0-1.3-0.7-2.2-2-2.2c-0.6-1.9,2-2.6,1.2-4.5c-0.3-0.8-1.4,0.7-1.7,0
			c-0.7-1.5,0-1.2-1.3-2.4c-1.3-1.2-1.3-1.8-2.6-0.5c-1.2,1.2,1.3,2,0.5,3.6c-0.3,0.7-2.4-1.2-2.7-0.5c-0.7,1.9,1,2.3,0.3,4.2
			c-1.3,0-2.6,1.1-2.6,2.4c0,2.3,0.7,2.3,0.7,4.6s0.8,2.4-1.1,3.8c-2.7,1.9-2.7,2-6.1,2c-3.3,0-4.4,1.5-7.1-0.4
			c-1.9-1.3,0.5-3,0.5-5.3s-0.3-2.3-0.3-4.6c0-1.3-0.2-2.6-1.5-2.6c-0.6-1.9-0.4-1.7-1.2-3.6c-0.3-0.8-0.2,0.3-0.6-0.5
			c-0.7-1.5,1.4-2.7,0.2-3.9c-1.3-1.2-2.7-0.3-4,0.9c-1.2,1.2,1.4,2,0.6,3.6c-0.3,0.7-2-1.1-2.3-0.3c-0.7,1.9,1.5,2.4,0.9,4.3
			c-1.3,0-2.8,0.7-2.8,2.1c0,2.3-1.4,2.3-1.4,4.6s3.1,4,1.2,5.3c-2.7,1.9-3.8-0.6-7.1-0.6s-3.7,1.5-6.4-0.4
			c-1.9-1.3-1.4-1.9-1.4-4.3s1.8-2.3,1.8-4.6c0-1.3-2.6-2.1-3.9-2.1c-0.6-1.9,2-2.6,1.2-4.5c-0.3-0.8-1.9,1-2.3,0.3
			c-0.7-1.5,0.9-1.7-0.3-2.9c-1.3-1.2-1.2-1.3-2.5-0.1c-1.2,1.2,0.3,1.4-0.4,2.9c-0.3,0.7-2.5-1.2-2.8-0.5c-0.7,1.9,1.4,2.5,0.8,4.4
			c-1.3,0-2.9,1.2-2.9,2.5c0,2.3,0.6,2.3,0.6,4.6s2.3,3.6,0.4,4.9c-2.7,1.9-3.6-0.7-6.9-0.7c-3.3,0-3.9,2.2-6.6,0.3
			c-1.9-1.3,0.1-2.2,0.1-4.5s0.3-2.3,0.3-4.6c0-1.3-1.8-2.3-3.1-2.4c-0.6-1.9,0-1.8-0.8-3.7c-0.3-0.8,0.2,0.1-0.1-0.7
			c-0.7-1.5,1.1-2.5-0.1-3.6c-1.3-1.2-2.7-0.7-4,0.6c-1.2,1.2,0.4,1.7-0.3,3.2c-0.3,0.7-0.3-0.3-0.6,0.4c-0.7,1.9-0.1,1.8-0.7,3.8
			c-1.3,0-3.2,1.1-3.2,2.4c0,2.3,0.2,2.3,0.2,4.6s2.9,4,1,5.3c-2.7,1.9-3.8-1.7-7.2-1.7c-3.3,0-4.6,3.8-7.4,1.9
			c-1.9-1.3,0.5-3.3,0.5-5.6s-0.6-2.3-0.6-4.6c0-1.3-0.1-2.5-1.4-2.5c-0.6-1.9,1.2-2.4,0.5-4.3c-0.3-0.8-1.6,0.7-2.3,0.2
			c-0.4-0.3-1-0.5-1-1c0-1.3-0.1-1.6-1.4-1.6c-2.7,0-2.7-0.6-5.4-0.6c-2.7,0-2.7,0.9-5.4,0.9s-2.7-2.1-5.4-2.1
			c-1.3,0-3.1,1.9-3.1,3.3c0,0.5,1.2,0.8,0.7,1.1c-0.7,0.4-0.5-0.4-0.8,0.3c-0.7,1.9,0.7,2.1,0.1,4c-1.3,0-3.4,0.8-3.4,2.1
			c0,2.3-1,2.3-1,4.6s2.7,3,0.8,4.4c-2.7,1.9-3.1-0.8-6.4-0.8c-3.3,0-3.9,3-6.6,1.1c-1.9-1.3,0.6-2.3,0.6-4.7s0-2.3,0-4.6
			c0-1.3-1.2-2.5-2.6-2.5c-0.6-1.9-0.2-1.8-0.9-3.7c-0.3-0.8,0.2,0.1-0.2-0.7c-0.7-1.5,0.5-1.9-0.8-3.1c-1.3-1.2-1.9-0.5-3.2,0.7
			c-1.2,1.2,1.1,1.7,0.3,3.3c-0.3,0.7-2.6-1.3-2.9-0.6c-0.7,1.9,0.5,2.1-0.1,4c-1.3,0-2.9,1.3-2.9,2.6c0,2.3,0,2.3,0,4.6
			s3.5,4.1,1.6,5.4c-2.7,1.9-3.9,0.1-7.2,0.1s-4.5,1.9-7.3,0c-1.9-1.3,1.5-3.2,1.5-5.5s-1.3-2.3-1.3-4.6c0-1.3-1.2-2.2-2.5-2.2
			c-0.6-1.9,0.6-2.1-0.2-3.9c-0.3-0.8-1.6,0.9-1.9,0.2c-0.7-1.5,1.5-2,0.3-3.2c-1.3-1.2-1.1-1.4-2.4-0.2c-1.2,1.2,1.1,1.7,0.3,3.3
			c-0.3,0.7-1.1-0.7-1.4,0c-0.7,1.9-1,1.5-1.6,3.5c-1.3,0-2.4,1.3-2.4,2.6c0,2.3,0.8,2.3,0.8,4.6s1.2,2.6-0.8,3.9
			c-2.7,1.9-2.9,0.8-6.2,0.8s-3.4,1.1-6.2-0.8c-1.9-1.3-0.5-1.6-0.5-3.9s-0.3-2.3-0.3-4.6c0-1.3-1.7-2.1-3-2.1
			c-0.6-1.9,1.8-2.5,1.1-4.4c-0.3-0.8-2.1,1.1-2.5,0.4c-0.7-1.5,1.7-2.4,0.5-3.6c-1.3-1.2-1.3-0.5-2.7,0.7c-1.2,1.2-0.9,0.7-1.6,2.2
			c-0.3,0.7-1.3-0.7-1.6,0c-0.7,1.9,2.3,2.7,1.6,4.6c-1.3,0-2.4,0.8-2.4,2.1c0,2.3-0.1,2.3-0.1,4.6s1.3,3.5-0.6,4.8
			c-2.7,1.9-3.5,0-6.8,0s-3.6,1.3-6.4-0.6c-1.9-1.3,0.8-1.9,0.8-4.2s-0.3-2.3-0.3-4.6c0-1.3-2.5-2.2-3.8-2.2c-0.6-1.9,1.7-2.5,1-4.4
			c-0.3-0.8-2.5,1.3-2.9,0.6c-0.7-1.5,2.4-3,1.2-4.2c-1.3-1.2-2.1-0.2-3.4,1c-1.2,1.2,0,1.2-0.8,2.7c-0.3,0.7,0-0.2-0.3,0.5
			c-0.7,1.9-1.2,1.6-1.3,3.6c-0.3,0-0.4,1.1-0.6,1.2c-0.2-0.1-0.3-1.4-0.5-1.4c-0.6,0-1.3,0.7-1.3,1.2c0,0.2-0.5,0.4-0.4,0.5
			c-0.1,0.3,0.3,0.5,0.3,0.9c0,2.3,0.6,2.3,0.6,4.6s2.1,4,0.1,5.2c-3.5,2-4.5-2.2-7.7,0.3c-2.4,1.9-0.5,2.2-0.5,5.3
			c0,3.1-0.3,3.1-0.3,6.1c0,3.1-2.6,4.6-0.5,6.8c2.1,2.1,3.6-1.4,6.6-1.4c3,0,3,1.1,6,1.1c3,0,3-0.5,6-0.5c3,0,3,1.2,6,1.2
			s3-1.4,6-1.4c3,0,3-0.7,6-0.7c3,0,3,1.2,6,1.2c3,0,3-1.2,6-1.2c3,0,3,0.9,6,0.9c3,0,3,0.2,6,0.2c3,0,3,0.5,6,0.5c3,0,3-0.6,6-0.6
			c3,0,3,0.1,6,0.1c3,0,3-0.7,6-0.7c3,0,3,0,6,0c3,0,3,0.8,6,0.8c3,0,3-0.7,6-0.7c3,0,3-0.7,6-0.7c3,0,3,1.9,6,1.9c3,0,3-1.8,6-1.8
			c3,0,3-0.2,6-0.2c3,0,3,0.7,6,0.7c3,0,3,0.4,6,0.4c3,0,3,0.7,6,0.7c3,0,3,0,6,0c3,0,3,0.1,6,0.1c3,0,3-0.7,6-0.7c3,0,3-1.1,6-1.1
			c3,0,3,2,6,2c3,0,3-0.5,6-0.5c3,0,3-1.4,6-1.4c3,0,3,1,6,1c3,0,3-0.8,6-0.8c3,0,3,1.6,6,1.6c3,0,3-0.8,6-0.8c3,0,3,0.2,6,0.2
			c3,0,3-1.1,6-1.1c3,0,3,0.5,6,0.5c3,0,3,0.3,6,0.3c3,0,3-0.5,6-0.5s4.7,3.4,6.8,1.3c2.1-2.2-1.9-3.8-1.9-6.9
			c0-3.1-0.1-3.1-0.1-6.1s4.4-5.2,1.9-7.1c-3.2-2.4-4.8,2.2-8.3,0.2c-2-1.2,0.4-1.6,0-3.9C1699.2,173.9,1698,174,1698,171.7z
			 M1577.3,141.3c-1,2-0.3,1.8-0.3,4c0,2.2-2.2,2.8-1.2,4.8c0.5,1,2.9,1,3.4,0c1-2-1.6-2.5-1.6-4.7c0-2.2,1.1-2.2,0.7-4.4
			C1578.2,140.1,1577.8,140.3,1577.3,141.3z M1581.9,141.3c-1,2-0.3,1.8-0.3,4c0,2.2-2.2,2.8-1.2,4.8c0.5,1,2.9,1,3.4,0
			c1-2-1.6-2.5-1.6-4.7c0-2.2,1.1-2.2,0.7-4.4C1582.8,140.1,1582.4,140.3,1581.9,141.3z M1586.5,141.3c-1,2-0.3,1.8-0.3,4
			c0,2.2-2.2,2.8-1.2,4.8c0.5,1,2.9,1,3.4,0c1-2-1.6-2.5-1.6-4.7c0-2.2,1.1-2.2,0.7-4.4C1587.4,140.1,1587,140.3,1586.5,141.3z
			 M1591.6,141.3c-0.5-1-0.3-1.2-0.9-0.2c-1,2-1.2,2-1.2,4.2c0,2.2-0.9,2.8,0.2,4.7c0.5,1,1.3,0.3,1.9-0.8c1-2,0.6-1.8,0.6-4
			C1592.2,143.3,1592.7,143.3,1591.6,141.3z M1577.2,158.9c1.6,2.2,1.9,0,4.6,0c2.7,0,2.7,1.3,5.4,1.3c2.7,0,4.3,1.8,5.8-0.3
			c2.2-3,0.8-4.1-1.4-7.1c-1.6-2.2-1.8-0.3-4.5-0.3c-2.7,0-2.7,0.5-5.4,0.5c-2.7,0-3.2-2.4-5.5-1.1
			C1573.2,153.6,1575.1,156,1577.2,158.9z M1584,85.3c-0.1-0.5,0.6-0.6,0.5,0c-0.7,2.7-1.5,2.6-1.7,5.4c-0.2,2.8-1.9,3.8-0.2,6
			c1.2,1.5,1.3-1.8,1.8-3.7C1585.4,89,1584.8,89.2,1584,85.3z M1586.8,117.6c-2.2-1-0.6,1.4-2.1,3.3c-1.5,1.9-3.3,0.9-4.1,3.2
			c-1,3-2.7,5.3-0.1,7c2.3,1.5,1.2-3.3,2.8-5.5s2.4-1.6,3.9-3.9C1588.6,119.7,1589.2,118.6,1586.8,117.6z M1593.9,137.5
			c-1.4-0.8-1.7,0.5-3.1-0.3c-2-1.2-1-2.3-1.9-4.4c-0.8-2.1-0.2-2.1-0.4-4.4c-0.2-2.3,1.4-3.4-0.9-3.4c-2.9,0-1.5,1.4-3.2,3.7
			c-1.8,2.3-1.3,2.6-3.1,4.9c0,0-0.9-0.7-0.9-0.7c-1.4,1.8-0.6,2.7-2.5,3.9c-1.4,0.8-2-1-3.4-0.2c-0.8,0.5-0.7,1.3,0.2,1.6
			c3.2,0.9,3.2,1.6,6.5,1.6c3.3,0,3.3-2.2,6.6-2.2s3.2,0.6,6.5,0.3C1595,137.7,1594.7,138,1593.9,137.5z M1586.9,110.5
			c-3.9,0.8-2.9,1.9-4.5,5.5c-1.2,2.9-3.6,4.2-1.5,6.5c1.6,1.7,2.4-1.9,3.8-3.7c1.4-1.8,0.2-2.6,1.4-4.6
			C1587.5,111.9,1589.4,110,1586.9,110.5z M1586.1,103.3c-3.1-0.3-2,1.2-3.1,4.1c-1.1,2.9-4.2,6.4-1.1,6.7c3.7,0.3,3-3.2,5.1-6.2
			C1588.5,105.7,1588.7,103.5,1586.1,103.3z M1585.2,95.9c-1.9-1.1-0.9,0.7-1.6,2.8c-1,3-4.1,5.1-1.4,6.7c2.5,1.4,2.8-2.4,4.3-4.8
			C1587.9,98.6,1587.4,97.3,1585.2,95.9z"/>
	</g>
	<g>
		<path fill="none" stroke="#231F20" stroke-width="1.5" d="M1388.7,199.3c2.2,2.2,3.1,0,6.2,0c3.1,0,3.1,0.3,6.2,0.3
			c3.1,0,3.1-0.2,6.2-0.2c3.1,0,3.1-0.1,6.2-0.1s3.1,0.2,6.2,0.2s3.1-0.4,6.2-0.4c3.1,0,3.1-0.3,6.2-0.3c3.1,0,3.1,0.2,6.2,0.2
			c3.1,0,3.1,0.4,6.2,0.4c3.1,0,3.1-0.4,6.2-0.4s3.8,2.2,6,0c2.2-2.2,0.1-2.8,0.1-5.9c0-3.1-0.2-3.1-0.2-6.2c0-3.1,0.1-3.1,0.1-6.2
			c0-3.1,0.2-3.1,0.2-6.2c0-3.1,0-3.1,0-6.2c0-3.1-0.3-3.1-0.3-6.2s2.6-4.1,0.4-6.2c-2.2-2.2-3.2,0.3-6.3,0.3
			c-3.1,0-3.1-0.6-6.2-0.6c-3.1,0-3.1,0.3-6.2,0.3c-3.1,0-3.1,0-6.2,0s-3.1,0-6.2,0s-3.1,0-6.2,0c-3.1,0-3.1-0.1-6.2-0.1
			c-3.1,0-3.1,0.1-6.2,0.1c-3.1,0-3.1,0.2-6.2,0.2c-3.1,0-3.1,0.1-6.2,0.1s-4.2-2.5-6.4-0.3c-2.2,2.2,0.5,3.2,0.5,6.3
			c0,3.1-0.2,3.1-0.2,6.2c0,3.1,0,3.1,0,6.2c0,3.1-0.3,3.1-0.3,6.2c0,3.1,0.5,3.1,0.5,6.2c0,3.1,0.6,3.2-0.1,6.2
			C1388.3,196.4,1386.5,197.2,1388.7,199.3z M1452.4,126.5c-2.6,0-1.3,2.3-2.5,4.6c-1.2,2.3-4,2.5-2.8,4.8c1.2,2.2,2.8,0,5.3,0
			c2.5,0,3.9,2.1,5.1-0.1c1.2-2.3-1.6-2.2-2.3-4.7C1454.4,128.3,1455,126.5,1452.4,126.5z M1397.7,116.8c-2.7,0-1.4,2.4-2.8,4.7
			c-1.4,2.4-1.7,2.2-3.1,4.6c-1.4,2.4-4,2.6-2.6,5c1.4,2.4,2.9,0,5.7,0c2.8,0,2.8,0.2,5.6,0.2s4.1,2,5.5-0.4
			c1.4-2.4-1.7-2.1-3.1-4.5c-1.4-2.4-1.9-2.2-2.7-4.9C1399.4,118.7,1400.5,116.8,1397.7,116.8z M1446,138.1c-0.8,0.2-0.5,1.1,0,1.8
			c0.3,0.5,0.7-0.5,0.8,0.1c0.6,2.3,2.1,3,0.3,4.6c-2.2,1.8-2.8,0-5.7,0s-2.9-0.2-5.8-0.2c-2.9,0-2.9,0.4-5.8,0.4
			c-2.9,0-2.9,0.3-5.8,0.3c-2.9,0-2.9-0.2-5.8-0.2c-2.9,0-2.9-0.4-5.8-0.4c-2.9,0-3.9,2.4-6,0.4c-2.1-2.2-0.7-3.3-0.2-6.2
			c0.2-0.9,1.4-0.4,1.6-1.3c0.5-2.2,1.4-2.5-0.1-4.1c-1.4-1.5-2.2-1.4-3.7,0c-1.4,1.3,1.2,2.3-0.2,3.6c-1.5,1.4-2.7,1.4-4.2,0
			c-1.4-1.3,1.2-2.2-0.2-3.5c-1.5-1.4-2.4-1.7-3.8-0.3c-1.4,1.3,1.6,2.7,0.2,4c-1.5,1.4-2.6,1-4.1-0.4c-1.4-1.3,1.2-2.3-0.2-3.6
			c-1.5-1.4-2.7-1.5-4.1,0c-1.5,1.6-0.6,2.2,0,4.4c0.2,0.9,1.2,0.4,1.4,1.3c0.5,2.5-0.1,2.5-0.1,5c0,2.5,0.1,2.5,0.1,5
			c0,2.5-1.8,3.4,0.1,4.9c2.4,2,3-0.1,6.2-0.1c3.1,0,3.1,0.4,6.2,0.4c3.1,0,3.1-0.6,6.2-0.6c3.1,0,3.1,0.2,6.2,0.2s3.1,0,6.2,0
			s3.1,0.3,6.2,0.3c3.1,0,3.1-0.5,6.2-0.5c3.1,0,3.1,0.1,6.2,0.1c3.1,0,3.1-0.1,6.2-0.1c3.1,0,3.1,0.1,6.2,0.1s4.3,2.7,6.4,0.4
			c2.3-2.6,0-3.6,0-7.1c0-3.5-1.1-3.6-0.6-7c0.1-0.6,1.1,0.5,1.4,0c0.5-0.7,0.9-1.2,0-1.4c-3-0.8-3.1-0.1-6.2-0.4
			C1449.1,137.7,1449,137.2,1446,138.1z"/>
	</g>
	<g>
		<g>
			<path fill="none" stroke="#231F20" stroke-width="1.5" d="M1256,186.1c-0.7,0.3-0.7,1.2,0,1.4c1.6,0.7,1.9,0.7,3.5,0
				c0.7-0.3,0.5-0.9,0-1.5C1258.3,184.8,1257.6,185.5,1256,186.1z"/>
		</g>
		<g>
			<path fill="none" stroke="#231F20" stroke-width="1.5" d="M1267.8,190.6c-0.3,0-0.6,0.1-0.9,0.1c-1.3-3.1-0.2-3.6-2.3-6.2
				c-0.9-1.1-1.4-0.6-2.7,0c-0.6,0.3-0.5,0.8,0,1.4c0.5,0.7,1.1,0,1.7,0c0.1,0.3,0.6,1.6,1.1,2.8c-1.3,0-3.8-1.1-7.3-0.1
				c-1,0.3-0.2,1.1-0.8,2.1c-0.3-0.1-0.7-0.2-1-0.2c-2.4,0-4.3,2-4.3,4.4c0,2.4,1.9,4.3,4.3,4.3c2.2,0,4-1.4,4.3-3.5
				c1.5-0.8,2-1,3.5-0.2c0.3,2.1,2.1,3.7,4.3,3.7c2.4,0,4.3-2,4.3-4.4C1272.1,192.5,1270.2,190.6,1267.8,190.6z M1258,191.2
				c0.2-0.5,0.3-0.9,0.4-1.1c3.4-0.1,3.4-0.2,6.8,0c0.1,0.4,0.3,0.8,0.4,1.1c-1.1,0.6-2,1.7-2.2,3c-1.6,0.6-1.8,0.5-3.5-0.1
				C1259.8,192.9,1259.1,191.9,1258,191.2z"/>
		</g>
	</g>
	<g>
		<g>
			<path fill="none" stroke="#231F20" stroke-width="1.5" d="M772.3,186.1c0.7,0.3,0.7,1.2,0,1.5c-1.6,0.7-1.9,0.7-3.5,0
				c-0.7-0.3-0.5-0.9,0-1.5C770,184.8,770.7,185.4,772.3,186.1z"/>
		</g>
		<g>
			<path fill="none" stroke="#231F20" stroke-width="1.5" d="M756.2,195c0,2.4,1.9,4.3,4.4,4.3c2.2,0,3.9-1.6,4.2-3.7
				c1.5-0.8,2-0.8,3.6,0c0.3,2.1,2.1,3.7,4.2,3.7c2.4,0,4.4-1.9,4.4-4.3c0-2.4-2-4.3-4.4-4.3c-0.3,0-0.6,0-0.9,0.1
				c-0.5-0.9,0.1-1.6-0.9-1.9c-3.5-1-5.9-0.1-7.3-0.1c0.5-1.3,1-2.6,1.1-2.8c0.6,0,1.2,0.6,1.7,0c0.4-0.6,0.6-1.1,0-1.4
				c-1.2-0.6-1.8-1-2.6,0c-2.1,2.6-1.2,3.1-2.4,6.2c-0.3,0-0.4-0.1-0.7-0.1C758.2,190.5,756.2,192.5,756.2,195z M768.3,194.2
				c-1.6,0.6-1.9,0.6-3.5,0c-0.2-1.3-1.1-2.4-2.2-3c0.1-0.3,0.3-0.8,0.4-1.2c3.4-0.2,3.4,0,6.8,0.1c0.1,0.2,0.2,0.6,0.4,1.1
				C769.3,191.9,768.6,193,768.3,194.2z"/>
		</g>
	</g>
	<g>
		<g>
			<path fill="none" stroke="#231F20" stroke-width="1.5" d="M546.8,186.1c-0.7,0.3-0.7,1.2,0,1.4c1.6,0.7,1.9,0.7,3.5,0
				c0.7-0.3,0.5-0.9,0-1.4C549.1,184.8,548.4,185.5,546.8,186.1z"/>
		</g>
		<g>
			<path fill="none" stroke="#231F20" stroke-width="1.5" d="M558.5,190.6c-0.3,0-0.6,0-0.9,0.1c-1.3-3.1,0-3.7-2.1-6.3
				c-0.9-1.1-1.6-0.5-2.8,0.1c-0.6,0.3-0.4,0.8,0,1.3c0.5,0.7,1.1,0,1.7,0c0.1,0.3,0.5,1.5,1,2.8c-1.3,0-3.7-1-7.2,0
				c-1,0.3-0.2,1.1-0.7,2.1c-0.3-0.1-0.7-0.1-1-0.1c-2.4,0-4.4,1.9-4.4,4.3c0,2.4,1.9,4.3,4.4,4.3c2.2,0,4-1.5,4.3-3.5
				c1.5-0.8,1.9-0.9,3.5-0.1c0.3,2.1,2.1,3.7,4.3,3.7c2.4,0,4.4-2,4.4-4.4C562.9,192.5,560.9,190.6,558.5,190.6z M548.7,191.3
				c0.2-0.5,0.4-1,0.5-1.2c3.4-0.1,3.4,0,6.8,0.2c0.1,0.4,0.3,0.7,0.4,1c-1.1,0.6-1.9,1.8-2.2,3.1c-1.6,0.6-1.9,0.5-3.5,0
				C550.5,193,549.8,191.9,548.7,191.3z"/>
		</g>
	</g>
	<g>
		<path fill="none" stroke="#231F20" stroke-width="1.5" d="M900.6,23.4c0,1.3,1.1,2.3,2.4,2.3c0.7,0,1.3-0.4,1.8-0.8
			c1.7,0.5,1.6,0.8,2.9,1.9c-0.3,0.8,0,1.5,0,2.3c0,1.8,0.5,3.2,1.7,4.3c1.2,1.2,2.6,2.4,4.3,2.4c2.3,0,4.3-1.6,5.4-3.4
			c1.4-0.2,1.5,0.3,2.7,1c-0.1,0.2-0.4,0.8-0.4,1c0,1.6,1.3,2.6,3,2.6c0.9,0,1.7-0.2,2.2-0.8c1.9,0.6,1.5,1.8,3.5,2.2
			c0.6,0.1,0.9-0.7,0.5-1.2c-1.4-1.4-1.7-0.9-3.5-1.9c0.1-0.2-0.3-0.6-0.3-0.9c0-1.6-0.8-2.5-2.4-2.5c-0.9,0-1.8,0.4-2.3,1.1
			c-1.4-0.3-1.4-0.8-2.5-1.7c0.3-0.7,0.3-1.6,0.3-2.4c0-1.8-0.4-3.4-1.6-4.6c-1.2-1.2-2.8-2.3-4.6-2.3c-2.2,0-4.2,1.8-5.3,3.5
			c-1.8,0-1.8-0.6-3.4-1.5c0-0.1,0.3-0.7,0.3-0.9c0-1.3-1-2.2-2.3-2.2c-0.7,0-1.4,0.4-1.8,0.9c-2.1-0.8-1.6-2-3.8-2.5
			c-0.6-0.1-1.3,1.1-0.9,1.5c1.6,1.5,2.5,0.3,4.4,1.4C901,22.7,900.6,23.2,900.6,23.4z M913.7,14.4c-3.5,0-4.4,3.2-2.9,6.3
			c1.3,2.7,3.6,2,5.7-0.1C919.4,17.9,917.2,14.4,913.7,14.4z M959.5,63.7c-0.9-0.5-0.6,2.1-1.5,1.6c-2.8-1.4-2.3-2.1-4.5-4.3
			c-2.2-2.2-1.9-2.4-4.1-4.6c-2.2-2.2-2.6-1.8-4.8-3.9s-2.1-2.3-4.3-4.4c-1.1-1.1-0.7-1.6-1.8-2.7c0,0-0.3,0.3-0.3,0.3
			c0,0,0,0.3,0,0.3c-2.6,0-2.6-0.4-5.3-0.4c-2.6,0-2.6,0.3-5.3,0.3c-2.6,0-2.6-0.2-5.3-0.2c-2.6,0-3.5,1.9-5.1-0.2
			c-2.1-2.9,0.7-3.6-0.4-7c-0.3-1.1-1.6-1.1-1.9,0c-1.1,3.4,0.8,3.6,0.3,7.2c0,0.4-0.9,0.4-1.3,0.4c-0.7,0-1.7,0.3-1.8-0.4
			c-0.7-3.6,1.5-3.8,0.4-7.3c-0.3-1.1-1.6-1.1-2,0c-1.1,3.4,2.2,4.5-0.3,7.1c-2.4,2.5-3.4-0.4-6.8-0.4c-3.4,0-3.4,0.7-6.9,0.7
			c-3.4,0-3.4,0.2-6.9,0.2c0,0,0-0.4,0-0.4c0,0,0.1,0.1,0.1,0.1c-1.1,1.1-1,1.2-2.2,2.4c-2.2,2.2-2.5,1.9-4.7,4
			c-2.2,2.2-2.3,2-4.5,4.2c-2.2,2.2-1.6,2.8-3.8,5c-2.2,2.2-1.9,2.7-4.7,4.1c-0.9,0.5-0.4-1.6-1.3-1.1c-2.8,1.4-4.9,0.8-4.9,3.9
			c0,3.1,1.7,4,4.7,4c3.1,0,2.9-1.3,4-4.1c0.5-1.3-2.3-0.6-1.7-1.9c1.2-3,2.8-1.9,5.1-4.2c2.3-2.3,2.1-2.5,4.4-4.8
			c2.3-2.3,1.9-2.7,4.2-5c2.3-2.3,1.9-3.2,4.8-4.6c2.4-1.1,2.8,0.2,5.4,0.2c2.6,0,2.6-0.2,5.2-0.2c2.6,0,3.9-2,5,0.4
			c1.3,2.6-1,2.5-2.4,5c-1.4,2.5-1.7,2.3-3.1,4.8c-1.4,2.5-1.2,2.6-2.6,5.1c-1.4,2.5-1,2.7-2.4,5.2c-1.4,2.5-1,2.9-3.2,4.7
			c-0.9,0.7-0.7-1.5-1.6-0.8c-2.4,1.9-4.2,1.9-3.5,4.9c0.7,3,2.2,3.9,5.2,3.2c3-0.7,2.5-2.2,3-5.2c0.2-1.3-2.5-0.1-2.4-1.4
			c0.3-2.9,1.5-2.8,2.9-5.3c1.4-2.6,1.7-2.4,3.1-5c1.4-2.6,1.9-2.3,3.3-4.9c1.4-2.6,1.1-2.8,2.5-5.3c1.4-2.6,0.8-3.1,3.1-4.8
			c1.6-1.2,3-2.2,4.1-0.5c1.7,2.6-0.1,3.3-0.1,6.4c0,3.1-0.5,3.1-0.5,6.1c0,3.1,0.3,3.1,0.3,6.1c0,3.1,0.1,3.1,0.1,6.1
			c0,3.1,0.3,3.1,0.3,6.1c0,3.1-0.9,3.1-0.9,6.1c0,3.1,0.1,3.1,0.1,6.1c0,3.1,0.7,3.1,0.7,6.1c0,3.1,0,3.1,0,6.1
			c0,3.1-0.2,3.1-0.2,6.1s-1.4,3.3-0.3,6.2c0.4,1.1,2.2,1.1,2.6,0c1.1-2.9-0.4-3.1-0.4-6.2c0-3.1,0-3.1,0-6.1c0-3.1-0.2-3.1-0.2-6.1
			c0-3.1,0.2-3.1,0.2-6.1c0-3.1,0.3-3.1,0.3-6.1c0-3.1-0.3-3.1-0.3-6.1c0-3.1,0.5-3.1,0.5-6.1c0-3.1-0.5-3.1-0.5-6.1
			c0-3.1,0.7-3.1,0.7-6.1c0-3.1-0.8-3.1-0.8-6.1s-1.1-3.4,0-6.3c0.4-1,1.8-0.7,2.1,0.3c1,2.9,0.9,3,0.9,6c0,3.1-0.6,3.1-0.6,6.2
			c0,3.1,0.4,3.1,0.4,6.2c0,3.1,0,3.1,0,6.2c0,3.1-0.1,3.1-0.1,6.2c0,3.1-0.5,3.1-0.5,6.2c0,3.1,0.6,3.1,0.6,6.2
			c0,3.1-0.3,3.1-0.3,6.2c0,3.1,0,3.1,0,6.2c0,3.1-1.5,3.5-0.4,6.4c0.4,1.1,2.5,1,2.9-0.1c1.1-2.9-0.1-3.2-0.1-6.3
			c0-3.1,0.3-3.1,0.3-6.2c0-3.1-0.5-3.1-0.5-6.2c0-3.1-0.4-3.1-0.4-6.2c0-3.1,0.2-3.1,0.2-6.2c0-3.1,0.5-3.1,0.5-6.2
			c0-3.1-0.5-3.1-0.5-6.2c0-3.1-0.2-3.1-0.2-6.2c0-3.1,0.3-3.1,0.3-6.2s-2-3.9-0.2-6.5c1.3-1.8,3.2-1.3,5,0c2.4,1.7,1.3,2.8,2.7,5.4
			c1.4,2.6,1.4,2.6,2.9,5.1c1.4,2.6,1.8,2.4,3.2,5c1.4,2.6,1,2.8,2.4,5.4s3,2.2,3.3,5.1c0.1,1.3-3.1,0.2-2.9,1.4
			c0.5,3,0.6,4.4,3.6,5.1c3,0.7,4.5-0.2,5.2-3.2c0.7-3-0.8-3.3-3.2-5.2c-0.9-0.7-1.1,1.9-1.9,1.2c-2.2-1.8-1.2-2.6-2.6-5.1
			c-1.4-2.5-1.5-2.5-2.8-5c-1.4-2.5-1.6-2.4-3-4.9c-1.4-2.5-1.5-2.5-2.9-5s-3.6-2.4-2.3-5c1.1-2.3,2.4-0.6,5-0.6
			c2.6,0,2.6,0.2,5.2,0.2s2.9-1,5.3,0.1c2.9,1.4,2,2.6,4.3,4.9c2.3,2.3,2.8,1.8,5.1,4.1c2.3,2.3,2.2,2.4,4.5,4.7
			c2.3,2.3,3.5,1.6,4.8,4.6c0.5,1.3-2.6,0.7-2.1,2c1.1,2.9,1,4.7,4.1,4.7c3.1,0,3.5-1.7,4.6-4.5C965.1,65.2,962.2,65,959.5,63.7z"/>
	</g>
	<g>
		<path fill="none" stroke="#231F20" stroke-width="1.5" d="M1159.6,168.3c2.9,1.1,3.1-0.3,6.2-0.3s3.1,0.2,6.1,0.2
			c3.1,0,3.1-0.2,6.1-0.2c3.1,0,3.1,0.1,6.1,0.1c3.1,0,3.1-0.3,6.1-0.3c3.1,0,3.1,0.5,6.1,0.5c3.1,0,3.1,0,6.1,0s3.1-0.5,6.1-0.5
			c3.1,0,3.1,0,6.1,0c3.1,0,3.1,0.1,6.1,0.1c3.1,0,3.1,0.2,6.2,0.2c3.1,0,3.1,0.3,6.2,0.3s3.2,0.6,6.1-0.5c1.1-0.4,1.1-1.6,0.1-2
			c-2.9-1.1-3.1,0-6.1,0s-3.1,0.1-6.1,0.1c-3.1,0-3.1,0.1-6.1,0.1c-3.1,0-3.1-0.1-6.1-0.1c-3.1,0-3.1-0.2-6.1-0.2
			c-3.1,0-3.1,0.1-6.1,0.1c-3.1,0-3.1-0.5-6.1-0.5c-3.1,0-3.1,0.2-6.1,0.2c-3.1,0-3.1-0.2-6.1-0.2c-3.1,0-3.1,0.5-6.1,0.5
			c-3.1,0-3.1-0.5-6.2-0.5c-3.1,0-3.1,0-6.2,0s-3.2-0.7-6.2,0.2C1158.3,166,1158.5,167.9,1159.6,168.3z"/>
	</g>
	<g>
		<path fill="none" stroke="#231F20" stroke-width="1.5" d="M1248.5,199.3c0-2.8,0.4-2.8,0.4-5.6c0-2.8-0.1-2.8-0.1-5.6
			c0-2.8,0.4-2.8,0.4-5.6c0-2.8,0.1-2.8,0.1-5.6c0-2.8-0.1-2.8-0.1-5.6c0-2.8-1.7-3.1-0.8-5.8c0.7-2.1,2.4-1.1,3.3-3.2
			c0.8-1.8,2.1-3,0.6-4.1c-2-1.5-2.9,0.3-5.4,0.3s-3.8-2.1-5.5-0.2c-1.9,2.2,0.6,3.2,0.6,6.1c0,2.9-0.6,2.9-0.6,5.8
			c0,2.9,0.3,2.9,0.3,5.8c0,2.9,0.4,2.9,0.4,5.8c0,2.9-0.7,2.9-0.7,5.8c0,2.9-0.1,2.9-0.1,5.8s1.3,3,0.3,5.8c-0.3,1-1.5,0.9-1.9,0
			c-1-2.7-0.3-2.9-0.3-5.8c0-2.9-0.1-2.9-0.1-5.8c0-2.9,0.7-2.9,0.7-5.8c0-2.9-1-2.9-1-5.8c0-2.9,0.2-2.9,0.2-5.8
			c0-2.9,0.7-2.9,0.7-5.8s2-4.2-0.1-6.2c-2.2-2.1-3.4,0.4-6.5,0.4s-3.1-0.4-6.1-0.4c-3.1,0-3.1,0-6.1,0c-3.1,0-3.1,0.7-6.1,0.7
			c-3.1,0-3.1-0.5-6.1-0.5c-3.1,0-3.1,0.1-6.1,0.1c-3.1,0-3.1,0.2-6.1,0.2c-3.1,0-3.1-0.6-6.1-0.6c-3.1,0-3.1,0.3-6.1,0.3
			c-3.1,0-3.1,0-6.1,0c-3.1,0-3.1,0.1-6.2,0.1c-3.1,0-3.1,0.3-6.2,0.3s-4-2.5-6.3-0.4c-2.1,2-0.1,3-0.1,5.9c0,2.9,0.5,2.9,0.5,5.8
			c0,2.9-0.5,2.9-0.5,5.8c0,2.9-0.1,2.9-0.1,5.8c0,2.9,0,2.9,0,5.8c0,2.9,0,2.9,0,5.8s0.8,2.9-0.2,5.7c-0.3,1-1,1-1.3,0
			c-1-2.7,0-2.8,0-5.7c0-2.9-0.6-2.9-0.6-5.8c0-2.9,0.2-2.9,0.2-5.8c0-2.9-0.4-2.9-0.4-5.8c0-2.9,1-2.9,1-5.8c0-2.9,0-2.9,0-5.8
			s1.4-3.6-0.5-5.8c-1.7-1.9-2.5-0.2-5.1-0.2c-2.6,0-2.8-0.9-4.8,0.6c-1.5,1.1-1.4,1.8-0.6,3.6c0.9,2.1,2.7,1,3.4,3.1
			c0.9,2.6-0.4,2.8-0.4,5.6c0,2.8,0.3,2.8,0.3,5.6c0,2.8-0.4,2.8-0.4,5.6c0,2.8,0.6,2.8,0.6,5.6c0,2.8,0.2,2.8,0.2,5.6
			c0,2.8-0.1,2.8-0.1,5.6"/>
	</g>
	<g>
		<path fill="none" stroke="#231F20" stroke-width="1.5" d="M1159.7,199.6c3.1,0,3.1-0.1,6.1-0.1s3.1,0,6.1,0c3.1,0,3.1,0,6.1,0
			c3.1,0,3.1,0,6.1,0c3.1,0,3.1,0.2,6.1,0.2c3.1,0,3.1,0,6.1,0c3.1,0,3.1-0.5,6.1-0.5s3.1,0.2,6.1,0.2c3.1,0,3.1-0.3,6.1-0.3
			c3.1,0,3.1,0.4,6.1,0.4c3.1,0,3.1-0.3,6.2-0.3c3.1,0,3.1-0.1,6.2-0.1s3.1,0.5,6.2,0.5"/>
	</g>
	<g>
		<g>
			<g>
				<g>
					<path fill="none" stroke="#231F20" stroke-width="1.5" d="M108.7,199.3c-1.9,2-2.8,0-5.6,0c-2.8,0-2.8,0-5.6,0
						c-2.8,0-2.8,0-5.6,0c-2.8,0-2.8,0.1-5.6,0.1c-2.8,0-2.8-0.2-5.6-0.2c-2.8,0-2.8,0.1-5.6,0.1c-2.8,0-3.8,2.1-5.6,0
						c-2-2.2,0.1-3.1,0.1-6.1c0-3-0.1-3-0.1-6c0-3-0.1-3-0.1-6c0-3,0.3-3,0.3-6c0-3-0.2-3-0.2-6c0-3,0.2-3,0.2-6s-2.1-3.7,0-5.9
						c1.9-2,2.6,0,5.4,0c2.8,0,2.8-0.3,5.6-0.3c2.8,0,2.8,0,5.6,0c2.8,0,2.8,0.2,5.6,0.2c2.8,0,2.8,0,5.6,0c2.8,0,2.8,0.2,5.6,0.2
						c2.8,0,3.5-2,5.4,0c2,2.2,0.4,2.9,0.4,5.9c0,3-0.3,3-0.3,6c0,3,0,3,0,6c0,3-0.1,3-0.1,6c0,3,0,3,0,6c0,3-0.4,3,0.3,6
						C109.5,196.4,110.8,197.1,108.7,199.3z"/>
				</g>
				<g>
					<path fill="none" stroke="#231F20" stroke-width="1.5" d="M106,137.3c-1,1.1,1.4,2.5,0,3.1c-2.9,1.4-3.3-0.2-6.5-0.2
						c-3.2,0-3.2,0.1-6.5,0.1c-3.2,0-3.2-0.1-6.5-0.1c-3.2,0-3.4,0.9-6.5,0c-0.9-0.3,0.9-1.5,0.1-2c-1.2-0.8-1.7-0.5-2.9,0.2
						c-0.8,0.5,0.8,1.4-0.1,1.6c-3.6,0.9-4.6-2.4-7.2,0.2c-2.6,2.6,0,3.6,0,7.3s-2.3,4.4-0.1,7.3c1.7,2.2,2.8,0.1,5.5,0.1
						c2.8,0,2.8-0.2,5.6-0.2c2.8,0,2.8,0.3,5.6,0.3c2.8,0,2.8-0.1,5.6-0.1c2.8,0,2.8-0.3,5.6-0.3c2.8,0,2.8,0.3,5.6,0.3
						c2.8,0,3.7,1.9,5.6-0.1c2-2.1,0.2-3,0.2-5.9c0-3-0.2-3-0.2-5.9c0-3,0.8-3.1,0.1-5.9C108.4,135.8,106.9,136.3,106,137.3z"/>
				</g>
			</g>
			<g>
				<g>
					<path fill="none" stroke="#231F20" stroke-width="1.5" d="M137.7,199.4c-2.6,2.1-3.4,0-6.7,0c-3.3,0-3.3-0.2-6.7-0.2
						c-3.3,0-3.3,0.1-6.7,0.1s-4.1,2.2-6.7,0.1c-2.1-1.8,0.1-2.8,0.1-5.6c0-2.8,0-2.8,0-5.5c0-2.8-0.1-2.8-0.1-5.5
						c0-2.8,0-2.8,0-5.5c0-2.8,0.1-2.8,0.1-5.5s-2.2-3.8-0.1-5.6c2.6-2.1,3.4-0.1,6.7-0.1c3.3,0,3.3,0.1,6.7,0.1
						c3.3,0,3.3,0.1,6.7,0.1s4-2.1,6.6,0.1c2.1,1.8,0.2,2.6,0.2,5.4c0,2.8,0,2.8,0,5.5c0,2.8-0.1,2.8-0.1,5.5c0,2.8,0.1,2.8,0.1,5.5
						c0,2.8-0.6,2.8,0,5.5C138.5,196.7,139.8,197.6,137.7,199.4z"/>
				</g>
				<g>
					<path fill="none" stroke="#231F20" stroke-width="1.5" d="M134.8,147.3c-0.8,0.5,0.9,1.6,0,1.8c-3.3,0.9-3.4,0.1-6.8,0.1
						s-3.7,1.4-6.8-0.1c-1.5-0.8,1.1-2.1,0-3.4c-0.9-1.1-1.9-1.1-2.8,0c-1.1,1.3,1.5,2.7,0,3.4c-3.3,1.6-4.7-2.6-7.3,0
						c-2.6,2.6,0,3.7,0,7.3c0,3.7-2.6,4.7-0.1,7.4c2.2,2.5,3.4,0,6.7,0c3.3,0,3.3-0.1,6.7-0.1c3.3,0,3.3,0,6.7,0s4.1,2.2,6.7,0
						c2.1-1.8-0.1-2.8-0.1-5.6c0-2.8,0-2.8,0-5.5s0.9-2.9,0.2-5.5C137.4,145.9,136,146.5,134.8,147.3z"/>
				</g>
			</g>
			<g>
				<g>
					<path fill="none" stroke="#231F20" stroke-width="1.5" d="M182,199.4c-2.1,2.1-3,0.1-6,0.1c-3,0-3,0-6,0c-3,0-3-0.1-6-0.1
						c-3,0-3,0.1-6,0.1c-3,0-3-0.1-6-0.1c-3,0-3,0.1-6,0.1s-4,2-6.1-0.1c-2.1-2.1,0.1-3.1,0.1-6c0-3,0.2-3,0.2-5.9
						c0-3-0.1-3-0.1-5.9c0-3,0-3,0-5.9c0-3-0.2-3-0.2-5.9c0-3,0.1-3,0.1-5.9c0-3-1.9-3.7,0.2-5.8c2.1-2.1,2.9-0.2,5.9-0.2
						c3,0,3,0.1,6,0.1c3,0,3-0.2,6-0.2c3,0,3,0.3,6,0.3c3,0,3-0.1,6-0.1c3,0,3-0.2,6-0.2s3.9-1.9,6,0.2c2.1,2.1,0.1,2.9,0.1,5.9
						c0,3-0.2,3-0.2,5.9c0,3,0,3,0,5.9c0,3,0,3,0,5.9c0,3,0.3,3,0.3,5.9c0,3-0.7,3-0.1,5.9C182.7,196.5,184.1,197.3,182,199.4z"/>
				</g>
				<g>
					<path fill="none" stroke="#231F20" stroke-width="1.5" d="M179.1,141"/>
				</g>
			</g>
		</g>
		<g>
			<path fill="none" stroke="#231F20" stroke-width="1.5" d="M150.1,141c-2.3-2.4-0.5-3.4,0.1-6.7c0.1-0.6,1,0.6,1.3,0.1
				c0.5-0.7,0.7-1.8-0.1-2c-3-0.8-3.2,0.1-6.3,0.1s-3.2-0.5-6.2,0.3c-0.8,0.2-0.5,0.8,0,1.5c0.3,0.5,1.2-0.6,1.3,0
				c0.6,2.6-0.3,2.7-0.3,5.4c0,2.7,0.3,2.7,0.3,5.3c0,2.7-0.1,2.7-0.1,5.3c0,2.7-1.9,3.4,0.1,5.2c2.2,2,2.9,0.1,5.9,0.1
				c3,0,3,0.1,6,0.1c3,0,3,0,6,0c3,0,3,0.1,6,0.1c3,0,3-0.2,6-0.2c3,0,3,0.2,6,0.2s4.2,2.2,6.1-0.1c2.3-2.8-0.3-3.7-0.3-7.4
				s2.7-4.6,0.3-7.4c-2.1-2.4-3.3,0-6.5,0c-3.2,0-3.2,0.1-6.4,0.1c-3.2,0-3.2-0.1-6.4-0.1c-3.2,0-3.3-0.6-6.4,0.1
				C153.1,141.7,152.3,143.3,150.1,141z M145.1,121.2c-2.6,0-1.3,2.2-2.5,4.5s-3.9,2.4-2.6,4.7c1.2,2.2,2.7,0.1,5.1,0.1
				c2.5,0,3.9,2,5.1-0.1c1.2-2.3-2.1-2.1-2.8-4.6C146.7,123,147.7,121.2,145.1,121.2z"/>
		</g>
	</g>
	<g>
		<g>
			<path fill="none" stroke="#231F20" stroke-width="1.5" d="M1018.6,99.3c-2.8,0-2.4,1.4-4.8,2.8c-2.4,1.4-5.7,0.4-4.3,2.8
				c1.5,2.8,2.8,0.6,6,0.6c3.2,0,3.2-0.6,6.3-0.6s4.7,2.9,6.2,0.2c1.3-2.4-2.4-1.2-4.5-3C1021.4,100.2,1021.4,99.3,1018.6,99.3z
				 M1030.7,151.6c-1.7-3,0-3.3,0-6.7c0-3.4-0.5-3.4-0.5-6.8s0.3-3.4,0.8-6.7c0.1-0.5,0.1,0.2,0.4-0.2c0.8-1.1,2.2-1.7,1-2.4
				c-2.4-1.4-2.7-0.4-5.4-0.4c-2.7,0-2.7,0.5-5.5,0.5c-2.7,0-2.7-0.3-5.5-0.3c-2.7,0-2.7-0.3-5.5-0.3s-3.3-1.4-5.7,0
				c-1.2,0.7,0.1,2.1,0.8,3.2c0.2,0.4,1.5-0.7,1.6-0.2c0.4,3.4-0.3,3.5-0.3,6.8c0,3.4,0.2,3.4,0.2,6.8s0.9,3.7-0.7,6.6
				c-1.6,2.8-2.4,2-5.2,3.6c-2.8,1.6-2.9,1.4-5.7,2.9s-3,1.2-5.3,3.5c-0.9,0.9-1.5,1.6-0.3,2.1c2.6,1.2,2.8,0.1,5.7,0.1
				c2.9,0,2.9,0,5.8,0c2.9,0,2.9,0.3,5.8,0.3c2.9,0,2.9-0.4,5.8-0.4c2.9,0,2.9,0.5,5.8,0.5c2.9,0,2.9-0.2,5.8-0.2
				c2.9,0,2.9-0.7,5.8-0.7c2.9,0,2.9,0.7,5.8,0.7c2.9,0,2.9,0,5.8,0s3.2,1,5.8-0.2c1.2-0.5,1.1-1.9,0.2-2.8c-2.3-2.3-3-1.4-5.8-3
				c-2.8-1.6-2.6-2.1-5.6-3.2C1033.2,153.5,1032.3,154.4,1030.7,151.6z M989.8,199.4c2.1,2,3,0.1,5.8,0.1c2.9,0,2.9-0.5,5.8-0.5
				c2.9,0,2.9,0.7,5.8,0.7c2.9,0,2.9-0.6,5.8-0.6c2.9,0,2.9,0.1,5.8,0.1c2.9,0,2.9,0.4,5.8,0.4c2.9,0,2.9-0.5,5.8-0.5
				c2.9,0,2.9,0.3,5.8,0.3c2.9,0,2.9,0.3,5.8,0.3s4,1.9,6.1-0.1c2-1.9,0-3.1,0-5.9c0-2.8-0.7-2.8-0.7-5.6c0-2.8,0.3-2.8,0.3-5.6
				c0-2.8-0.2-2.8-0.2-5.6c0-2.8,0.8-2.8,0.8-5.6s1.5-3.4-0.5-5.4c-2.1-2-2.7-0.2-5.6-0.2c-2.9,0-2.9,0.4-5.8,0.4
				c-2.9,0-2.9-0.4-5.8-0.4s-2.9-0.1-5.8-0.1c-2.9,0-2.9,0-5.8,0c-2.9,0-2.9-0.3-5.8-0.3c-2.9,0-2.9,0.4-5.8,0.4
				c-2.9,0-2.9-0.5-5.8-0.5c-2.9,0-2.9,0.2-5.8,0.2s-3.4-1.4-5.5,0.6c-2,1.9-0.6,2.5-0.6,5.2c0,2.8,0,2.8,0,5.6
				c0,2.8,0.2,2.8,0.2,5.6c0,2.8-0.2,2.8-0.2,5.6c0,2.8,0.9,2.8,0.3,5.6C989.2,196.7,987.8,197.5,989.8,199.4z M1008.4,109.2
				c0.5,2.8,0,2.8,0,5.7c0,2.9,0.5,2.9,0.5,5.7c0,2.9-2.8,4.2-0.6,6c2.6,2.2,3.6-0.5,7-0.5c3.4,0,3.4,0.1,6.8,0.1s4.4,2.5,6.9,0.3
				c2.2-1.8-0.4-3.1-0.4-5.9c0-2.9,0.3-2.9,0.3-5.7c0-2.9-0.1-2.8,0.3-5.7c0.1-0.4,0.5,0.6,0.8,0.3c0.7-0.7,1.5-2.1,0.6-2.4
				c-2.8-1-3.1,0.7-6.1,0.7c-3,0-3-0.3-6-0.3c-3,0-3,0.2-6,0.2s-3.3-1.7-6.1-0.8c-0.9,0.3,0.3,1.3,1.1,1.9
				C1008,109.3,1008.3,108.7,1008.4,109.2z"/>
		</g>
		<g>
			<path fill="none" stroke="#231F20" stroke-width="1.5" d="M1018,92.5c-0.6,2.6-0.7,2.8,0,5.3c0.2,0.6,1.2,0.6,1.4,0
				c0.6-2.6,0.5-2.7,0-5.3C1019.1,91.8,1018.2,91.8,1018,92.5z"/>
		</g>
		<g>
			<path fill="none" stroke="#231F20" stroke-width="1.5" d="M1016.4,95.2c2.1,0.6,2.3,0.6,4.4,0c0.6-0.2,0.6-1.1,0-1.3
				c-2.1-0.6-2.3-0.4-4.4,0C1015.7,94.1,1015.8,95,1016.4,95.2z"/>
		</g>
	</g>
	<g>
		<g>
			<path fill="none" stroke="#231F20" stroke-width="1.5" d="M469.4,110.5c-2.5,2.5,0,3.6,0,7.1s0,3.5,0,7.1c0,2.6-0.1,2.6-0.1,5.2
				c0,2.6,0.2,2.6,0.2,5.2c0,2.6,0,2.6,0,5.2s-2.2,3.7-0.1,5.3c2.7,2.1,3.4,0,6.9,0c3.4,0,3.4,0,6.8,0c3.4,0,3.5,0.9,6.8,0
				c0.9-0.2,0-0.9,0-1.9c0-2.8,0.2-2.8,0.2-5.5c0-2.8,0-2.8,0-5.5c0-2.8-0.1-2.8-0.1-5.5c0-2.8-0.2-2.8-0.2-5.5
				c0-2.8,0.3-2.8,0.3-5.5s1.9-3.7-0.2-5.4c-2.7-2.1-3.3-0.2-6.7-0.2c-3.4,0-3.5,0.9-6.9,0.2C472.6,109.9,471.8,108.1,469.4,110.5z"
				/>
		</g>
		<g>
			<path fill="none" stroke="#231F20" stroke-width="1.5" d="M459.7,124.3c-2.4-1.9,0.1-2.6,0.1-5.6c0-3-0.9-3-0.9-6
				c0-3,0.8-3,0.8-6c0-3-0.9-3-0.9-6c0-3,0.5-3,0.5-6c0-3-0.3-3-0.3-6c0-3,0.2-3,0.2-6c0-3,0.2-3,0.2-6c0-3-0.1-3-0.1-6
				s-0.3-3-0.3-6c0-3,0.6-3,0.6-6c0-3-0.5-3-0.5-6c0-3,0.5-3,0.5-6c0-3,0.3-3,0.3-6c0-3,0.1-3,0.1-6s1.8-4.2-0.4-6.2
				c-2.6-2.3-4.2-1.9-6.8,0.3c-2.3,2-0.3,2.8-0.3,5.8c0,3-0.3,3-0.3,6c0,3-0.1,3-0.1,6c0,3,0.5,3,0.5,6c0,3-0.4,3-0.4,6
				c0,3,0.4,3,0.4,6c0,3-0.3,3-0.3,6c0,3,0.5,3,0.5,6c0,3-0.2,3-0.2,6s0.3,3,0.3,6c0,3-0.6,3-0.6,6c0,3-0.2,3-0.2,6c0,3-0.1,3-0.1,6
				c0,3,0,3,0,6c0,3,0.4,3,0.4,6s2.3,3.9,0.2,6c-2.2,2.2-3.1-0.2-6.1-0.2c-3.1,0-3.1-0.3-6.1-0.3c-3.1,0-3.1,0.5-6.2,0.5
				c-3.1,0-4.3,2.5-6.5,0.4c-2.2-2.1-0.3-3.3-0.3-6.3c0-3,1.1-3,1.1-6c0-3-0.2-3-0.2-6c0-3,0.1-3,0.1-6c0-3-0.9-3-0.9-6
				c0-3,0.6-3,0.6-6c0-3,0-3,0-6c0-3,0.3-3,0.3-6c0-3-0.9-3-0.9-6s0.8-3,0.8-6c0-3-0.3-3-0.3-6c0-3-0.2-3-0.2-6c0-3,0.7-3,0.7-6
				c0-3-1.1-3-1.1-6c0-3,0.9-3,0.9-6s2.3-4.4,0-6.4c-2.6-2.3-4.4-1.7-7,0.5c-2.3,2,0.3,2.8,0.3,5.8c0,3-0.8,3-0.8,6c0,3-0.1,3-0.1,6
				c0,3,0.3,3,0.3,6c0,3,0.6,3,0.6,6c0,3-1.1,3-1.1,6c0,3,0.9,3,0.9,6c0,3-0.4,3-0.4,6c0,3-0.5,3-0.5,6s0.3,3,0.3,6c0,3,0.1,3,0.1,6
				c0,3,0.5,3,0.5,6c0,3-0.6,3-0.6,6c0,3-0.3,3-0.3,6c0,3,0.7,3,0.7,6s1.8,3.7-0.4,5.8c-2.2,2.2-2.8-0.1-5.9-0.1
				c-3.1,0-3.1,0.2-6.1,0.2c-3.1,0-3.1-0.1-6.2-0.1s-3.6,2.1-5.8-0.1c-2.2-2.1-0.6-2.7-0.6-5.7c0-3,0-3,0-6c0-3,0.5-3,0.5-6
				c0-3,0-3,0-6c0-3,0.1-3,0.1-6c0-3-0.4-3-0.4-6c0-3-0.3-3-0.3-6c0-3,0.2-3,0.2-6c0-3,0.7-3,0.7-6s-0.9-3-0.9-6c0-3,0.7-3,0.7-6
				c0-3-0.6-3-0.6-6c0-3-0.2-3-0.2-6c0-3,0.7-3,0.7-6c0-3-0.4-3-0.4-6s2.6-4.3,0.3-6.3c-2.6-2.3-4.6-2.1-7.2,0.1
				c-2.3,2,0.4,3.1,0.4,6.2c0,3-0.8,3-0.8,6c0,3,0,3,0,6c0,3,0.8,3,0.8,6c0,3-0.3,3-0.3,6c0,3-0.2,3-0.2,6c0,3-0.1,3-0.1,6
				c0,3,0.4,3,0.4,6c0,3-0.4,3-0.4,6s0.4,3,0.4,6c0,3,0,3,0,6c0,3,0.1,3,0.1,6c0,3,0,3,0,6c0,3-0.6,3-0.6,6c0,3,0.3,3,0.3,6
				s2.3,4.1,0.2,6.3c-1.8,2-3,0-5.8,0c-2.7,0-2.7-0.6-5.5-0.6c-2.7,0-2.7-0.1-5.5-0.1c-2.7,0-2.7,1-5.5,1c-2.7,0-3.3-2.2-5.3-0.3
				c-1.9,1.8-0.4,2.4-0.4,5.1c0,2.6,0.5,2.6,0.5,5.2c0,2.6-0.2,2.6-0.2,5.2s-2.4,3.9-0.5,5.7c2.2,1.9,3.3-0.5,6.2-0.5
				c2.9,0,2.9,0.1,5.8,0.1c2.9,0,2.9-0.4,5.8-0.4c2.9,0,2.9,0.7,5.8,0.7c2.9,0,2.9-0.2,5.8-0.2c2.9,0,2.9-0.2,5.8-0.2
				c2.9,0,2.9-0.2,5.8-0.2c2.9,0,2.9,0.3,5.8,0.3c2.9,0,2.9,0,5.8,0c2.9,0,2.9,0.3,5.8,0.3c2.9,0,2.9-0.2,5.8-0.2
				c2.9,0,2.9-0.1,5.8-0.1c2.9,0,2.9-0.5,5.8-0.5c2.9,0,2.9,0.7,5.8,0.7c2.9,0,2.9,0.3,5.8,0.3c2.9,0,2.9-0.2,5.8-0.2
				c2.9,0,2.9-0.4,5.8-0.4c2.9,0,4,2.5,6.2,0.6c1.9-1.7-0.7-3-0.7-5.6c0-2.6-0.1-2.6-0.1-5.2c0-2.6,0.5-2.6,0.5-5.2
				c0-2.6,2.1-3.8,0-5.3C464.1,122.2,462.7,126.6,459.7,124.3z"/>
		</g>
	</g>
	<g>
		<g>
			<path fill="none" stroke="#231F20" stroke-width="1.5" d="M502,170.9c2-2-0.2-2.9-0.2-5.8c0-2.9,0.2-2.9,0.2-5.7
				c0-2.9-0.3-2.9-0.3-5.8s2-3.5,0-5.6c-2-2-2.7-0.1-5.5-0.1c-2.8,0-2.8-0.2-5.6-0.2c-2.8,0-2.8,0.1-5.6,0.1c-2.8,0-2.8,0.2-5.6,0.2
				c-2.8,0-2.8,0-5.6,0c-2.8,0-2.8-0.5-5.6-0.5c-2.8,0-2.8,0.1-5.7,0.1c-2.8,0-2.8-0.1-5.7-0.1s-3.6-1.7-5.6,0.3
				c-2,2-0.2,2.8-0.2,5.7c0,2.9,0.1,2.9,0.1,5.7c0,2.9-0.1,2.9-0.1,5.8s-1.9,3.6,0.1,5.7c2,2,2.8-0.1,5.6-0.1c2.8,0,2.8,0.2,5.6,0.2
				c2.8,0,2.8,0.2,5.6,0.2c2.8,0,2.8-0.4,5.6-0.4c2.8,0,2.8,0,5.6,0c2.8,0,2.8,0.4,5.6,0.4c2.8,0,2.8-0.4,5.7-0.4
				c2.8,0,2.9-0.4,5.7,0.2C499.2,171.5,500,172.9,502,170.9z"/>
		</g>
		<g>
			<path fill="none" stroke="#231F20" stroke-width="1.5" d="M362.4,147.8c-2,2,0.1,2.9,0.1,5.8c0,2.9-0.1,2.9-0.1,5.7
				s-0.1,2.9-0.1,5.7c0,2.9,0.1,2.9,0.1,5.7c0,2.9,0.3,2.9,0.3,5.7c0,2.9-0.1,2.9-0.1,5.7c0,2.9-0.3,2.9-0.3,5.7
				c0,2.9,0.1,2.9,0.1,5.7c0,2.9-1.7,3.5,0.3,5.6c2,2,2.7-0.1,5.6-0.1c2.9,0,2.9,0.1,5.7,0.1c2.9,0,2.9,0,5.7,0
				c2.9,0,2.9,0.3,5.7,0.3c2.9,0,2.9-0.5,5.7-0.5c2.9,0,2.9,0.3,5.7,0.3c2.9,0,2.9,0.1,5.7,0.1c2.9,0,2.9-0.3,5.7-0.3
				c2.9,0,3.8,2.3,5.8,0.3c2-2-0.1-3-0.1-5.8c0-2.9-0.2-2.9-0.2-5.7c0-2.9,0.2-2.9,0.2-5.7c0-2.9-0.1-2.9-0.1-5.7
				c0-2.9,0.2-2.9,0.2-5.7c0-2.9-0.1-2.9-0.1-5.7c0-2.9,0.1-2.9,0.1-5.7c0-2.9,0-2.9,0-5.7c0-2.9,1.9-3.6-0.1-5.6
				c-2-2-2.8,0.1-5.6,0.1c-2.9,0-2.9-0.3-5.7-0.3c-2.9,0-2.9,0.2-5.7,0.2c-2.9,0-2.9-0.2-5.7-0.2c-2.9,0-2.9,0-5.7,0
				c-2.9,0-2.9,0.2-5.7,0.2c-2.9,0-2.9-0.2-5.7-0.2c-2.9,0-2.9,0.7-5.7,0.1C365.1,147.2,364.4,145.8,362.4,147.8z"/>
		</g>
		<g>
			<path fill="none" stroke="#231F20" stroke-width="1.5" d="M537.1,199.3c0-2.9,0-2.9,0-5.7c0-2.9,0-2.9,0-5.7
				c0-2.9,0.3-2.9,0.3-5.7c0-2.9-0.1-2.9-0.1-5.7c0-2.9-0.3-2.9-0.3-5.7c0-2.9,0.7-2.9,0.7-5.7c0-2.9-0.2-2.9-0.2-5.7
				c0-2.9-0.7-2.9-0.7-5.7c0-2.9,2.8-3.9,0.8-5.9c-1.9-2-3-0.2-5.7-0.2c-2.8,0-2.8-0.2-5.5-0.2c-2.8,0-2.8,0.3-5.5,0.3
				c-2.8,0-2.8,0.5-5.5,0.5c-2.8,0-2.8,0-5.5,0c-2.8,0-3.3-1.9-5.2,0.2c-2.1,2.4-0.5,2.8-0.5,6c0,3.2-0.3,3.2-0.3,6.3
				c0,3.2,0.3,3.2,0.3,6.3c0,3.2,2.1,3.9-0.1,6.1c-2.1,2.2-2.9,0-6,0c-3.1,0-3.1-0.3-6.2-0.3s-3.1,0.7-6.2,0.7c-3.1,0-3.1,0-6.2,0
				c-3.1,0-3.1,0.2-6.2,0.2c-3.1,0-3.1-0.5-6.2-0.5c-3.1,0-3.1,0.4-6.2,0.4c-3.1,0-3.1-0.2-6.2-0.2s-4,2-6.1-0.2
				c-2.2-2.3-0.1-3.1-0.1-6.3c0-3.2-0.3-3.2-0.3-6.3c0-3.2,0.3-3.2,0.3-6.3s2.1-3.8-0.2-6c-2.3-2.3-3-0.4-6.2-0.4
				c-3.2,0-3.2,0.7-6.5,0.7c-3.2,0-3.2-1.2-6.5-1.2c-3.2,0-3.2,0.9-6.5,0.9c-3.2,0-3.7-2-6.1,0.1c-2.1,1.9,0.1,2.4,0.1,5.3
				c0,2.9-0.4,2.9-0.4,5.7s-0.5,2.9-0.5,5.7c0,2.9,1,2.9,1,5.7c0,2.9-0.6,2.9-0.6,5.7c0,2.9,0.6,2.9,0.6,5.7c0,2.9-0.4,2.9-0.4,5.7
				c0,2.9,0.3,2.9,0.3,5.7c0,2.9-0.7,2.9-0.7,5.7"/>
		</g>
	</g>
	<g>
		<path fill="none" stroke="#231F20" stroke-width="1.5" d="M323.2,152.6c-1.1-2.7,0.8-3.1,0.8-6c0-2.9-0.9-2.9-0.9-5.9
			c0-2.9,1.4-3.1,0.4-5.8c-0.9-2.4-2.2-1.5-3.2-3.9c-1-2.5-0.1-2.6-0.1-5.3c0-2.7-0.4-2.7-0.4-5.5s1.3-3-0.2-5.3
			c-1-1.5-2.4,1.5-3.7,0.2c-1.3-1.3,1.4-2.5,0.1-3.8c-1.3-1.3-2.3,1.3-3.6,0c-1.3-1.3,2-3.3,0.3-4.1c-3.6-1.7-5,2.8-8,0.3
			c-2.5-2,1.4-3.6-0.2-6.4c-0.9-1.6-2.2,1.2-3.5-0.1c-1.3-1.2,1-2.1-0.2-3.3c-1.3-1.3-2.4,1.3-3.7,0c-1.3-1.3,2.1-3.4,0.6-4.4
			c-2.3-1.5-3.6-1.3-5.9,0.3c-1.5,1,1.5,2.6,0.2,3.9c-1.3,1.3-2.2-1.1-3.5,0.2c-1.3,1.2,0.9,2-0.3,3.2c-1.3,1.3-2.7-1.6-3.7,0
			c-1.6,2.8,2.8,4.8,0.3,6.8c-3,2.5-4.7-2.3-8.2-0.7c-1.7,0.8,1.2,2.4-0.1,3.7c-1.3,1.3-2-0.9-3.3,0.4c-1.3,1.3,1.4,2.5,0.1,3.8
			c-1.3,1.3-2.9-1.8-3.9-0.3c-1.5,2.3,0.3,2.7,0.3,5.4c0,2.7-0.7,2.7-0.7,5.5c0,2.7,1,2.8,0,5.4c-1,2.4-2.7,1.3-3.6,3.7
			c-1.1,2.7,0.3,3,0.3,5.9c0,2.9-0.3,2.9-0.3,5.9c0,2.9,1.5,3.2,0.4,5.9c-0.9,2.4-3.4,1-4.3,3.5c-1.1,2.9,0.7,3.2,0.7,6.3
			c0,3.1-0.2,3.1-0.2,6.2c0,3.1-0.6,3.1-0.6,6.2c0,3.1,0.9,3.1,0.9,6.2c0,3.1-0.5,3.1-0.5,6.2c0,3.1,0.2,3.1,0.2,6.2
			c0,3.1-2.4,4.1-0.2,6.3c2.2,2.2,3.2,0.1,6.3,0.1c3.1,0,3.1,0.1,6.2,0.1c3.1,0,3.1-0.1,6.2-0.1s3.1-0.2,6.2-0.2
			c3.1,0,3.1,0.3,6.2,0.3c3.1,0,3.1-0.1,6.2-0.1c3.1,0,3.1-0.1,6.2-0.1c3.1,0,3.1,0.4,6.2,0.4c3.1,0,3.1,0,6.2,0s3.1-0.4,6.2-0.4
			c1.8,0,2.4,1.3,3.4-0.3c1.6-2.6,0.5-2.9,0.5-6c0-3.1,0-3.1,0-6.2c0-3.1,0.2-3.1,0.2-6.2c0-3.1,0-3.1,0-6.2c0-3.1-0.9-3.1-0.9-6.2
			c0-3.1,0-3.1,0-6.2c0-3.1,2-3.4,0.7-6.3C326.5,153.5,324.2,155.1,323.2,152.6z M294.2,147.4c-2.2,0-3.7-2.3-3.7-4.6
			c0-2.2,1.5-4.6,3.7-4.6c2.2,0,4.2,2.3,4.2,4.6C298.4,145.1,296.4,147.4,294.2,147.4z"/>
	</g>
	<g>
		<g>
			<path fill="none" stroke="#231F20" stroke-width="1.5" d="M666.1,199c-2.1,2.2-2.7,0.6-5.8,0.6c-3.1,0-3.1-0.4-6.1-0.4
				c-3.1,0-3.1,0.4-6.1,0.4c-3.1,0-3.1-0.4-6.1-0.4c-3.1,0-3.1,0-6.1,0c-3.1,0-3.1-0.4-6.1-0.4c-3.1,0-3.1,0.9-6.1,0.9
				c-3.1,0-3.1-0.9-6.1-0.9c-3.1,0-3.1,0.1-6.1,0.1s-3.1,0.8-6.1,0.8c-3.1,0-3.1-0.3-6.1-0.3c-3.1,0-3.1-0.5-6.1-0.5
				c-3.1,0-3.1,0.8-6.1,0.8c-3.1,0-3.1-0.3-6.1-0.3c-3.1,0-3.1-0.1-6.1-0.1c-3.1,0-4.2,2.3-6.3,0.1c-2.2-2.3,0.1-3.4,0.1-6.5
				c0-3.2,0.2-3.2,0.2-6.3c0-3.2-0.1-3.2-0.1-6.3c0-3.2,0-3.2,0-6.3c0-3.2-0.3-3.2-0.3-6.3c0-3.2,0.3-3.2,0.3-6.3
				c0-3.2-2.3-4.2-0.1-6.5c2.1-2.2,3.2,0.5,6.3,0.5c3.1,0,3.1-0.4,6.1-0.4c3.1,0,3.1,0.5,6.1,0.5c3.1,0,3.1,0,6.1,0
				c3.1,0,3.1,0,6.1,0c3.1,0,3.1-0.5,6.1-0.5c3.1,0,3.1-0.1,6.1-0.1c3.1,0,3.1,0.2,6.1,0.2c3.1,0,3.1,0.2,6.1,0.2s3.1-0.8,6.1-0.8
				c3.1,0,3.1,0.9,6.1,0.9c3.1,0,3.1-0.8,6.1-0.8c3.1,0,3.1,0,6.1,0c3.1,0,3.1,0.5,6.1,0.5c3.1,0,3.1,0,6.1,0c3.1,0,3.9-2.3,6.1-0.1
				c2.2,2.3-0.3,3.1-0.3,6.3c0,3.2,0,3.2,0,6.3c0,3.2,0.4,3.2,0.4,6.3c0,3.2,0.3,3.2,0.3,6.3c0,3.2-0.3,3.2-0.3,6.3
				c0,3.2-0.7,3.2-0.1,6.3C666.9,196.2,668.3,196.7,666.1,199z"/>
		</g>
		<g>
			<path fill="none" stroke="#231F20" stroke-width="1.5" d="M623.1,92.4c0-1.6,0-3.9-0.1-6.5c-0.1-2-0.5-4.2-0.7-6.4
				c-0.2-2.2-0.2-4.4-0.5-6.4c-0.4-2.3-1-4.4-1.6-6.2c-0.9-2.9-1.9-5-3.5-5c-1.6,0-2.8,2-3.7,4.9c-0.6,1.8-1.1,3.9-1.5,6.2
				c-0.3,2-0.3,4.2-0.5,6.4c-0.2,2.2-0.3,4.4-0.4,6.4c-0.1,2.5-0.4,4.7-0.4,6.4c0,0,0,0,0,0c-1.3,1.4-4.2,1.7-2.7,2.9
				c2.3,1.9,3.1-0.2,6.1-0.2c3,0,3-0.1,6-0.1c3,0,3.1,0.9,6,0.3C627.2,94.6,624,93.8,623.1,92.4z"/>
		</g>
		<g>
			<g>
				<path fill="none" stroke="#231F20" stroke-width="1.5" d="M572.5,142.7c-1.9,0.7-2.8-1.5-4.1,0c-1.6,1.9,0,2.6,0,5.1
					s-1.8,3.4,0.1,5c2.1,1.9,2.9,0,5.7,0c2.8,0,2.8-0.1,5.7-0.1c2.8,0,2.8,0,5.6,0c2.8,0,2.8,0.1,5.7,0.1c2.8,0,2.8-0.2,5.7-0.2
					c2.8,0,2.8,0.1,5.7,0.1s3.9,2.2,5.8,0.1c2.1-2.4-0.2-3.3-0.2-6.5c0-3.2,0-3.2,0-6.4c0-3.2-0.2-3.2-0.2-6.4
					c0-3.2,2.6-4.3,0.3-6.5c-2.5-2.3-3.5,0-6.9,0c-3.4,0-3.5-0.6-6.7,0.3c-2.6,0.7-2.2,1.5-4.4,3.1c-2.2,1.6-2.2,1.5-4.4,3.1
					c-2.2,1.6-2.2,1.6-4.4,3.2c-2.2,1.6-2.3,1.4-4.4,3.1C575,141.5,575.1,141.8,572.5,142.7z"/>
			</g>
			<g>
				<path fill="none" stroke="#231F20" stroke-width="1.5" d="M610.3,152.8c2.3,2.2,3.2-0.1,6.5-0.1s4.2,2.4,6.6,0.2
					c2.2-2.1-0.1-3.2-0.1-6.3c0-3.1,0.2-3.1,0.2-6.2c0-3.1-0.1-3.1-0.1-6.2c0-3.1,0-3.1,0-6.2c0-3.1,0-3.1,0-6.2c0-3.1,0-3.1,0-6.2
					c0-3.1-0.3-3.1-0.3-6.2c0-3.1-0.1-3.1-0.1-6.2s2.5-4.1,0.3-6.2c-2.3-2.2-3.3,0.3-6.5,0.3s-4.1-2.4-6.4-0.2
					c-2.2,2.1,0.2,3,0.2,6.1c0,3.1-0.5,3.1-0.5,6.2c0,3.1,0.3,3.1,0.3,6.2c0,3.1,0.2,3.1,0.2,6.2c0,3.1,0.1,3.1,0.1,6.2
					c0,3.1-0.1,3.1-0.1,6.2c0,3.1-0.4,3.1-0.4,6.2c0,3.1,0.8,3.1,0.1,6.2C609.4,149.8,608,150.7,610.3,152.8z M613.6,100.3
					c2.1-2.1,3.9-2.2,6,0c2.1,2.1,2,3.8-0.2,5.9c-2.1,2.1-3.2,1.4-5.9,0.1C610.8,104.8,611.5,102.4,613.6,100.3z"/>
			</g>
			<g>
				<path fill="none" stroke="#231F20" stroke-width="1.5" d="M662.5,142.8c-2.5-1-2.3-1.4-4.5-3c-2.2-1.6-2.2-1.6-4.4-3.1
					c-2.2-1.6-2.1-1.8-4.3-3.4c-2.2-1.6-2.3-1.5-4.5-3.1c-2.2-1.6-1.8-2.4-4.4-3.3c-2.4-0.8-2.6,0.2-5.1,0.2c-2.5,0-2.5-0.3-5-0.3
					c-2.5,0-3.5-1.8-5,0.2c-2,2.5,0.1,3.2,0.1,6.4c0,3.2-0.2,3.2-0.2,6.4c0,3.2,0.1,3.2,0.1,6.4s-2.1,3.9,0.1,6.3
					c2,2.2,2.8,0.3,5.7,0.3s2.9-0.2,5.9-0.2c2.9,0,2.9-0.1,5.9-0.1c2.9,0,2.9,0.1,5.9,0.1c2.9,0,2.9,0.3,5.9,0.3
					c2.9,0,2.9-0.3,5.9-0.3s3.6,1.9,5.8,0c1.9-1.6,0.1-2.4,0.1-4.9s1-2.7,0-4.9C665.5,141.1,664.4,143.5,662.5,142.8z"/>
			</g>
		</g>
	</g>
</g>
</svg>
