<?xml version="1.0" encoding="utf-8"?>
<!-- Generator: Adobe Illustrator 18.0.0, SVG Export Plug-In . SVG Version: 6.00 Build 0)  -->
<!DOCTYPE svg PUBLIC "-//W3C//DTD SVG 1.1//EN" "http://www.w3.org/Graphics/SVG/1.1/DTD/svg11.dtd">
<svg version="1.1" id="Layer_1" xmlns="http://www.w3.org/2000/svg" xmlns:xlink="http://www.w3.org/1999/xlink" x="0px" y="0px"
	 viewBox="0 0 814.4 197.6" enable-background="new 0 0 814.4 197.6" xml:space="preserve">
<g>
	<path fill="#F60674" d="M56.9,32.3h44.9v20H90.2v50H68.4v-50H56.9V32.3z"/>
	<path fill="#F60674" d="M151.5,75.7h-22.4c1.3,2.9,3.1,5,5.6,6.2c2.5,1.2,5.3,1.8,8.4,1.8h8.4v18.6h-11c-4.2,0-8.4-0.7-12.6-2.2
		c-4.2-1.5-8-3.7-11.4-6.6c-3.4-2.9-6.2-6.6-8.2-11.1c-2.1-4.4-3.1-9.5-3.1-15.1c0-5.7,1-10.8,3.1-15.2c2.1-4.4,4.8-8.1,8.2-11
		c3.4-3,7.2-5.2,11.4-6.6c4.2-1.4,8.4-2.1,12.6-2.1h11v18.6h-8.4c-3.1,0-5.9,0.6-8.4,1.8c-2.5,1.2-4.3,3.3-5.6,6.2h22.4V75.7z"/>
	<path fill="#F60674" d="M159.9,102.3V58.1c0-8.7,2.3-15.3,7-20c4.7-4.7,11.2-7,19.7-7c3,0,6,0.5,9,1.5s5.7,2.5,8.1,4.4
		s4.4,4.2,5.8,6.9c1.4,2.7,2.1,5.6,2.1,8.7c0,2.7-0.6,5.3-1.8,8c-1.2,2.7-2.8,4.8-4.9,6.5c2.7,1,4.7,2.7,5.9,5.1
		c1.2,2.4,1.8,5.5,1.8,9.1v21h-21.8V84.8c0-2.6-0.4-4.4-1.2-5.4s-2.5-1.5-5-1.5V61.1c1.9,0,3.6-0.4,5-1.1c1.4-0.8,2-2,2-3.9
		c0-1.7-0.4-2.9-1.2-3.8c-0.8-0.9-2.1-1.4-3.8-1.4c-1.8,0-3.1,0.4-3.8,1.4c-0.8,0.9-1.2,2.6-1.2,5.2v44.8H159.9z"/>
	<path fill="#F60674" d="M221.4,102.3v-70h21.8v25.1c0.9-0.1,1.6-0.3,2-0.8c0.4-0.5,0.9-1.4,1.3-2.9l7.1-21.4h21.9l-6.9,21.1
		c-0.9,2.8-1.9,4.9-2.8,6.2c-0.9,1.4-1.9,2.5-2.9,3.5H263c3.1,1.1,5.6,2.7,7.7,4.9c2.1,2.2,3.1,4.6,3.1,7.5v26.8H252V78.1
		c0-2.9-2.9-4.3-8.8-4.3v28.5H221.4z"/>
	<path fill="#F60674" d="M329.3,75.7h-22.4c1.3,2.9,3.1,5,5.6,6.2c2.5,1.2,5.3,1.8,8.4,1.8h8.4v18.6h-11c-4.2,0-8.4-0.7-12.6-2.2
		c-4.2-1.5-8-3.7-11.5-6.6c-3.4-2.9-6.2-6.6-8.2-11.1c-2.1-4.4-3.1-9.5-3.1-15.1c0-5.7,1-10.8,3.1-15.2c2.1-4.4,4.8-8.1,8.2-11
		c3.4-3,7.2-5.2,11.5-6.6c4.2-1.4,8.4-2.1,12.6-2.1h11v18.6h-8.4c-3.1,0-5.9,0.6-8.4,1.8c-2.5,1.2-4.3,3.3-5.6,6.2h22.4V75.7z"/>
	<path fill="#F60674" d="M377.9,102.3h-19.2c-6.1,0-11-1.9-15-5.8c-3.9-3.8-5.8-8.8-5.8-14.9V32.3h21.8v43.2c0,1.5,0.1,2.7,0.5,3.6
		c0.3,0.9,0.9,1.5,1.8,2c0.9,0.5,2.3,0.8,4.1,1c1.8,0.2,4.4,0.2,7.7,0.2h4.1V102.3z"/>
	<path fill="#F60674" d="M412.7,102.3v-70h21.8v70H412.7z"/>
	<path fill="#F60674" d="M475,102.3v-70h21.8v25.1c0.9-0.1,1.6-0.3,2-0.8c0.4-0.5,0.9-1.4,1.3-2.9l7.1-21.4h21.9l-6.9,21.1
		c-0.9,2.8-1.9,4.9-2.8,6.2c-0.9,1.4-1.9,2.5-2.9,3.5h-0.1c3.1,1.1,5.6,2.7,7.7,4.9c2.1,2.2,3.1,4.6,3.1,7.5v26.8h-21.8V78.1
		c0-2.9-2.9-4.3-8.8-4.3v28.5H475z"/>
	<path fill="#F60674" d="M560.1,102.3h-21.8V43.7c0-2.3,0.4-4.3,1.1-6c0.8-1.7,1.8-3,3-3.9c1.2-1,2.5-1.7,3.8-2.1
		c1.3-0.4,2.6-0.6,3.9-0.6c2.9,0,5.4,0.8,7.7,2.5c2.3,1.6,3.9,3.5,5,5.6L574,61.3h0.2v-29H596v58.8c0,2.3-0.4,4.3-1.1,6
		c-0.8,1.7-1.8,3-3,4c-1.2,1-2.5,1.6-3.8,2c-1.3,0.4-2.6,0.6-3.9,0.6c-2.9,0-5.4-0.8-7.7-2.4c-2.3-1.6-3.9-3.5-5-5.7l-11.2-22.1
		h-0.2V102.3z"/>
	<path fill="#F60674" d="M606.2,102.3v-70H628v70H606.2z"/>
	<path fill="#F60674" d="M637.7,102.3V54.5c0-7,2.4-12.7,7.2-17c4.8-4.3,11.3-6.5,19.4-6.5c3.1,0,6.2,0.5,9.1,1.5
		c2.9,1,5.6,2.4,7.9,4.2c2.3,1.8,4.2,4.1,5.5,6.8c1.4,2.7,2,5.6,2,8.9c0,2.4-0.3,4.5-1,6.4c-0.7,1.8-1.8,3.7-3.5,5.5
		c5.9,3.6,8.9,9.3,8.9,17.1c0,6.5-2.1,11.6-6.2,15.4c-4.1,3.7-9.3,5.5-15.7,5.5h-9V83.7c2.3-0.1,4.3-0.5,5.9-1.2
		c1.6-0.7,2.4-1.9,2.4-3.8c0-1.1-0.2-1.9-0.8-2.5c-0.5-0.6-1.2-1.1-2-1.4c-0.8-0.3-1.7-0.5-2.5-0.6c-0.8-0.1-1.9-0.1-3.1-0.1V58.7
		c1.5,0,2.8-0.4,3.7-1.2c0.9-0.8,1.3-2,1.3-3.4c0-1.1-0.4-1.9-1.3-2.6c-0.9-0.6-1.8-0.9-2.9-0.9c-1.3,0-2.3,0.4-2.9,1.2
		c-0.6,0.8-0.9,2.2-0.9,4.1v46.4H637.7z"/>
	<path fill="#F60674" d="M745.9,75.7h-22.4c1.3,2.9,3.1,5,5.6,6.2c2.5,1.2,5.3,1.8,8.4,1.8h8.4v18.6h-11c-4.2,0-8.4-0.7-12.6-2.2
		c-4.2-1.5-8-3.7-11.5-6.6c-3.4-2.9-6.2-6.6-8.2-11.1c-2.1-4.4-3.1-9.5-3.1-15.1c0-5.7,1-10.8,3.1-15.2c2.1-4.4,4.8-8.1,8.2-11
		c3.4-3,7.2-5.2,11.5-6.6c4.2-1.4,8.4-2.1,12.6-2.1h11v18.6h-8.4c-3.1,0-5.9,0.6-8.4,1.8c-2.5,1.2-4.3,3.3-5.6,6.2h22.4V75.7z"/>
</g>
<g>
	<path fill="#F60674" d="M159.5,166.3h-8.3V144c0-0.9,0.1-1.6,0.4-2.3c0.3-0.6,0.7-1.1,1.1-1.5s0.9-0.6,1.4-0.8
		c0.5-0.2,1-0.2,1.5-0.2c1.1,0,2.1,0.3,2.9,0.9c0.9,0.6,1.5,1.3,1.9,2.1l4.3,8.4h0.1v-11h8.3V162c0,0.9-0.1,1.6-0.4,2.3
		c-0.3,0.6-0.7,1.1-1.1,1.5c-0.5,0.4-0.9,0.6-1.4,0.8c-0.5,0.2-1,0.2-1.5,0.2c-1.1,0-2.1-0.3-2.9-0.9c-0.9-0.6-1.5-1.3-1.9-2.1
		l-4.3-8.4h-0.1V166.3z"/>
	<path fill="#F60674" d="M194.4,147.3v11.4c0,2.3-0.8,4.2-2.4,5.8c-1.6,1.5-3.8,2.3-6.6,2.3s-5-0.8-6.6-2.3
		c-1.6-1.5-2.4-3.5-2.4-5.8v-11.4h7.6v10.2c0,0.8,0.1,1.4,0.3,1.7c0.2,0.3,0.6,0.5,1,0.5s0.8-0.2,1-0.5s0.3-0.9,0.3-1.7v-10.2H194.4
		z"/>
	<path fill="#F60674" d="M208.7,173.9v-15c0-2.1,0.3-3.9,0.8-5.4c0.5-1.5,1.3-2.8,2.2-3.8c1-1,2.1-1.7,3.3-2.2s2.6-0.7,4.1-0.7
		c1.3,0,2.6,0.2,3.8,0.7c1.2,0.5,2.2,1.2,3.2,2.1c0.9,0.9,1.6,2,2.1,3.2c0.5,1.3,0.8,2.6,0.8,4.1c0,1.4-0.2,2.6-0.6,3.8
		c-0.4,1.2-1.1,2.2-1.9,3.1c-0.8,0.9-1.8,1.6-2.9,2.1c-1.1,0.5-2.4,0.7-3.8,0.7c-1,0-1.9-0.1-2.6-0.2v-7.5c0.7,0.3,1.4,0.4,1.9,0.4
		c0.7,0,1.3-0.3,1.9-0.8c0.6-0.5,0.9-1.2,0.9-2c0-0.8-0.3-1.5-0.8-2c-0.5-0.5-1.1-0.8-1.9-0.8c-0.8,0-1.5,0.3-2,0.9
		c-0.5,0.6-0.8,1.4-0.8,2.5v16.5H208.7z"/>
	<path fill="#F60674" d="M244.8,166.3v-9.5c0-0.8-0.3-1.5-0.8-2c-0.6-0.5-1.2-0.8-2-0.8c-0.7,0-1.4,0.2-1.9,0.7
		c-0.5,0.5-0.8,1.2-0.8,2c0,0.8,0.2,1.5,0.7,2c0.5,0.5,1.1,0.8,1.7,0.8c0.6,0,1.2-0.1,2-0.4v7.4c-1.1,0.1-2,0.2-2.6,0.2
		c-1.3,0-2.5-0.2-3.7-0.7c-1.2-0.5-2.2-1.2-3-2.1s-1.6-1.9-2.1-3s-0.7-2.3-0.7-3.6c0-1.5,0.3-3,0.8-4.3c0.5-1.3,1.2-2.4,2.1-3.3
		s2-1.6,3.2-2.1c1.2-0.5,2.5-0.8,3.8-0.8c1.5,0,2.9,0.2,4.2,0.7s2.5,1.2,3.5,2.2c1,1,1.8,2.2,2.4,3.8c0.6,1.5,0.9,3.4,0.9,5.4v7.4
		H244.8z M244.8,139.2c0.8,0.7,1.1,1.7,1.1,2.7s-0.4,2-1.1,2.7c-0.8,0.7-1.7,1.1-2.7,1.1c-1.1,0-2-0.4-2.7-1.1
		c-0.8-0.7-1.1-1.7-1.1-2.7s0.4-2,1.1-2.7c0.8-0.7,1.7-1.1,2.7-1.1C243.1,138,244,138.4,244.8,139.2z M241.3,141.1
		c-0.2,0.2-0.3,0.4-0.3,0.7c0,0.3,0.1,0.5,0.3,0.7c0.2,0.2,0.5,0.3,0.8,0.3s0.6-0.1,0.8-0.3c0.2-0.2,0.3-0.4,0.3-0.7
		c0-0.3-0.1-0.5-0.3-0.7c-0.2-0.2-0.5-0.3-0.8-0.3S241.5,140.9,241.3,141.1z"/>
	<path fill="#F60674" d="M274.3,139.7v16.5c0,1.1,0.3,1.9,0.8,2.5c0.5,0.6,1.2,0.9,2,0.9c0.7,0,1.4-0.3,1.9-0.8
		c0.5-0.5,0.8-1.2,0.8-2c0-0.8-0.3-1.5-0.9-2c-0.6-0.5-1.2-0.8-1.9-0.8c-0.5,0-1.1,0.1-1.9,0.4V147c0.7-0.1,1.6-0.2,2.6-0.2
		c1.4,0,2.7,0.2,3.8,0.7c1.1,0.5,2.1,1.2,2.9,2.1c0.8,0.9,1.5,1.9,1.9,3.1c0.4,1.2,0.6,2.5,0.6,3.8c0,1.5-0.3,2.9-0.8,4.1
		s-1.2,2.3-2.1,3.2s-2,1.6-3.2,2.1c-1.2,0.5-2.5,0.7-3.8,0.7c-1.4,0-2.8-0.2-4.1-0.7c-1.3-0.5-2.4-1.2-3.3-2.2c-1-1-1.7-2.2-2.2-3.8
		s-0.8-3.3-0.8-5.4v-14.9H274.3z"/>
	<path fill="#F60674" d="M303.5,147.6c1.2,0.5,2.3,1.2,3.2,2.1s1.6,2,2.2,3.2c0.5,1.2,0.8,2.5,0.8,3.8c0,1.3-0.3,2.6-0.8,3.8
		c-0.5,1.2-1.2,2.3-2.2,3.2c-0.9,0.9-2,1.6-3.2,2.1c-1.2,0.5-2.5,0.8-3.8,0.8s-2.6-0.3-3.8-0.8c-1.2-0.5-2.3-1.2-3.2-2.2
		c-0.9-0.9-1.6-2-2.2-3.2c-0.5-1.2-0.8-2.5-0.8-3.8c0-1.3,0.3-2.6,0.8-3.8c0.5-1.2,1.2-2.3,2.2-3.2c0.9-0.9,2-1.6,3.2-2.1
		s2.5-0.8,3.8-0.8S302.3,147.1,303.5,147.6z M298,155.1c-0.5,0.5-0.7,1.1-0.7,1.7c0,0.7,0.2,1.2,0.7,1.7c0.5,0.5,1.1,0.7,1.7,0.7
		c0.7,0,1.2-0.2,1.7-0.7c0.5-0.5,0.7-1.1,0.7-1.7c0-0.7-0.2-1.2-0.7-1.7c-0.5-0.5-1.1-0.7-1.7-0.7
		C299.1,154.4,298.5,154.6,298,155.1z"/>
	<path fill="#F60674" d="M312.5,139.7h7.6v26.6h-7.6V139.7z"/>
	<path fill="#F60674" d="M330,138.1c0.9,0.9,1.3,1.9,1.3,3.2c0,1.2-0.4,2.3-1.3,3.2c-0.9,0.9-1.9,1.3-3.2,1.3
		c-1.2,0-2.3-0.4-3.2-1.3c-0.9-0.9-1.3-1.9-1.3-3.2c0-1.2,0.4-2.3,1.3-3.2c0.9-0.9,1.9-1.3,3.2-1.3
		C328.1,136.8,329.1,137.3,330,138.1z M323,166.3v-19h7.6v19H323z"/>
	<path fill="#F60674" d="M335.3,167c0.2,0.1,0.5,0.1,1.1,0.2c2.3,0.5,4,0.8,5.2,0.8c1.1,0,2.1-0.2,3-0.7s1.3-1.1,1.3-2v-8.7
		c0-0.8-0.2-1.4-0.7-1.8c-0.5-0.4-1.1-0.6-1.7-0.6c-0.7,0-1.2,0.2-1.7,0.6s-0.7,1-0.7,1.8s0.2,1.4,0.7,1.8s1.1,0.6,1.7,0.6
		c0.5,0,1-0.1,1.4-0.3v7c-0.9,0.4-1.8,0.5-2.7,0.5c-1.3,0-2.4-0.3-3.5-0.8c-1.1-0.5-2-1.2-2.8-2.1c-0.8-0.9-1.4-1.9-1.8-3.1
		c-0.4-1.2-0.6-2.3-0.6-3.6c0-1.4,0.3-2.7,0.8-3.9c0.5-1.2,1.2-2.3,2.2-3.2c0.9-0.9,2-1.6,3.2-2.1c1.2-0.5,2.5-0.7,3.9-0.7
		c1.2,0,2.4,0.2,3.6,0.7s2.3,1.1,3.3,1.9c1,0.8,1.7,1.8,2.3,2.9c0.6,1.1,0.9,2.3,0.9,3.5v9.4c0,2.8-0.9,5.1-2.8,6.7
		c-1.8,1.6-4.4,2.4-7.7,2.4c-1.4,0-2.7-0.1-3.7-0.2c-1.1-0.1-2.4-0.4-4-0.8V167z"/>
	<path fill="#F60674" d="M364.2,147.3v18.4c0,2.4-0.6,4.4-1.9,5.9c-1.3,1.5-3.2,2.3-5.8,2.3h-4v-6.6h2.5c0.6,0,1.1-0.2,1.3-0.5
		c0.2-0.3,0.3-0.9,0.3-1.8v-17.8H364.2z M363.6,138.1c0.9,0.9,1.3,1.9,1.3,3.2c0,1.2-0.4,2.3-1.3,3.2c-0.9,0.9-1.9,1.3-3.2,1.3
		c-1.2,0-2.3-0.4-3.2-1.3c-0.9-0.9-1.3-1.9-1.3-3.2c0-1.2,0.4-2.3,1.3-3.2c0.9-0.9,1.9-1.3,3.2-1.3
		C361.7,136.8,362.7,137.3,363.6,138.1z"/>
	<path fill="#F60674" d="M380.2,166.3v-9.5c0-0.8-0.3-1.5-0.8-2c-0.6-0.5-1.2-0.8-2-0.8c-0.7,0-1.4,0.2-1.9,0.7
		c-0.5,0.5-0.8,1.2-0.8,2c0,0.8,0.2,1.5,0.7,2c0.5,0.5,1.1,0.8,1.7,0.8c0.6,0,1.2-0.1,2-0.4v7.4c-1.1,0.1-2,0.2-2.6,0.2
		c-1.3,0-2.5-0.2-3.7-0.7c-1.2-0.5-2.2-1.2-3-2.1s-1.6-1.9-2.1-3s-0.7-2.3-0.7-3.6c0-1.5,0.3-3,0.8-4.3c0.5-1.3,1.2-2.4,2.1-3.3
		s2-1.6,3.2-2.1c1.2-0.5,2.5-0.8,3.8-0.8c1.5,0,2.9,0.2,4.2,0.7s2.5,1.2,3.5,2.2c1,1,1.8,2.2,2.4,3.8c0.6,1.5,0.9,3.4,0.9,5.4v7.4
		H380.2z"/>
	<path fill="#F60674" d="M392.3,167c0.2,0.1,0.5,0.1,1.1,0.2c2.3,0.5,4,0.8,5.2,0.8c1.1,0,2.1-0.2,3-0.7s1.3-1.1,1.3-2v-8.7
		c0-0.8-0.2-1.4-0.7-1.8c-0.5-0.4-1.1-0.6-1.7-0.6c-0.7,0-1.2,0.2-1.7,0.6s-0.7,1-0.7,1.8s0.2,1.4,0.7,1.8s1.1,0.6,1.7,0.6
		c0.5,0,1-0.1,1.4-0.3v7c-0.9,0.4-1.8,0.5-2.7,0.5c-1.3,0-2.4-0.3-3.5-0.8c-1.1-0.5-2-1.2-2.8-2.1c-0.8-0.9-1.4-1.9-1.8-3.1
		c-0.4-1.2-0.6-2.3-0.6-3.6c0-1.4,0.3-2.7,0.8-3.9c0.5-1.2,1.2-2.3,2.2-3.2c0.9-0.9,2-1.6,3.2-2.1c1.2-0.5,2.5-0.7,3.9-0.7
		c1.2,0,2.4,0.2,3.6,0.7s2.3,1.1,3.3,1.9c1,0.8,1.7,1.8,2.3,2.9c0.6,1.1,0.9,2.3,0.9,3.5v9.4c0,2.8-0.9,5.1-2.8,6.7
		c-1.8,1.6-4.4,2.4-7.7,2.4c-1.4,0-2.7-0.1-3.7-0.2c-1.1-0.1-2.4-0.4-4-0.8V167z"/>
	<path fill="#F60674" d="M424.5,153.8h-4.1v3.5c0,1.1,0.2,1.8,0.5,2.1c0.4,0.4,1,0.6,2,0.6h1.6v6.3h-4.6c-2.2,0-3.9-0.6-5.2-1.9
		c-1.3-1.3-1.9-3.2-1.9-5.8v-17.3h7.6v6h4.1V153.8z"/>
	<path fill="#F60674" d="M445.8,138.1c0.9,0.9,1.3,1.9,1.3,3.2c0,1.2-0.4,2.3-1.3,3.2c-0.9,0.9-1.9,1.3-3.2,1.3
		c-1.2,0-2.3-0.4-3.2-1.3c-0.9-0.9-1.3-1.9-1.3-3.2c0-1.2,0.4-2.3,1.3-3.2c0.9-0.9,1.9-1.3,3.2-1.3
		C443.8,136.8,444.9,137.3,445.8,138.1z M438.8,166.3v-19h7.6v19H438.8z"/>
	<path fill="#F60674" d="M461.4,166.3v-26.6h8.3v9.5c0.4,0,0.6-0.1,0.8-0.3c0.2-0.2,0.3-0.5,0.5-1.1l2.7-8.1h8.3l-2.6,8
		c-0.4,1.1-0.7,1.9-1,2.4c-0.3,0.5-0.7,1-1.1,1.3h0c1.2,0.4,2.1,1,2.9,1.8c0.8,0.8,1.2,1.8,1.2,2.8v10.2H473v-9.2
		c0-1.1-1.1-1.6-3.3-1.6v10.8H461.4z"/>
	<path fill="#F60674" d="M504.2,145.2l-2.7,4.4c1,0.9,1.8,2,2.4,3.2c0.6,1.3,0.8,2.6,0.8,4c0,1.3-0.3,2.6-0.8,3.8
		c-0.5,1.2-1.2,2.3-2.2,3.2c-0.9,0.9-2,1.6-3.2,2.1c-1.2,0.5-2.5,0.8-3.8,0.8c-1.2,0-2.4-0.2-3.3-0.6l-1.6,2.5H485l2.9-4.6
		c-1-0.9-1.8-2-2.4-3.3c-0.6-1.3-0.8-2.6-0.8-4c0-1.3,0.3-2.6,0.8-3.8c0.5-1.2,1.2-2.3,2.2-3.2c0.9-0.9,2-1.6,3.2-2.1
		s2.5-0.8,3.8-0.8c1.2,0,2.3,0.2,3.5,0.6l1.3-2.3H504.2z M492.9,155.1c-0.5,0.5-0.7,1.1-0.7,1.7c0,0.7,0.2,1.2,0.7,1.7
		c0.5,0.5,1.1,0.7,1.7,0.7c0.7,0,1.2-0.2,1.7-0.7c0.5-0.5,0.7-1.1,0.7-1.7c0-0.7-0.2-1.2-0.7-1.7c-0.5-0.5-1.1-0.7-1.7-0.7
		C494,154.4,493.4,154.6,492.9,155.1z"/>
	<path fill="#F60674" d="M515,139.7v16.5c0,1.1,0.3,1.9,0.8,2.5c0.5,0.6,1.2,0.9,2,0.9c0.7,0,1.4-0.3,1.9-0.8c0.5-0.5,0.8-1.2,0.8-2
		c0-0.8-0.3-1.5-0.9-2c-0.6-0.5-1.2-0.8-1.9-0.8c-0.5,0-1.1,0.1-1.9,0.4V147c0.7-0.1,1.6-0.2,2.6-0.2c1.4,0,2.7,0.2,3.8,0.7
		c1.1,0.5,2.1,1.2,2.9,2.1c0.8,0.9,1.5,1.9,1.9,3.1c0.4,1.2,0.6,2.5,0.6,3.8c0,1.5-0.3,2.9-0.8,4.1s-1.2,2.3-2.1,3.2s-2,1.6-3.2,2.1
		c-1.2,0.5-2.5,0.7-3.8,0.7c-1.4,0-2.8-0.2-4.1-0.7c-1.3-0.5-2.4-1.2-3.3-2.2c-1-1-1.7-2.2-2.2-3.8s-0.8-3.3-0.8-5.4v-14.9H515z"/>
	<path fill="#F60674" d="M540.9,159.4l-2.2-3.8l3.8-2.1c-0.6-0.5-1.4-0.8-2.4-0.8c-0.3,0-0.6,0.1-0.9,0.3s-0.6,0.5-0.9,0.8
		c-0.3,0.4-0.5,0.7-0.7,1.2c-0.2,0.4-0.2,0.8-0.2,1.2c0,1.2,0.3,2.3,1,3.1c0.7,0.8,1.6,1.2,2.8,1.2c1,0,1.8-0.2,2.6-0.6
		c0.7-0.4,1.5-1.1,2.3-1.9l4.3,4.3c-1.2,1.4-2.7,2.5-4.4,3.3c-1.7,0.8-3.6,1.2-5.5,1.2c-1.4,0-2.8-0.3-4-0.8
		c-1.2-0.5-2.3-1.2-3.2-2.1s-1.6-2-2.1-3.3c-0.5-1.3-0.7-2.6-0.7-4.1c0-1.4,0.3-2.6,0.8-3.8c0.5-1.2,1.3-2.2,2.2-3.1
		c0.9-0.9,2-1.6,3.1-2.1c1.2-0.5,2.3-0.7,3.5-0.7c2.7,0,4.9,0.7,6.6,2c1.7,1.3,2.9,3.1,3.6,5.4L540.9,159.4z"/>
	<path fill="#F60674" d="M552.9,166.3v-11.4c0-2.3,0.8-4.3,2.4-5.8c1.6-1.5,3.8-2.3,6.6-2.3s5,0.8,6.6,2.3c1.6,1.5,2.4,3.4,2.4,5.8
		v11.4h-7.6v-10.2c0-0.8-0.1-1.4-0.3-1.7c-0.2-0.3-0.6-0.5-1-0.5s-0.8,0.2-1,0.5c-0.2,0.3-0.3,0.9-0.3,1.7v10.2H552.9z"/>
	<path fill="#F60674" d="M573.5,166.3v-26.6h7.6v8.5c1.3-0.9,2.7-1.4,4-1.4c0.9,0,1.7,0.1,2.5,0.4c0.8,0.3,1.5,0.8,2.2,1.4
		c0.6,0.6,1.1,1.5,1.5,2.5c0.4,1,0.6,2.3,0.6,3.7v11.4h-7.6v-10.2c0-1.6-0.5-2.4-1.6-2.4c-1,0-1.6,0.8-1.6,2.4v10.2H573.5z"/>
	<path fill="#F60674" d="M607.5,166.3v-9.5c0-0.8-0.3-1.5-0.8-2c-0.6-0.5-1.2-0.8-2-0.8c-0.7,0-1.4,0.2-1.9,0.7
		c-0.5,0.5-0.8,1.2-0.8,2c0,0.8,0.2,1.5,0.7,2c0.5,0.5,1.1,0.8,1.7,0.8c0.6,0,1.2-0.1,2-0.4v7.4c-1.1,0.1-2,0.2-2.6,0.2
		c-1.3,0-2.5-0.2-3.7-0.7c-1.2-0.5-2.2-1.2-3-2.1s-1.6-1.9-2.1-3s-0.7-2.3-0.7-3.6c0-1.5,0.3-3,0.8-4.3c0.5-1.3,1.2-2.4,2.1-3.3
		s2-1.6,3.2-2.1c1.2-0.5,2.5-0.8,3.8-0.8c1.5,0,2.9,0.2,4.2,0.7s2.5,1.2,3.5,2.2c1,1,1.8,2.2,2.4,3.8c0.6,1.5,0.9,3.4,0.9,5.4v7.4
		H607.5z"/>
	<path fill="#F60674" d="M624.5,147.3l2.1,11.6h0.1l2.1-11.6h7.6l-3.7,14.6c-0.4,1.6-1.1,2.8-2,3.6c-0.9,0.8-2.2,1.2-4,1.2
		c-1.7,0-3-0.4-4-1.2c-0.9-0.8-1.6-2-2-3.6l-3.7-14.6H624.5z"/>
	<path fill="#F60674" d="M638.1,166.3v-11.4c0-2.3,0.8-4.3,2.4-5.8c1.6-1.5,3.8-2.3,6.6-2.3s5,0.8,6.6,2.3c1.6,1.5,2.4,3.4,2.4,5.8
		v11.4h-7.6v-10.2c0-0.8-0.1-1.4-0.3-1.7c-0.2-0.3-0.6-0.5-1-0.5s-0.8,0.2-1,0.5c-0.2,0.3-0.3,0.9-0.3,1.7v10.2H638.1z"/>
</g>
</svg>
